<svg width="17" height="17" viewBox="0 0 17 17" fill="none" xmlns="http://www.w3.org/2000/svg">
<path d="M2.5 8.77014C2.5 9.95683 2.85189 11.1169 3.51118 12.1036C4.17047 13.0903 5.10754 13.8593 6.2039 14.3134C7.30026 14.7675 8.50666 14.8864 9.67054 14.6549C10.8344 14.4233 11.9035 13.8519 12.7426 13.0128C13.5818 12.1737 14.1532 11.1046 14.3847 9.94068C14.6162 8.7768 14.4974 7.5704 14.0433 6.47404C13.5892 5.37768 12.8201 4.44061 11.8334 3.78132C10.8467 3.12204 9.68669 2.77014 8.5 2.77014C6.82263 2.77645 5.21265 3.43096 4.00667 4.59681L2.5 6.10348" stroke="#141414" stroke-width="1.33333" stroke-linecap="round" stroke-linejoin="round"/>
<path d="M2.5 2.77014V6.10347H5.83333" stroke="#141414" stroke-width="1.33333" stroke-linecap="round" stroke-linejoin="round"/>
</svg>
