<svg width="335" height="135" viewBox="0 0 335 135" fill="none" xmlns="http://www.w3.org/2000/svg">
<rect y="12.4988" width="335" height="122" rx="12" fill="#141414"/>
<path d="M34.1168 63.9289H45.7228V64.9369H34.1168V63.9289ZM33.5988 68.9269H46.1568V69.9349H33.5988V68.9269ZM41.9568 64.4609H43.0348V75.9129H41.9568V64.4609ZM36.9728 64.4469H38.0368V68.3249C38.0368 69.0063 37.9995 69.6923 37.9248 70.3829C37.8502 71.0736 37.6915 71.7503 37.4488 72.4129C37.2155 73.0663 36.8608 73.6963 36.3848 74.3029C35.9088 74.9003 35.2695 75.4509 34.4668 75.9549C34.4015 75.8616 34.3222 75.7683 34.2288 75.6749C34.1355 75.5816 34.0328 75.4883 33.9208 75.3949C33.8182 75.3016 33.7202 75.2269 33.6268 75.1709C34.3828 74.7043 34.9848 74.2003 35.4328 73.6589C35.8808 73.1176 36.2122 72.5529 36.4268 71.9649C36.6508 71.3769 36.7955 70.7749 36.8608 70.1589C36.9355 69.5429 36.9728 68.9316 36.9728 68.3249V64.4469ZM54.2628 74.3169H59.1628V75.2829H54.2628V74.3169ZM53.7308 70.2149H59.7088V75.8569H58.6588V71.1809H54.7388V75.9129H53.7308V70.2149ZM52.7648 67.8769C53.3248 67.8396 53.9688 67.8023 54.6968 67.7649C55.4342 67.7276 56.2135 67.6856 57.0348 67.6389C57.8655 67.5829 58.6962 67.5269 59.5268 67.4709L59.5128 68.4229C58.7195 68.4789 57.9262 68.5396 57.1328 68.6049C56.3395 68.6703 55.5788 68.7263 54.8508 68.7729C54.1322 68.8196 53.4788 68.8663 52.8908 68.9129L52.7648 67.8769ZM57.4128 65.6089L58.2528 65.1889C58.5702 65.5716 58.8782 65.9916 59.1768 66.4489C59.4755 66.8969 59.7462 67.3403 59.9888 67.7789C60.2315 68.2083 60.4088 68.5956 60.5208 68.9409L59.6108 69.4449C59.4988 69.0996 59.3262 68.7029 59.0928 68.2549C58.8595 67.8069 58.5982 67.3543 58.3088 66.8969C58.0195 66.4396 57.7208 66.0103 57.4128 65.6089ZM55.4948 63.0049L56.6568 63.2569C56.4608 63.8169 56.2462 64.4143 56.0128 65.0489C55.7888 65.6836 55.5555 66.2949 55.3128 66.8829C55.0702 67.4709 54.8368 67.9889 54.6128 68.4369L53.7308 68.1849C53.8895 67.8396 54.0528 67.4523 54.2208 67.0229C54.3888 66.5936 54.5475 66.1456 54.6968 65.6789C54.8555 65.2029 55.0048 64.7409 55.1448 64.2929C55.2848 63.8356 55.4015 63.4063 55.4948 63.0049ZM47.4868 65.9169H52.1068V66.8969H47.4868V65.9169ZM49.6148 63.0049L50.6088 63.1309C50.4688 63.8216 50.3102 64.5683 50.1328 65.3709C49.9555 66.1643 49.7688 66.9623 49.5728 67.7649C49.3862 68.5676 49.1995 69.3376 49.0128 70.0749C48.8262 70.8029 48.6535 71.4563 48.4948 72.0349L47.6128 71.5729C47.7715 71.0409 47.9395 70.4249 48.1168 69.7249C48.3035 69.0156 48.4855 68.2689 48.6628 67.4849C48.8402 66.7009 49.0128 65.9263 49.1808 65.1609C49.3488 64.3863 49.4935 63.6676 49.6148 63.0049ZM48.1868 71.1389L48.7608 70.4109C49.2835 70.7003 49.8202 71.0316 50.3708 71.4049C50.9308 71.7783 51.4442 72.1609 51.9108 72.5529C52.3775 72.9449 52.7508 73.3183 53.0308 73.6729L52.4008 74.5129C52.1208 74.1676 51.7475 73.7943 51.2808 73.3929C50.8235 72.9823 50.3242 72.5809 49.7828 72.1889C49.2415 71.7876 48.7095 71.4376 48.1868 71.1389ZM51.7008 65.9169H51.8828L52.0648 65.8749L52.6948 66.0149C52.5735 67.8163 52.3215 69.3656 51.9388 70.6629C51.5562 71.9509 51.0568 73.0243 50.4408 73.8829C49.8248 74.7416 49.0828 75.4276 48.2148 75.9409C48.1402 75.8103 48.0375 75.6609 47.9068 75.4929C47.7855 75.3249 47.6688 75.1896 47.5568 75.0869C48.3408 74.6763 49.0175 74.0743 49.5868 73.2809C50.1655 72.4783 50.6322 71.4843 50.9868 70.2989C51.3508 69.1043 51.5888 67.7136 51.7008 66.1269V65.9169ZM62.5228 64.1949H66.3868V73.2949H62.5228V72.3429H65.4068V65.1469H62.5228V64.1949ZM62.5648 68.2129H65.7708V69.1509H62.5648V68.2129ZM62.0048 64.1949H63.0128V74.4289H62.0048V64.1949ZM67.0308 65.8189H74.3388V66.8689H67.0308V65.8189ZM71.5668 63.0889H72.6308V74.3169C72.6308 74.6996 72.5748 74.9796 72.4628 75.1569C72.3602 75.3436 72.1828 75.4789 71.9308 75.5629C71.6788 75.6563 71.3242 75.7123 70.8668 75.7309C70.4095 75.7496 69.8308 75.7589 69.1308 75.7589C69.1028 75.6096 69.0515 75.4276 68.9768 75.2129C68.9022 75.0076 68.8228 74.8303 68.7388 74.6809C69.1122 74.6903 69.4622 74.6996 69.7888 74.7089C70.1248 74.7183 70.4142 74.7229 70.6568 74.7229C70.8995 74.7136 71.0722 74.7043 71.1748 74.6949C71.3148 74.6949 71.4128 74.6669 71.4688 74.6109C71.5342 74.5549 71.5668 74.4569 71.5668 74.3169V63.0889ZM67.5068 68.4509L68.3748 67.9889C68.6268 68.3436 68.8928 68.7263 69.1728 69.1369C69.4528 69.5476 69.7142 69.9443 69.9568 70.3269C70.2088 70.7096 70.4142 71.0456 70.5728 71.3349L69.6488 71.8669C69.4995 71.5776 69.3035 71.2369 69.0608 70.8449C68.8275 70.4436 68.5708 70.0329 68.2908 69.6129C68.0202 69.1929 67.7588 68.8056 67.5068 68.4509ZM76.1448 66.1689H77.2228V75.8989H76.1448V66.1689ZM76.3548 63.7049L77.1668 63.2009C77.3908 63.3969 77.6148 63.6163 77.8388 63.8589C78.0628 64.0923 78.2728 64.3256 78.4688 64.5589C78.6648 64.7923 78.8142 65.0069 78.9168 65.2029L78.0488 65.7629C77.9368 65.5763 77.7875 65.3616 77.6008 65.1189C77.4235 64.8763 77.2228 64.6336 76.9988 64.3909C76.7842 64.1389 76.5695 63.9103 76.3548 63.7049ZM79.7988 63.8029H87.1628V64.7969H79.7988V63.8029ZM86.5748 63.8029H87.6528V74.6249C87.6528 74.9143 87.6155 75.1336 87.5408 75.2829C87.4755 75.4416 87.3495 75.5676 87.1628 75.6609C86.9762 75.7449 86.7288 75.7916 86.4208 75.8009C86.1222 75.8196 85.7582 75.8289 85.3288 75.8289C85.3008 75.6983 85.2542 75.5349 85.1888 75.3389C85.1328 75.1523 85.0675 74.9936 84.9928 74.8629C85.2915 74.8723 85.5668 74.8769 85.8188 74.8769C86.0708 74.8769 86.2435 74.8769 86.3368 74.8769C86.4302 74.8676 86.4908 74.8443 86.5188 74.8069C86.5562 74.7696 86.5748 74.7089 86.5748 74.6249V63.8029ZM80.1768 70.6489V72.5389H83.5368V70.6489H80.1768ZM80.1768 67.9049V69.7669H83.5368V67.9049H80.1768ZM79.2248 67.0229H84.5308V73.4069H79.2248V67.0229ZM95.8708 67.1629C95.5908 67.1629 95.3435 67.0696 95.1288 66.8829C94.9142 66.6869 94.8068 66.4303 94.8068 66.1129C94.8068 65.7956 94.9142 65.5436 95.1288 65.3569C95.3435 65.1609 95.5908 65.0629 95.8708 65.0629C96.1508 65.0629 96.3982 65.1609 96.6128 65.3569C96.8275 65.5436 96.9348 65.7956 96.9348 66.1129C96.9348 66.4303 96.8275 66.6869 96.6128 66.8829C96.3982 67.0696 96.1508 67.1629 95.8708 67.1629ZM95.8708 74.0229C95.5908 74.0229 95.3435 73.9296 95.1288 73.7429C94.9142 73.5469 94.8068 73.2903 94.8068 72.9729C94.8068 72.6463 94.9142 72.3896 95.1288 72.2029C95.3435 72.0069 95.5908 71.9089 95.8708 71.9089C96.1508 71.9089 96.3982 72.0069 96.6128 72.2029C96.8275 72.3896 96.9348 72.6463 96.9348 72.9729C96.9348 73.2903 96.8275 73.5469 96.6128 73.7429C96.3982 73.9296 96.1508 74.0229 95.8708 74.0229ZM104.004 74.7789V74.0978L107.33 70.3592C107.765 69.8687 108.114 69.4494 108.379 69.1014C108.644 68.7534 108.837 68.4319 108.956 68.1369C109.079 67.8419 109.14 67.5353 109.14 67.2171C109.14 66.8294 109.049 66.4913 108.867 66.2029C108.688 65.9113 108.441 65.6842 108.126 65.5218C107.811 65.3594 107.456 65.2782 107.062 65.2782C106.644 65.2782 106.278 65.3677 105.963 65.5467C105.652 65.7257 105.41 65.9709 105.237 66.2825C105.065 66.594 104.979 66.952 104.979 67.3563H104.089C104.089 66.7929 104.218 66.2941 104.477 65.8599C104.738 65.4224 105.095 65.0794 105.546 64.8308C106 64.5822 106.513 64.4579 107.087 64.4579C107.653 64.4579 108.157 64.5805 108.598 64.8258C109.039 65.0678 109.385 65.3975 109.637 65.8152C109.889 66.2328 110.015 66.7001 110.015 67.2171C110.015 67.5917 109.949 67.9546 109.816 68.3059C109.687 68.6572 109.463 69.0483 109.145 69.4792C108.827 69.9101 108.386 70.4371 107.823 71.0602L105.297 73.8791V73.9437H110.333V74.7789H104.004ZM115.711 74.9181C114.995 74.9181 114.384 74.7126 113.877 74.3017C113.373 73.8874 112.985 73.2891 112.713 72.5069C112.445 71.7247 112.311 70.7851 112.311 69.688C112.311 68.5943 112.445 67.658 112.713 66.8791C112.985 66.0969 113.375 65.4986 113.882 65.0843C114.392 64.6667 115.002 64.4579 115.711 64.4579C116.42 64.4579 117.029 64.6667 117.536 65.0843C118.046 65.4986 118.436 66.0969 118.704 66.8791C118.976 67.658 119.112 68.5943 119.112 69.688C119.112 70.7851 118.976 71.7247 118.704 72.5069C118.436 73.2891 118.048 73.8874 117.541 74.3017C117.037 74.7126 116.427 74.9181 115.711 74.9181ZM115.711 74.0829C116.497 74.0829 117.11 73.7001 117.551 72.9345C117.991 72.1655 118.212 71.0834 118.212 69.688C118.212 68.76 118.111 67.9679 117.909 67.3116C117.71 66.652 117.423 66.1482 117.049 65.8002C116.677 65.4522 116.232 65.2782 115.711 65.2782C114.932 65.2782 114.321 65.666 113.877 66.4416C113.433 67.2138 113.21 68.296 113.21 69.688C113.21 70.6161 113.31 71.4082 113.509 72.0644C113.711 72.7207 113.998 73.2212 114.369 73.5659C114.743 73.9106 115.191 74.0829 115.711 74.0829ZM121.135 74.7789V74.0978L124.461 70.3592C124.895 69.8687 125.245 69.4494 125.51 69.1014C125.775 68.7534 125.968 68.4319 126.087 68.1369C126.21 67.8419 126.271 67.5353 126.271 67.2171C126.271 66.8294 126.18 66.4913 125.997 66.2029C125.818 65.9113 125.572 65.6842 125.257 65.5218C124.942 65.3594 124.587 65.2782 124.193 65.2782C123.775 65.2782 123.409 65.3677 123.094 65.5467C122.782 65.7257 122.541 65.9709 122.368 66.2825C122.196 66.594 122.11 66.952 122.11 67.3563H121.22C121.22 66.7929 121.349 66.2941 121.608 65.8599C121.869 65.4224 122.226 65.0794 122.676 64.8308C123.13 64.5822 123.644 64.4579 124.218 64.4579C124.784 64.4579 125.288 64.5805 125.729 64.8258C126.17 65.0678 126.516 65.3975 126.768 65.8152C127.02 66.2328 127.146 66.7001 127.146 67.2171C127.146 67.5917 127.08 67.9546 126.947 68.3059C126.818 68.6572 126.594 69.0483 126.276 69.4792C125.958 69.9101 125.517 70.4371 124.953 71.0602L122.428 73.8791V73.9437H127.464V74.7789H121.135ZM132.658 74.9181C132.091 74.9181 131.584 74.8038 131.137 74.5751C130.693 74.3431 130.338 74.0249 130.073 73.6205C129.811 73.2162 129.672 72.7538 129.655 72.2335H130.555C130.585 72.7737 130.797 73.2179 131.191 73.5659C131.586 73.9106 132.075 74.0829 132.658 74.0829C133.112 74.0829 133.517 73.9752 133.871 73.7598C134.226 73.541 134.503 73.2427 134.701 72.8649C134.904 72.4837 135.005 72.0545 135.005 71.5772C135.001 71.0801 134.894 70.6426 134.682 70.2647C134.469 69.8836 134.181 69.5853 133.816 69.3698C133.455 69.1544 133.049 69.0467 132.598 69.0467C132.257 69.0434 131.922 69.0997 131.594 69.2157C131.266 69.3317 130.993 69.4809 130.774 69.6632L129.844 69.5438L130.456 64.5971H135.487V65.4323H131.236L130.829 68.8379H130.878C131.104 68.649 131.377 68.4948 131.699 68.3755C132.023 68.2562 132.366 68.1965 132.728 68.1965C133.328 68.1965 133.866 68.3407 134.343 68.6291C134.824 68.9174 135.204 69.3152 135.482 69.8223C135.764 70.326 135.905 70.9061 135.905 71.5623C135.905 72.2053 135.764 72.7804 135.482 73.2875C135.204 73.7912 134.819 74.189 134.329 74.4806C133.841 74.7723 133.285 74.9181 132.658 74.9181ZM141.361 64.1198L138.08 76.3102H137.249L140.531 64.1198H141.361ZM146.022 74.9181C145.306 74.9181 144.694 74.7126 144.187 74.3017C143.683 73.8874 143.296 73.2891 143.024 72.5069C142.755 71.7247 142.621 70.7851 142.621 69.688C142.621 68.5943 142.755 67.658 143.024 66.8791C143.296 66.0969 143.685 65.4986 144.192 65.0843C144.703 64.6667 145.312 64.4579 146.022 64.4579C146.731 64.4579 147.339 64.6667 147.846 65.0843C148.357 65.4986 148.746 66.0969 149.015 66.8791C149.286 67.658 149.422 68.5943 149.422 69.688C149.422 70.7851 149.286 71.7247 149.015 72.5069C148.746 73.2891 148.358 73.8874 147.851 74.3017C147.348 74.7126 146.738 74.9181 146.022 74.9181ZM146.022 74.0829C146.807 74.0829 147.42 73.7001 147.861 72.9345C148.302 72.1655 148.522 71.0834 148.522 69.688C148.522 68.76 148.421 67.9679 148.219 67.3116C148.02 66.652 147.734 66.1482 147.359 65.8002C146.988 65.4522 146.542 65.2782 146.022 65.2782C145.243 65.2782 144.631 65.666 144.187 66.4416C143.743 67.2138 143.521 68.296 143.521 69.688C143.521 70.6161 143.62 71.4082 143.819 72.0644C144.022 72.7207 144.308 73.2212 144.679 73.5659C145.054 73.9106 145.501 74.0829 146.022 74.0829ZM151.466 74.7789L156.104 65.497V65.4323H150.76V64.5971H157.079V65.4721L152.445 74.7789H151.466ZM162.402 64.1198L159.121 76.3102H158.29L161.572 64.1198H162.402ZM167.043 64.5971V74.7789H166.113V65.5715H166.054L163.667 67.1575V66.193L166.073 64.5971H167.043ZM173.297 74.9181C172.581 74.9181 171.97 74.7126 171.463 74.3017C170.959 73.8874 170.571 73.2891 170.299 72.5069C170.031 71.7247 169.897 70.7851 169.897 69.688C169.897 68.5943 170.031 67.658 170.299 66.8791C170.571 66.0969 170.96 65.4986 171.468 65.0843C171.978 64.6667 172.588 64.4579 173.297 64.4579C174.006 64.4579 174.615 64.6667 175.122 65.0843C175.632 65.4986 176.022 66.0969 176.29 66.8791C176.562 67.658 176.698 68.5943 176.698 69.688C176.698 70.7851 176.562 71.7247 176.29 72.5069C176.022 73.2891 175.634 73.8874 175.127 74.3017C174.623 74.7126 174.013 74.9181 173.297 74.9181ZM173.297 74.0829C174.083 74.0829 174.696 73.7001 175.137 72.9345C175.577 72.1655 175.798 71.0834 175.798 69.688C175.798 68.76 175.697 67.9679 175.495 67.3116C175.296 66.652 175.009 66.1482 174.634 65.8002C174.263 65.4522 173.817 65.2782 173.297 65.2782C172.518 65.2782 171.907 65.666 171.463 66.4416C171.018 67.2138 170.796 68.296 170.796 69.688C170.796 70.6161 170.896 71.4082 171.095 72.0644C171.297 72.7207 171.584 73.2212 171.955 73.5659C172.329 73.9106 172.777 74.0829 173.297 74.0829ZM185.801 64.5971V74.7789H184.871V65.5715H184.811L182.425 67.1575V66.193L184.831 64.5971H185.801ZM192.055 74.9181C191.339 74.9181 190.728 74.7126 190.22 74.3017C189.717 73.8874 189.329 73.2891 189.057 72.5069C188.789 71.7247 188.654 70.7851 188.654 69.688C188.654 68.5943 188.789 67.658 189.057 66.8791C189.329 66.0969 189.718 65.4986 190.225 65.0843C190.736 64.6667 191.346 64.4579 192.055 64.4579C192.764 64.4579 193.372 64.6667 193.88 65.0843C194.39 65.4986 194.779 66.0969 195.048 66.8791C195.32 67.658 195.456 68.5943 195.456 69.688C195.456 70.7851 195.32 71.7247 195.048 72.5069C194.779 73.2891 194.392 73.8874 193.884 74.3017C193.381 74.7126 192.771 74.9181 192.055 74.9181ZM192.055 74.0829C192.84 74.0829 193.454 73.7001 193.894 72.9345C194.335 72.1655 194.556 71.0834 194.556 69.688C194.556 68.76 194.455 67.9679 194.252 67.3116C194.054 66.652 193.767 66.1482 193.392 65.8002C193.021 65.4522 192.575 65.2782 192.055 65.2782C191.276 65.2782 190.665 65.666 190.22 66.4416C189.776 67.2138 189.554 68.296 189.554 69.688C189.554 70.6161 189.654 71.4082 189.853 72.0644C190.055 72.7207 190.341 73.2212 190.713 73.5659C191.087 73.9106 191.535 74.0829 192.055 74.0829ZM198.22 73.2527C198.024 73.2527 197.855 73.183 197.713 73.0438C197.573 72.9013 197.504 72.7323 197.504 72.5367C197.504 72.3379 197.573 72.1688 197.713 72.0296C197.855 71.8904 198.024 71.8208 198.22 71.8208C198.419 71.8208 198.588 71.8904 198.727 72.0296C198.866 72.1688 198.936 72.3379 198.936 72.5367C198.936 72.666 198.902 72.7853 198.836 72.8947C198.773 73.0041 198.687 73.0919 198.578 73.1582C198.472 73.2212 198.352 73.2527 198.22 73.2527ZM198.22 68.0872C198.024 68.0872 197.855 68.0176 197.713 67.8784C197.573 67.7358 197.504 67.5668 197.504 67.3713C197.504 67.1757 197.573 67.0083 197.713 66.8691C197.855 66.7266 198.024 66.6554 198.22 66.6554C198.419 66.6554 198.588 66.7266 198.727 66.8691C198.866 67.0083 198.936 67.1757 198.936 67.3713C198.936 67.5005 198.902 67.6198 198.836 67.7292C198.773 67.8386 198.687 67.9264 198.578 67.9927C198.472 68.0557 198.352 68.0872 198.22 68.0872ZM204.401 74.9181C203.685 74.9181 203.073 74.7126 202.566 74.3017C202.062 73.8874 201.675 73.2891 201.403 72.5069C201.134 71.7247 201 70.7851 201 69.688C201 68.5943 201.134 67.658 201.403 66.8791C201.675 66.0969 202.064 65.4986 202.571 65.0843C203.082 64.6667 203.691 64.4579 204.401 64.4579C205.11 64.4579 205.718 64.6667 206.225 65.0843C206.736 65.4986 207.125 66.0969 207.394 66.8791C207.665 67.658 207.801 68.5943 207.801 69.688C207.801 70.7851 207.665 71.7247 207.394 72.5069C207.125 73.2891 206.737 73.8874 206.23 74.3017C205.726 74.7126 205.117 74.9181 204.401 74.9181ZM204.401 74.0829C205.186 74.0829 205.799 73.7001 206.24 72.9345C206.681 72.1655 206.901 71.0834 206.901 69.688C206.901 68.76 206.8 67.9679 206.598 67.3116C206.399 66.652 206.113 66.1482 205.738 65.8002C205.367 65.4522 204.921 65.2782 204.401 65.2782C203.622 65.2782 203.01 65.666 202.566 66.4416C202.122 67.2138 201.9 68.296 201.9 69.688C201.9 70.6161 201.999 71.4082 202.198 72.0644C202.4 72.7207 202.687 73.2212 203.058 73.5659C203.433 73.9106 203.88 74.0829 204.401 74.0829ZM212.987 74.9181C212.271 74.9181 211.659 74.7126 211.152 74.3017C210.648 73.8874 210.26 73.2891 209.989 72.5069C209.72 71.7247 209.586 70.7851 209.586 69.688C209.586 68.5943 209.72 67.658 209.989 66.8791C210.26 66.0969 210.65 65.4986 211.157 65.0843C211.667 64.6667 212.277 64.4579 212.987 64.4579C213.696 64.4579 214.304 64.6667 214.811 65.0843C215.322 65.4986 215.711 66.0969 215.979 66.8791C216.251 67.658 216.387 68.5943 216.387 69.688C216.387 70.7851 216.251 71.7247 215.979 72.5069C215.711 73.2891 215.323 73.8874 214.816 74.3017C214.312 74.7126 213.702 74.9181 212.987 74.9181ZM212.987 74.0829C213.772 74.0829 214.385 73.7001 214.826 72.9345C215.267 72.1655 215.487 71.0834 215.487 69.688C215.487 68.76 215.386 67.9679 215.184 67.3116C214.985 66.652 214.698 66.1482 214.324 65.8002C213.953 65.4522 213.507 65.2782 212.987 65.2782C212.208 65.2782 211.596 65.666 211.152 66.4416C210.708 67.2138 210.486 68.296 210.486 69.688C210.486 70.6161 210.585 71.4082 210.784 72.0644C210.986 72.7207 211.273 73.2212 211.644 73.5659C212.019 73.9106 212.466 74.0829 212.987 74.0829ZM219.151 73.2527C218.956 73.2527 218.787 73.183 218.644 73.0438C218.505 72.9013 218.435 72.7323 218.435 72.5367C218.435 72.3379 218.505 72.1688 218.644 72.0296C218.787 71.8904 218.956 71.8208 219.151 71.8208C219.35 71.8208 219.519 71.8904 219.658 72.0296C219.798 72.1688 219.867 72.3379 219.867 72.5367C219.867 72.666 219.834 72.7853 219.768 72.8947C219.705 73.0041 219.619 73.0919 219.509 73.1582C219.403 73.2212 219.284 73.2527 219.151 73.2527ZM219.151 68.0872C218.956 68.0872 218.787 68.0176 218.644 67.8784C218.505 67.7358 218.435 67.5668 218.435 67.3713C218.435 67.1757 218.505 67.0083 218.644 66.8691C218.787 66.7266 218.956 66.6554 219.151 66.6554C219.35 66.6554 219.519 66.7266 219.658 66.8691C219.798 67.0083 219.867 67.1757 219.867 67.3713C219.867 67.5005 219.834 67.6198 219.768 67.7292C219.705 67.8386 219.619 67.9264 219.509 67.9927C219.403 68.0557 219.284 68.0872 219.151 68.0872ZM225.332 74.9181C224.616 74.9181 224.005 74.7126 223.498 74.3017C222.994 73.8874 222.606 73.2891 222.334 72.5069C222.066 71.7247 221.932 70.7851 221.932 69.688C221.932 68.5943 222.066 67.658 222.334 66.8791C222.606 66.0969 222.996 65.4986 223.503 65.0843C224.013 64.6667 224.623 64.4579 225.332 64.4579C226.042 64.4579 226.65 64.6667 227.157 65.0843C227.667 65.4986 228.057 66.0969 228.325 66.8791C228.597 67.658 228.733 68.5943 228.733 69.688C228.733 70.7851 228.597 71.7247 228.325 72.5069C228.057 73.2891 227.669 73.8874 227.162 74.3017C226.658 74.7126 226.048 74.9181 225.332 74.9181ZM225.332 74.0829C226.118 74.0829 226.731 73.7001 227.172 72.9345C227.613 72.1655 227.833 71.0834 227.833 69.688C227.833 68.76 227.732 67.9679 227.53 67.3116C227.331 66.652 227.044 66.1482 226.67 65.8002C226.298 65.4522 225.853 65.2782 225.332 65.2782C224.553 65.2782 223.942 65.666 223.498 66.4416C223.054 67.2138 222.832 68.296 222.832 69.688C222.832 70.6161 222.931 71.4082 223.13 72.0644C223.332 72.7207 223.619 73.2212 223.99 73.5659C224.364 73.9106 224.812 74.0829 225.332 74.0829ZM233.918 74.9181C233.202 74.9181 232.591 74.7126 232.084 74.3017C231.58 73.8874 231.192 73.2891 230.92 72.5069C230.652 71.7247 230.518 70.7851 230.518 69.688C230.518 68.5943 230.652 67.658 230.92 66.8791C231.192 66.0969 231.582 65.4986 232.089 65.0843C232.599 64.6667 233.209 64.4579 233.918 64.4579C234.628 64.4579 235.236 64.6667 235.743 65.0843C236.253 65.4986 236.643 66.0969 236.911 66.8791C237.183 67.658 237.319 68.5943 237.319 69.688C237.319 70.7851 237.183 71.7247 236.911 72.5069C236.643 73.2891 236.255 73.8874 235.748 74.3017C235.244 74.7126 234.634 74.9181 233.918 74.9181ZM233.918 74.0829C234.704 74.0829 235.317 73.7001 235.758 72.9345C236.199 72.1655 236.419 71.0834 236.419 69.688C236.419 68.76 236.318 67.9679 236.116 67.3116C235.917 66.652 235.63 66.1482 235.256 65.8002C234.884 65.4522 234.439 65.2782 233.918 65.2782C233.139 65.2782 232.528 65.666 232.084 66.4416C231.64 67.2138 231.418 68.296 231.418 69.688C231.418 70.6161 231.517 71.4082 231.716 72.0644C231.918 72.7207 232.205 73.2212 232.576 73.5659C232.95 73.9106 233.398 74.0829 233.918 74.0829ZM243.682 69.688C243.682 68.4948 243.833 67.3679 244.135 66.3073C244.436 65.2467 244.869 64.2524 245.432 63.3244H246.238C245.996 63.7155 245.774 64.158 245.572 64.6518C245.373 65.1456 245.2 65.6726 245.055 66.2328C244.909 66.7929 244.796 67.3663 244.717 67.9529C244.637 68.5363 244.597 69.1146 244.597 69.688C244.597 70.4536 244.667 71.2259 244.806 72.0048C244.945 72.7837 245.137 73.5228 245.383 74.2221C245.631 74.9214 245.916 75.5313 246.238 76.0517H245.432C244.869 75.1203 244.436 74.1243 244.135 73.0637C243.833 72.0031 243.682 70.8779 243.682 69.688ZM255.138 64.5971H256.068V71.3386C256.068 72.0313 255.906 72.6511 255.581 73.198C255.256 73.7415 254.803 74.1707 254.223 74.4856C253.647 74.7972 252.976 74.9529 252.21 74.9529C251.448 74.9529 250.776 74.7955 250.196 74.4806C249.616 74.1658 249.164 73.7366 248.839 73.193C248.514 72.6494 248.352 72.0313 248.352 71.3386V64.5971H249.282V71.274C249.282 71.8142 249.403 72.2964 249.645 72.7207C249.887 73.1416 250.226 73.4731 250.664 73.715C251.105 73.957 251.62 74.0779 252.21 74.0779C252.8 74.0779 253.315 73.957 253.756 73.715C254.197 73.4731 254.537 73.1416 254.775 72.7207C255.017 72.2964 255.138 71.8142 255.138 71.274V64.5971ZM258.153 65.4323V64.5971H265.536V65.4323H262.31V74.7789H261.38V65.4323H258.153ZM275.18 67.7789H274.245C274.176 67.4309 274.05 67.1094 273.867 66.8144C273.688 66.5161 273.463 66.256 273.191 66.0339C272.92 65.8118 272.611 65.6395 272.267 65.5169C271.922 65.3942 271.549 65.3329 271.148 65.3329C270.505 65.3329 269.918 65.5003 269.388 65.835C268.861 66.1698 268.438 66.662 268.12 67.3116C267.805 67.9579 267.648 68.75 267.648 69.688C267.648 70.6326 267.805 71.4281 268.12 72.0744C268.438 72.7207 268.861 73.2112 269.388 73.546C269.918 73.8774 270.505 74.0431 271.148 74.0431C271.549 74.0431 271.922 73.9818 272.267 73.8592C272.611 73.7366 272.92 73.5659 273.191 73.3471C273.463 73.125 273.688 72.8649 273.867 72.5666C274.05 72.2683 274.176 71.9451 274.245 71.5971H275.18C275.097 72.0644 274.941 72.5003 274.713 72.9046C274.487 73.3057 274.199 73.657 273.848 73.9586C273.5 74.2602 273.099 74.4955 272.644 74.6646C272.19 74.8336 271.692 74.9181 271.148 74.9181C270.293 74.9181 269.534 74.7044 268.871 74.2768C268.208 73.8459 267.688 73.2394 267.31 72.4572C266.935 71.675 266.748 70.7519 266.748 69.688C266.748 68.6241 266.935 67.701 267.31 66.9188C267.688 66.1366 268.208 65.5318 268.871 65.1042C269.534 64.6733 270.293 64.4579 271.148 64.4579C271.692 64.4579 272.19 64.5424 272.644 64.7115C273.099 64.8772 273.5 65.1125 273.848 65.4174C274.199 65.719 274.487 66.0704 274.713 66.4714C274.941 66.8724 275.097 67.3083 275.18 67.7789ZM280.148 72.85V66.5509H280.998V72.85H280.148ZM277.423 70.1255V69.2754H283.722V70.1255H277.423ZM289.411 74.9181C288.762 74.9181 288.183 74.7955 287.676 74.5502C287.169 74.305 286.771 73.9702 286.483 73.546C286.195 73.1184 286.05 72.6362 286.05 72.0992C286.05 71.6783 286.138 71.2856 286.314 70.921C286.489 70.5531 286.731 70.2448 287.04 69.9963C287.348 69.7444 287.694 69.5803 288.079 69.5041V69.4494C287.578 69.3036 287.176 69.0169 286.871 68.5893C286.566 68.1584 286.415 67.6696 286.418 67.1227C286.415 66.6156 286.544 66.1615 286.806 65.7605C287.068 65.3594 287.424 65.0429 287.875 64.8109C288.329 64.5756 288.841 64.4579 289.411 64.4579C289.978 64.4579 290.487 64.5756 290.937 64.8109C291.388 65.0429 291.744 65.3594 292.006 65.7605C292.271 66.1615 292.406 66.6156 292.409 67.1227C292.406 67.6662 292.252 68.1551 291.947 68.5893C291.642 69.0202 291.241 69.3069 290.744 69.4494V69.5041C291.128 69.577 291.473 69.7394 291.778 69.9913C292.083 70.2432 292.324 70.5531 292.503 70.921C292.682 71.2856 292.772 71.6783 292.772 72.0992C292.772 72.6362 292.626 73.1184 292.334 73.546C292.046 73.9702 291.648 74.305 291.141 74.5502C290.637 74.7955 290.061 74.9181 289.411 74.9181ZM289.411 74.0829C289.895 74.0829 290.319 73.9967 290.684 73.8244C291.052 73.6487 291.338 73.4084 291.544 73.1035C291.753 72.7986 291.857 72.4489 291.857 72.0545C291.857 71.6468 291.749 71.2839 291.534 70.9657C291.319 70.6442 291.027 70.3907 290.659 70.2051C290.291 70.0161 289.875 69.9217 289.411 69.9217C288.947 69.9217 288.529 70.0161 288.158 70.2051C287.79 70.3907 287.499 70.6442 287.283 70.9657C287.071 71.2839 286.965 71.6468 286.965 72.0545C286.965 72.4489 287.066 72.7986 287.268 73.1035C287.474 73.4084 287.761 73.6487 288.128 73.8244C288.5 73.9967 288.927 74.0829 289.411 74.0829ZM289.411 69.1262C289.809 69.1262 290.165 69.0417 290.48 68.8727C290.795 68.7036 291.043 68.4733 291.226 68.1816C291.411 67.8866 291.506 67.5519 291.509 67.1774C291.506 66.8062 291.413 66.478 291.231 66.193C291.048 65.9046 290.8 65.6809 290.485 65.5218C290.173 65.3594 289.815 65.2782 289.411 65.2782C289.007 65.2782 288.645 65.3594 288.327 65.5218C288.012 65.6809 287.764 65.9046 287.582 66.193C287.403 66.478 287.315 66.8062 287.318 67.1774C287.315 67.5519 287.404 67.8866 287.587 68.1816C287.772 68.4733 288.022 68.7036 288.337 68.8727C288.655 69.0417 289.013 69.1262 289.411 69.1262ZM297.019 69.688C297.019 70.8812 296.868 72.0081 296.566 73.0687C296.265 74.1293 295.832 75.1236 295.269 76.0517H294.464C294.705 75.6606 294.926 75.2181 295.125 74.7242C295.327 74.2304 295.501 73.7034 295.647 73.1433C295.793 72.5831 295.905 72.0098 295.985 71.4231C296.064 70.8365 296.104 70.2581 296.104 69.688C296.104 68.9224 296.035 68.1501 295.895 67.3713C295.756 66.5924 295.562 65.8533 295.314 65.1539C295.068 64.4546 294.785 63.8447 294.464 63.3244H295.269C295.832 64.2557 296.265 65.2517 296.566 66.3123C296.868 67.3729 297.019 68.4982 297.019 69.688ZM33.7528 102.203C33.7435 102.128 33.7155 102.03 33.6688 101.909C33.6222 101.778 33.5755 101.648 33.5288 101.517C33.4915 101.386 33.4495 101.274 33.4028 101.181C33.5615 101.153 33.7295 101.06 33.9068 100.901C34.0842 100.733 34.2848 100.523 34.5088 100.271C34.6302 100.15 34.8075 99.9443 35.0408 99.6549C35.2835 99.3656 35.5495 99.0249 35.8388 98.6329C36.1282 98.2409 36.4222 97.8163 36.7208 97.3589C37.0195 96.9016 37.2948 96.4396 37.5468 95.9729L38.5128 96.5609C37.9155 97.4943 37.2715 98.4043 36.5808 99.2909C35.8902 100.178 35.1948 100.957 34.4948 101.629V101.657C34.4948 101.657 34.4575 101.676 34.3828 101.713C34.3082 101.741 34.2195 101.783 34.1168 101.839C34.0235 101.895 33.9395 101.956 33.8648 102.021C33.7902 102.086 33.7528 102.147 33.7528 102.203ZM33.7528 102.203L33.7108 101.321L34.2568 100.957L38.4428 100.271C38.4335 100.411 38.4335 100.574 38.4428 100.761C38.4615 100.938 38.4802 101.083 38.4988 101.195C37.5188 101.372 36.7302 101.517 36.1328 101.629C35.5448 101.741 35.0922 101.83 34.7748 101.895C34.4668 101.96 34.2382 102.016 34.0888 102.063C33.9488 102.11 33.8368 102.156 33.7528 102.203ZM33.6548 98.8009C33.6362 98.7263 33.6035 98.6236 33.5568 98.4929C33.5195 98.3623 33.4775 98.2316 33.4308 98.1009C33.3842 97.9609 33.3375 97.8443 33.2908 97.7509C33.4215 97.7229 33.5522 97.6343 33.6828 97.4849C33.8135 97.3356 33.9488 97.1489 34.0888 96.9249C34.1728 96.8129 34.2895 96.6309 34.4388 96.3789C34.5882 96.1176 34.7562 95.8096 34.9428 95.4549C35.1295 95.1003 35.3115 94.7223 35.4888 94.3209C35.6755 93.9196 35.8388 93.5136 35.9788 93.1029L37.0568 93.5509C36.8142 94.1109 36.5435 94.6709 36.2448 95.2309C35.9555 95.7816 35.6522 96.3136 35.3348 96.8269C35.0175 97.3309 34.6955 97.7883 34.3688 98.1989V98.2269C34.3688 98.2269 34.3315 98.2456 34.2568 98.2829C34.1915 98.3203 34.1075 98.3716 34.0048 98.4369C33.9115 98.4929 33.8275 98.5536 33.7528 98.6189C33.6875 98.6843 33.6548 98.7449 33.6548 98.8009ZM33.6548 98.8009L33.6408 98.0169L34.1728 97.6809L37.1268 97.4289C37.0988 97.5596 37.0755 97.7089 37.0568 97.8769C37.0382 98.0449 37.0288 98.1849 37.0288 98.2969C36.3662 98.3716 35.8248 98.4369 35.4048 98.4929C34.9848 98.5396 34.6582 98.5816 34.4248 98.6189C34.2008 98.6563 34.0328 98.6889 33.9208 98.7169C33.8088 98.7449 33.7202 98.7729 33.6548 98.8009ZM33.3608 104.037C33.7995 103.962 34.2942 103.874 34.8448 103.771C35.4048 103.659 35.9928 103.542 36.6088 103.421C37.2342 103.29 37.8548 103.164 38.4708 103.043L38.5548 104.009C37.6775 104.214 36.7955 104.41 35.9088 104.597C35.0315 104.784 34.2428 104.956 33.5428 105.115L33.3608 104.037ZM38.5828 94.8949H46.0728V95.9029H38.5828V94.8949ZM38.9328 98.0869H45.8348V99.0949H38.9328V98.0869ZM39.8708 104.331H44.9388V105.283H39.8708V104.331ZM41.8168 93.0049H42.8948V98.6049H41.8168V93.0049ZM39.2968 100.523H45.4848V105.829H44.4348V101.475H40.3188V105.885H39.2968V100.523ZM47.9348 94.5029H59.8488V95.4969H47.9348V94.5029ZM53.3108 93.0329H54.3888V105.899H53.3108V93.0329ZM53.1988 100.495L54.0808 100.901C53.7448 101.377 53.3482 101.839 52.8908 102.287C52.4428 102.735 51.9575 103.16 51.4348 103.561C50.9122 103.953 50.3708 104.308 49.8108 104.625C49.2508 104.942 48.7002 105.213 48.1588 105.437C48.1122 105.344 48.0422 105.241 47.9488 105.129C47.8648 105.026 47.7762 104.924 47.6828 104.821C47.5988 104.718 47.5148 104.63 47.4308 104.555C47.9722 104.368 48.5182 104.135 49.0688 103.855C49.6288 103.566 50.1608 103.244 50.6648 102.889C51.1782 102.525 51.6495 102.142 52.0788 101.741C52.5175 101.33 52.8908 100.915 53.1988 100.495ZM54.5708 100.523C54.9815 101.083 55.4995 101.624 56.1248 102.147C56.7502 102.67 57.4315 103.141 58.1688 103.561C58.9155 103.972 59.6575 104.298 60.3948 104.541C60.3202 104.616 60.2315 104.704 60.1288 104.807C60.0355 104.91 59.9468 105.017 59.8628 105.129C59.7788 105.25 59.7042 105.358 59.6388 105.451C58.9015 105.162 58.1595 104.784 57.4128 104.317C56.6755 103.85 55.9848 103.328 55.3408 102.749C54.6968 102.161 54.1508 101.55 53.7028 100.915L54.5708 100.523ZM49.9088 97.9609V100.117H57.8188V97.9609H49.9088ZM48.9008 97.0229H58.8968V101.055H48.9008V97.0229ZM62.5228 94.1949H66.3868V103.295H62.5228V102.343H65.4068V95.1469H62.5228V94.1949ZM62.5648 98.2129H65.7708V99.1509H62.5648V98.2129ZM62.0048 94.1949H63.0128V104.429H62.0048V94.1949ZM67.0308 95.8189H74.3388V96.8689H67.0308V95.8189ZM71.5668 93.0889H72.6308V104.317C72.6308 104.7 72.5748 104.98 72.4628 105.157C72.3602 105.344 72.1828 105.479 71.9308 105.563C71.6788 105.656 71.3242 105.712 70.8668 105.731C70.4095 105.75 69.8308 105.759 69.1308 105.759C69.1028 105.61 69.0515 105.428 68.9768 105.213C68.9022 105.008 68.8228 104.83 68.7388 104.681C69.1122 104.69 69.4622 104.7 69.7888 104.709C70.1248 104.718 70.4142 104.723 70.6568 104.723C70.8995 104.714 71.0722 104.704 71.1748 104.695C71.3148 104.695 71.4128 104.667 71.4688 104.611C71.5342 104.555 71.5668 104.457 71.5668 104.317V93.0889ZM67.5068 98.4509L68.3748 97.9889C68.6268 98.3436 68.8928 98.7263 69.1728 99.1369C69.4528 99.5476 69.7142 99.9443 69.9568 100.327C70.2088 100.71 70.4142 101.046 70.5728 101.335L69.6488 101.867C69.4995 101.578 69.3035 101.237 69.0608 100.845C68.8275 100.444 68.5708 100.033 68.2908 99.6129C68.0202 99.1929 67.7588 98.8056 67.5068 98.4509ZM76.1448 96.1689H77.2228V105.899H76.1448V96.1689ZM76.3548 93.7049L77.1668 93.2009C77.3908 93.3969 77.6148 93.6163 77.8388 93.8589C78.0628 94.0923 78.2728 94.3256 78.4688 94.5589C78.6648 94.7923 78.8142 95.0069 78.9168 95.2029L78.0488 95.7629C77.9368 95.5763 77.7875 95.3616 77.6008 95.1189C77.4235 94.8763 77.2228 94.6336 76.9988 94.3909C76.7842 94.1389 76.5695 93.9103 76.3548 93.7049ZM79.7988 93.8029H87.1628V94.7969H79.7988V93.8029ZM86.5748 93.8029H87.6528V104.625C87.6528 104.914 87.6155 105.134 87.5408 105.283C87.4755 105.442 87.3495 105.568 87.1628 105.661C86.9762 105.745 86.7288 105.792 86.4208 105.801C86.1222 105.82 85.7582 105.829 85.3288 105.829C85.3008 105.698 85.2542 105.535 85.1888 105.339C85.1328 105.152 85.0675 104.994 84.9928 104.863C85.2915 104.872 85.5668 104.877 85.8188 104.877C86.0708 104.877 86.2435 104.877 86.3368 104.877C86.4302 104.868 86.4908 104.844 86.5188 104.807C86.5562 104.77 86.5748 104.709 86.5748 104.625V93.8029ZM80.1768 100.649V102.539H83.5368V100.649H80.1768ZM80.1768 97.9049V99.7669H83.5368V97.9049H80.1768ZM79.2248 97.0229H84.5308V103.407H79.2248V97.0229ZM95.8708 97.1629C95.5908 97.1629 95.3435 97.0696 95.1288 96.8829C94.9142 96.6869 94.8068 96.4303 94.8068 96.1129C94.8068 95.7956 94.9142 95.5436 95.1288 95.3569C95.3435 95.1609 95.5908 95.0629 95.8708 95.0629C96.1508 95.0629 96.3982 95.1609 96.6128 95.3569C96.8275 95.5436 96.9348 95.7956 96.9348 96.1129C96.9348 96.4303 96.8275 96.6869 96.6128 96.8829C96.3982 97.0696 96.1508 97.1629 95.8708 97.1629ZM95.8708 104.023C95.5908 104.023 95.3435 103.93 95.1288 103.743C94.9142 103.547 94.8068 103.29 94.8068 102.973C94.8068 102.646 94.9142 102.39 95.1288 102.203C95.3435 102.007 95.5908 101.909 95.8708 101.909C96.1508 101.909 96.3982 102.007 96.6128 102.203C96.8275 102.39 96.9348 102.646 96.9348 102.973C96.9348 103.29 96.8275 103.547 96.6128 103.743C96.3982 103.93 96.1508 104.023 95.8708 104.023ZM104.004 104.779V104.098L107.33 100.359C107.765 99.8687 108.114 99.4494 108.379 99.1014C108.644 98.7534 108.837 98.4319 108.956 98.1369C109.079 97.8419 109.14 97.5353 109.14 97.2171C109.14 96.8294 109.049 96.4913 108.867 96.2029C108.688 95.9113 108.441 95.6842 108.126 95.5218C107.811 95.3594 107.456 95.2782 107.062 95.2782C106.644 95.2782 106.278 95.3677 105.963 95.5467C105.652 95.7257 105.41 95.9709 105.237 96.2825C105.065 96.594 104.979 96.952 104.979 97.3563H104.089C104.089 96.7929 104.218 96.2941 104.477 95.8599C104.738 95.4224 105.095 95.0794 105.546 94.8308C106 94.5822 106.513 94.4579 107.087 94.4579C107.653 94.4579 108.157 94.5805 108.598 94.8258C109.039 95.0678 109.385 95.3975 109.637 95.8152C109.889 96.2328 110.015 96.7001 110.015 97.2171C110.015 97.5917 109.949 97.9546 109.816 98.3059C109.687 98.6572 109.463 99.0483 109.145 99.4792C108.827 99.9101 108.386 100.437 107.823 101.06L105.297 103.879V103.944H110.333V104.779H104.004ZM115.711 104.918C114.995 104.918 114.384 104.713 113.877 104.302C113.373 103.887 112.985 103.289 112.713 102.507C112.445 101.725 112.311 100.785 112.311 99.688C112.311 98.5943 112.445 97.658 112.713 96.8791C112.985 96.0969 113.375 95.4986 113.882 95.0843C114.392 94.6667 115.002 94.4579 115.711 94.4579C116.42 94.4579 117.029 94.6667 117.536 95.0843C118.046 95.4986 118.436 96.0969 118.704 96.8791C118.976 97.658 119.112 98.5943 119.112 99.688C119.112 100.785 118.976 101.725 118.704 102.507C118.436 103.289 118.048 103.887 117.541 104.302C117.037 104.713 116.427 104.918 115.711 104.918ZM115.711 104.083C116.497 104.083 117.11 103.7 117.551 102.934C117.991 102.166 118.212 101.083 118.212 99.688C118.212 98.76 118.111 97.9679 117.909 97.3116C117.71 96.652 117.423 96.1482 117.049 95.8002C116.677 95.4522 116.232 95.2782 115.711 95.2782C114.932 95.2782 114.321 95.666 113.877 96.4416C113.433 97.2138 113.21 98.296 113.21 99.688C113.21 100.616 113.31 101.408 113.509 102.064C113.711 102.721 113.998 103.221 114.369 103.566C114.743 103.911 115.191 104.083 115.711 104.083ZM121.135 104.779V104.098L124.461 100.359C124.895 99.8687 125.245 99.4494 125.51 99.1014C125.775 98.7534 125.968 98.4319 126.087 98.1369C126.21 97.8419 126.271 97.5353 126.271 97.2171C126.271 96.8294 126.18 96.4913 125.997 96.2029C125.818 95.9113 125.572 95.6842 125.257 95.5218C124.942 95.3594 124.587 95.2782 124.193 95.2782C123.775 95.2782 123.409 95.3677 123.094 95.5467C122.782 95.7257 122.541 95.9709 122.368 96.2825C122.196 96.594 122.11 96.952 122.11 97.3563H121.22C121.22 96.7929 121.349 96.2941 121.608 95.8599C121.869 95.4224 122.226 95.0794 122.676 94.8308C123.13 94.5822 123.644 94.4579 124.218 94.4579C124.784 94.4579 125.288 94.5805 125.729 94.8258C126.17 95.0678 126.516 95.3975 126.768 95.8152C127.02 96.2328 127.146 96.7001 127.146 97.2171C127.146 97.5917 127.08 97.9546 126.947 98.3059C126.818 98.6572 126.594 99.0483 126.276 99.4792C125.958 99.9101 125.517 100.437 124.953 101.06L122.428 103.879V103.944H127.464V104.779H121.135ZM132.658 104.918C132.091 104.918 131.584 104.804 131.137 104.575C130.693 104.343 130.338 104.025 130.073 103.621C129.811 103.216 129.672 102.754 129.655 102.233H130.555C130.585 102.774 130.797 103.218 131.191 103.566C131.586 103.911 132.075 104.083 132.658 104.083C133.112 104.083 133.517 103.975 133.871 103.76C134.226 103.541 134.503 103.243 134.701 102.865C134.904 102.484 135.005 102.054 135.005 101.577C135.001 101.08 134.894 100.643 134.682 100.265C134.469 99.8836 134.181 99.5853 133.816 99.3698C133.455 99.1544 133.049 99.0467 132.598 99.0467C132.257 99.0434 131.922 99.0997 131.594 99.2157C131.266 99.3317 130.993 99.4809 130.774 99.6632L129.844 99.5438L130.456 94.5971H135.487V95.4323H131.236L130.829 98.8379H130.878C131.104 98.649 131.377 98.4948 131.699 98.3755C132.023 98.2562 132.366 98.1965 132.728 98.1965C133.328 98.1965 133.866 98.3407 134.343 98.6291C134.824 98.9174 135.204 99.3152 135.482 99.8223C135.764 100.326 135.905 100.906 135.905 101.562C135.905 102.205 135.764 102.78 135.482 103.287C135.204 103.791 134.819 104.189 134.329 104.481C133.841 104.772 133.285 104.918 132.658 104.918ZM141.361 94.1198L138.08 106.31H137.249L140.531 94.1198H141.361ZM146.022 104.918C145.306 104.918 144.694 104.713 144.187 104.302C143.683 103.887 143.296 103.289 143.024 102.507C142.755 101.725 142.621 100.785 142.621 99.688C142.621 98.5943 142.755 97.658 143.024 96.8791C143.296 96.0969 143.685 95.4986 144.192 95.0843C144.703 94.6667 145.312 94.4579 146.022 94.4579C146.731 94.4579 147.339 94.6667 147.846 95.0843C148.357 95.4986 148.746 96.0969 149.015 96.8791C149.286 97.658 149.422 98.5943 149.422 99.688C149.422 100.785 149.286 101.725 149.015 102.507C148.746 103.289 148.358 103.887 147.851 104.302C147.348 104.713 146.738 104.918 146.022 104.918ZM146.022 104.083C146.807 104.083 147.42 103.7 147.861 102.934C148.302 102.166 148.522 101.083 148.522 99.688C148.522 98.76 148.421 97.9679 148.219 97.3116C148.02 96.652 147.734 96.1482 147.359 95.8002C146.988 95.4522 146.542 95.2782 146.022 95.2782C145.243 95.2782 144.631 95.666 144.187 96.4416C143.743 97.2138 143.521 98.296 143.521 99.688C143.521 100.616 143.62 101.408 143.819 102.064C144.022 102.721 144.308 103.221 144.679 103.566C145.054 103.911 145.501 104.083 146.022 104.083ZM151.466 104.779L156.104 95.497V95.4323H150.76V94.5971H157.079V95.4721L152.445 104.779H151.466ZM162.402 94.1198L159.121 106.31H158.29L161.572 94.1198H162.402ZM167.043 94.5971V104.779H166.113V95.5715H166.054L163.667 97.1575V96.193L166.073 94.5971H167.043ZM173.198 94.4579C173.622 94.4612 174.033 94.5474 174.431 94.7164C174.832 94.8822 175.193 95.1506 175.514 95.5218C175.836 95.8897 176.091 96.3803 176.28 96.9934C176.469 97.6033 176.563 98.354 176.563 99.2455C176.563 100.077 176.491 100.84 176.345 101.532C176.199 102.225 175.98 102.825 175.688 103.332C175.4 103.836 175.036 104.227 174.595 104.505C174.157 104.781 173.645 104.918 173.058 104.918C172.512 104.918 172.026 104.804 171.602 104.575C171.181 104.346 170.84 104.03 170.578 103.626C170.316 103.218 170.153 102.747 170.09 102.214H171.005C171.095 102.757 171.313 103.205 171.661 103.556C172.013 103.907 172.478 104.083 173.058 104.083C173.89 104.083 174.537 103.695 174.997 102.92C175.458 102.144 175.688 101.04 175.688 99.6085H175.624C175.465 99.9068 175.256 100.167 174.997 100.389C174.742 100.611 174.451 100.785 174.122 100.911C173.794 101.034 173.448 101.095 173.083 101.095C172.517 101.095 171.998 100.952 171.527 100.667C171.057 100.379 170.68 99.9863 170.399 99.4892C170.117 98.9887 169.976 98.4186 169.976 97.7789C169.976 97.1757 170.109 96.6222 170.374 96.1184C170.642 95.6113 171.017 95.207 171.497 94.9054C171.981 94.6004 172.548 94.4513 173.198 94.4579ZM173.198 95.2931C172.757 95.2931 172.361 95.4058 172.009 95.6312C171.661 95.8533 171.385 96.1532 171.179 96.5311C170.977 96.9056 170.876 97.3215 170.876 97.7789C170.876 98.2396 170.977 98.6589 171.179 99.0367C171.385 99.4113 171.661 99.7096 172.009 99.9316C172.361 100.15 172.757 100.26 173.198 100.26C173.536 100.26 173.851 100.192 174.142 100.056C174.434 99.9167 174.686 99.7278 174.898 99.4892C175.113 99.2505 175.276 98.9804 175.385 98.6788C175.498 98.3739 175.543 98.054 175.519 97.7193C175.48 97.2553 175.355 96.841 175.147 96.4764C174.941 96.1085 174.669 95.8201 174.331 95.6113C173.996 95.3992 173.619 95.2931 173.198 95.2931ZM182.604 104.779V104.098L185.93 100.359C186.364 99.8687 186.714 99.4494 186.979 99.1014C187.244 98.7534 187.436 98.4319 187.556 98.1369C187.678 97.8419 187.74 97.5353 187.74 97.2171C187.74 96.8294 187.648 96.4913 187.466 96.2029C187.287 95.9113 187.04 95.6842 186.725 95.5218C186.411 95.3594 186.056 95.2782 185.661 95.2782C185.244 95.2782 184.878 95.3677 184.563 95.5467C184.251 95.7257 184.009 95.9709 183.837 96.2825C183.665 96.594 183.578 96.952 183.578 97.3563H182.688C182.688 96.7929 182.818 96.2941 183.076 95.8599C183.338 95.4224 183.694 95.0794 184.145 94.8308C184.599 94.5822 185.113 94.4579 185.686 94.4579C186.253 94.4579 186.757 94.5805 187.198 94.8258C187.639 95.0678 187.985 95.3975 188.237 95.8152C188.489 96.2328 188.615 96.7001 188.615 97.2171C188.615 97.5917 188.548 97.9546 188.416 98.3059C188.286 98.6572 188.063 99.0483 187.745 99.4792C187.426 99.9101 186.986 100.437 186.422 101.06L183.897 103.879V103.944H188.933V104.779H182.604ZM194.455 104.918C193.829 104.918 193.268 104.805 192.775 104.58C192.281 104.351 191.89 104.035 191.601 103.63C191.313 103.226 191.16 102.76 191.144 102.233H192.084C192.1 102.605 192.214 102.929 192.427 103.208C192.639 103.483 192.92 103.698 193.272 103.854C193.623 104.007 194.014 104.083 194.445 104.083C194.916 104.083 195.33 103.995 195.688 103.819C196.049 103.644 196.331 103.403 196.533 103.099C196.739 102.79 196.841 102.442 196.841 102.054C196.841 101.644 196.737 101.281 196.528 100.966C196.319 100.651 196.019 100.406 195.628 100.23C195.24 100.054 194.776 99.9664 194.236 99.9664H193.64V99.1312H194.236C194.677 99.1312 195.066 99.0517 195.405 98.8926C195.746 98.7302 196.014 98.5031 196.21 98.2115C196.406 97.9198 196.503 97.5768 196.503 97.1823C196.503 96.8078 196.419 96.478 196.25 96.193C196.081 95.908 195.842 95.6842 195.534 95.5218C195.229 95.3594 194.873 95.2782 194.465 95.2782C194.071 95.2782 193.709 95.3545 193.381 95.5069C193.053 95.6594 192.788 95.8748 192.586 96.1532C192.387 96.4316 192.281 96.7614 192.267 97.1426H191.368C191.381 96.6123 191.527 96.1466 191.805 95.7455C192.087 95.3412 192.46 95.0263 192.924 94.8009C193.391 94.5723 193.908 94.4579 194.475 94.4579C195.075 94.4579 195.593 94.5805 196.031 94.8258C196.468 95.0711 196.807 95.3975 197.045 95.8052C197.287 96.2096 197.408 96.6554 197.408 97.1426C197.408 97.7226 197.251 98.2197 196.936 98.634C196.621 99.045 196.197 99.3301 195.663 99.4892V99.5538C196.313 99.683 196.823 99.9714 197.194 100.419C197.569 100.863 197.756 101.408 197.756 102.054C197.756 102.598 197.614 103.087 197.329 103.521C197.044 103.952 196.652 104.293 196.155 104.545C195.661 104.794 195.095 104.918 194.455 104.918ZM200.694 103.253C200.499 103.253 200.33 103.183 200.187 103.044C200.048 102.901 199.978 102.732 199.978 102.537C199.978 102.338 200.048 102.169 200.187 102.03C200.33 101.89 200.499 101.821 200.694 101.821C200.893 101.821 201.062 101.89 201.201 102.03C201.341 102.169 201.41 102.338 201.41 102.537C201.41 102.666 201.377 102.785 201.311 102.895C201.248 103.004 201.162 103.092 201.052 103.158C200.946 103.221 200.827 103.253 200.694 103.253ZM200.694 98.0872C200.499 98.0872 200.33 98.0176 200.187 97.8784C200.048 97.7358 199.978 97.5668 199.978 97.3713C199.978 97.1757 200.048 97.0083 200.187 96.8691C200.33 96.7266 200.499 96.6554 200.694 96.6554C200.893 96.6554 201.062 96.7266 201.201 96.8691C201.341 97.0083 201.41 97.1757 201.41 97.3713C201.41 97.5005 201.377 97.6198 201.311 97.7292C201.248 97.8386 201.162 97.9264 201.052 97.9927C200.946 98.0557 200.827 98.0872 200.694 98.0872ZM206.691 104.918C206.125 104.918 205.617 104.804 205.17 104.575C204.726 104.343 204.371 104.025 204.106 103.621C203.844 103.216 203.705 102.754 203.688 102.233H204.588C204.618 102.774 204.83 103.218 205.225 103.566C205.619 103.911 206.108 104.083 206.691 104.083C207.145 104.083 207.55 103.975 207.904 103.76C208.259 103.541 208.536 103.243 208.735 102.865C208.937 102.484 209.038 102.054 209.038 101.577C209.035 101.08 208.927 100.643 208.715 100.265C208.503 99.8836 208.214 99.5853 207.85 99.3698C207.488 99.1544 207.082 99.0467 206.632 99.0467C206.29 99.0434 205.956 99.0997 205.627 99.2157C205.299 99.3317 205.026 99.4809 204.807 99.6632L203.877 99.5438L204.489 94.5971H209.52V95.4323H205.269L204.862 98.8379H204.911C205.137 98.649 205.41 98.4948 205.732 98.3755C206.057 98.2562 206.4 98.1965 206.761 98.1965C207.361 98.1965 207.899 98.3407 208.377 98.6291C208.857 98.9174 209.237 99.3152 209.515 99.8223C209.797 100.326 209.938 100.906 209.938 101.562C209.938 102.205 209.797 102.78 209.515 103.287C209.237 103.791 208.852 104.189 208.362 104.481C207.875 104.772 207.318 104.918 206.691 104.918ZM215.116 94.4579C215.54 94.4612 215.951 94.5474 216.349 94.7164C216.75 94.8822 217.111 95.1506 217.432 95.5218C217.754 95.8897 218.009 96.3803 218.198 96.9934C218.387 97.6033 218.481 98.354 218.481 99.2455C218.481 100.077 218.409 100.84 218.263 101.532C218.117 102.225 217.898 102.825 217.606 103.332C217.318 103.836 216.954 104.227 216.513 104.505C216.075 104.781 215.563 104.918 214.976 104.918C214.43 104.918 213.944 104.804 213.52 104.575C213.099 104.346 212.757 104.03 212.496 103.626C212.234 103.218 212.071 102.747 212.008 102.214H212.923C213.013 102.757 213.231 103.205 213.579 103.556C213.931 103.907 214.396 104.083 214.976 104.083C215.808 104.083 216.455 103.695 216.915 102.92C217.376 102.144 217.606 101.04 217.606 99.6085H217.542C217.383 99.9068 217.174 100.167 216.915 100.389C216.66 100.611 216.369 100.785 216.04 100.911C215.712 101.034 215.366 101.095 215.001 101.095C214.435 101.095 213.916 100.952 213.445 100.667C212.975 100.379 212.598 99.9863 212.317 99.4892C212.035 98.9887 211.894 98.4186 211.894 97.7789C211.894 97.1757 212.027 96.6222 212.292 96.1184C212.56 95.6113 212.935 95.207 213.415 94.9054C213.899 94.6004 214.466 94.4513 215.116 94.4579ZM215.116 95.2931C214.675 95.2931 214.279 95.4058 213.927 95.6312C213.579 95.8533 213.303 96.1532 213.097 96.5311C212.895 96.9056 212.794 97.3215 212.794 97.7789C212.794 98.2396 212.895 98.6589 213.097 99.0367C213.303 99.4113 213.579 99.7096 213.927 99.9316C214.279 100.15 214.675 100.26 215.116 100.26C215.454 100.26 215.769 100.192 216.06 100.056C216.352 99.9167 216.604 99.7278 216.816 99.4892C217.031 99.2505 217.194 98.9804 217.303 98.6788C217.416 98.3739 217.461 98.054 217.437 97.7193C217.398 97.2553 217.273 96.841 217.065 96.4764C216.859 96.1085 216.587 95.8201 216.249 95.6113C215.914 95.3992 215.537 95.2931 215.116 95.2931ZM221.325 103.253C221.13 103.253 220.961 103.183 220.818 103.044C220.679 102.901 220.609 102.732 220.609 102.537C220.609 102.338 220.679 102.169 220.818 102.03C220.961 101.89 221.13 101.821 221.325 101.821C221.524 101.821 221.693 101.89 221.832 102.03C221.971 102.169 222.041 102.338 222.041 102.537C222.041 102.666 222.008 102.785 221.942 102.895C221.879 103.004 221.793 103.092 221.683 103.158C221.577 103.221 221.458 103.253 221.325 103.253ZM221.325 98.0872C221.13 98.0872 220.961 98.0176 220.818 97.8784C220.679 97.7358 220.609 97.5668 220.609 97.3713C220.609 97.1757 220.679 97.0083 220.818 96.8691C220.961 96.7266 221.13 96.6554 221.325 96.6554C221.524 96.6554 221.693 96.7266 221.832 96.8691C221.971 97.0083 222.041 97.1757 222.041 97.3713C222.041 97.5005 222.008 97.6198 221.942 97.7292C221.879 97.8386 221.793 97.9264 221.683 97.9927C221.577 98.0557 221.458 98.0872 221.325 98.0872ZM227.322 104.918C226.755 104.918 226.248 104.804 225.801 104.575C225.357 104.343 225.002 104.025 224.737 103.621C224.475 103.216 224.336 102.754 224.319 102.233H225.219C225.249 102.774 225.461 103.218 225.856 103.566C226.25 103.911 226.739 104.083 227.322 104.083C227.776 104.083 228.181 103.975 228.535 103.76C228.89 103.541 229.167 103.243 229.365 102.865C229.568 102.484 229.669 102.054 229.669 101.577C229.665 101.08 229.558 100.643 229.346 100.265C229.133 99.8836 228.845 99.5853 228.481 99.3698C228.119 99.1544 227.713 99.0467 227.263 99.0467C226.921 99.0434 226.586 99.0997 226.258 99.2157C225.93 99.3317 225.657 99.4809 225.438 99.6632L224.508 99.5438L225.12 94.5971H230.151V95.4323H225.9L225.493 98.8379H225.542C225.768 98.649 226.041 98.4948 226.363 98.3755C226.687 98.2562 227.031 98.1965 227.392 98.1965C227.992 98.1965 228.53 98.3407 229.008 98.6291C229.488 98.9174 229.868 99.3152 230.146 99.8223C230.428 100.326 230.569 100.906 230.569 101.562C230.569 102.205 230.428 102.78 230.146 103.287C229.868 103.791 229.483 104.189 228.993 104.481C228.505 104.772 227.949 104.918 227.322 104.918ZM235.747 94.4579C236.171 94.4612 236.582 94.5474 236.979 94.7164C237.381 94.8822 237.742 95.1506 238.063 95.5218C238.385 95.8897 238.64 96.3803 238.829 96.9934C239.018 97.6033 239.112 98.354 239.112 99.2455C239.112 100.077 239.039 100.84 238.894 101.532C238.748 102.225 238.529 102.825 238.237 103.332C237.949 103.836 237.584 104.227 237.144 104.505C236.706 104.781 236.194 104.918 235.607 104.918C235.06 104.918 234.575 104.804 234.151 104.575C233.73 104.346 233.388 104.03 233.127 103.626C232.865 103.218 232.702 102.747 232.639 102.214H233.554C233.644 102.757 233.862 103.205 234.21 103.556C234.562 103.907 235.027 104.083 235.607 104.083C236.439 104.083 237.086 103.695 237.546 102.92C238.007 102.144 238.237 101.04 238.237 99.6085H238.173C238.014 99.9068 237.805 100.167 237.546 100.389C237.291 100.611 236.999 100.785 236.671 100.911C236.343 101.034 235.997 101.095 235.632 101.095C235.065 101.095 234.547 100.952 234.076 100.667C233.605 100.379 233.229 99.9863 232.948 99.4892C232.666 98.9887 232.525 98.4186 232.525 97.7789C232.525 97.1757 232.658 96.6222 232.923 96.1184C233.191 95.6113 233.566 95.207 234.046 94.9054C234.53 94.6004 235.097 94.4513 235.747 94.4579ZM235.747 95.2931C235.306 95.2931 234.91 95.4058 234.558 95.6312C234.21 95.8533 233.934 96.1532 233.728 96.5311C233.526 96.9056 233.425 97.3215 233.425 97.7789C233.425 98.2396 233.526 98.6589 233.728 99.0367C233.934 99.4113 234.21 99.7096 234.558 99.9316C234.91 100.15 235.306 100.26 235.747 100.26C236.085 100.26 236.399 100.192 236.691 100.056C236.983 99.9167 237.235 99.7278 237.447 99.4892C237.662 99.2505 237.825 98.9804 237.934 98.6788C238.047 98.3739 238.091 98.054 238.068 97.7193C238.028 97.2553 237.904 96.841 237.695 96.4764C237.49 96.1085 237.218 95.8201 236.88 95.6113C236.545 95.3992 236.167 95.2931 235.747 95.2931ZM245.555 99.688C245.555 98.4948 245.706 97.3679 246.008 96.3073C246.31 95.2467 246.742 94.2524 247.305 93.3244H248.111C247.869 93.7155 247.647 94.158 247.445 94.6518C247.246 95.1456 247.073 95.6726 246.928 96.2328C246.782 96.7929 246.669 97.3663 246.59 97.9529C246.51 98.5363 246.47 99.1146 246.47 99.688C246.47 100.454 246.54 101.226 246.679 102.005C246.818 102.784 247.01 103.523 247.256 104.222C247.504 104.921 247.789 105.531 248.111 106.052H247.305C246.742 105.12 246.31 104.124 246.008 103.064C245.706 102.003 245.555 100.878 245.555 99.688ZM257.011 94.5971H257.941V101.339C257.941 102.031 257.779 102.651 257.454 103.198C257.129 103.742 256.677 104.171 256.096 104.486C255.52 104.797 254.849 104.953 254.083 104.953C253.321 104.953 252.65 104.796 252.07 104.481C251.489 104.166 251.037 103.737 250.712 103.193C250.387 102.649 250.225 102.031 250.225 101.339V94.5971H251.155V101.274C251.155 101.814 251.276 102.296 251.518 102.721C251.76 103.142 252.099 103.473 252.537 103.715C252.978 103.957 253.493 104.078 254.083 104.078C254.673 104.078 255.188 103.957 255.629 103.715C256.07 103.473 256.41 103.142 256.648 102.721C256.89 102.296 257.011 101.814 257.011 101.274V94.5971ZM260.027 95.4323V94.5971H267.409V95.4323H264.183V104.779H263.253V95.4323H260.027ZM277.053 97.7789H276.118C276.049 97.4309 275.923 97.1094 275.74 96.8144C275.562 96.5161 275.336 96.256 275.064 96.0339C274.793 95.8118 274.484 95.6395 274.14 95.5169C273.795 95.3942 273.422 95.3329 273.021 95.3329C272.378 95.3329 271.791 95.5003 271.261 95.835C270.734 96.1698 270.312 96.662 269.993 97.3116C269.678 97.9579 269.521 98.75 269.521 99.688C269.521 100.633 269.678 101.428 269.993 102.074C270.312 102.721 270.734 103.211 271.261 103.546C271.791 103.877 272.378 104.043 273.021 104.043C273.422 104.043 273.795 103.982 274.14 103.859C274.484 103.737 274.793 103.566 275.064 103.347C275.336 103.125 275.562 102.865 275.74 102.567C275.923 102.268 276.049 101.945 276.118 101.597H277.053C276.97 102.064 276.814 102.5 276.586 102.905C276.36 103.306 276.072 103.657 275.721 103.959C275.373 104.26 274.972 104.496 274.517 104.665C274.063 104.834 273.565 104.918 273.021 104.918C272.166 104.918 271.407 104.704 270.744 104.277C270.081 103.846 269.561 103.239 269.183 102.457C268.808 101.675 268.621 100.752 268.621 99.688C268.621 98.6241 268.808 97.701 269.183 96.9188C269.561 96.1366 270.081 95.5318 270.744 95.1042C271.407 94.6733 272.166 94.4579 273.021 94.4579C273.565 94.4579 274.063 94.5424 274.517 94.7115C274.972 94.8772 275.373 95.1125 275.721 95.4174C276.072 95.719 276.36 96.0704 276.586 96.4714C276.814 96.8724 276.97 97.3083 277.053 97.7789ZM282.021 102.85V96.5509H282.871V102.85H282.021ZM279.296 100.126V99.2754H285.595V100.126H279.296ZM291.284 104.918C290.635 104.918 290.056 104.796 289.549 104.55C289.042 104.305 288.644 103.97 288.356 103.546C288.068 103.118 287.923 102.636 287.923 102.099C287.923 101.678 288.011 101.286 288.187 100.921C288.363 100.553 288.604 100.245 288.913 99.9963C289.221 99.7444 289.567 99.5803 289.952 99.5041V99.4494C289.451 99.3036 289.049 99.0169 288.744 98.5893C288.439 98.1584 288.288 97.6696 288.291 97.1227C288.288 96.6156 288.417 96.1615 288.679 95.7605C288.941 95.3594 289.297 95.0429 289.748 94.8109C290.202 94.5756 290.714 94.4579 291.284 94.4579C291.851 94.4579 292.36 94.5756 292.81 94.8109C293.261 95.0429 293.618 95.3594 293.879 95.7605C294.144 96.1615 294.279 96.6156 294.282 97.1227C294.279 97.6662 294.125 98.1551 293.82 98.5893C293.515 99.0202 293.114 99.3069 292.617 99.4494V99.5041C293.001 99.577 293.346 99.7394 293.651 99.9913C293.956 100.243 294.198 100.553 294.377 100.921C294.555 101.286 294.645 101.678 294.645 102.099C294.645 102.636 294.499 103.118 294.207 103.546C293.919 103.97 293.521 104.305 293.014 104.55C292.51 104.796 291.934 104.918 291.284 104.918ZM291.284 104.083C291.768 104.083 292.192 103.997 292.557 103.824C292.925 103.649 293.211 103.408 293.417 103.104C293.626 102.799 293.73 102.449 293.73 102.054C293.73 101.647 293.622 101.284 293.407 100.966C293.192 100.644 292.9 100.391 292.532 100.205C292.164 100.016 291.748 99.9217 291.284 99.9217C290.82 99.9217 290.403 100.016 290.031 100.205C289.663 100.391 289.372 100.644 289.156 100.966C288.944 101.284 288.838 101.647 288.838 102.054C288.838 102.449 288.939 102.799 289.141 103.104C289.347 103.408 289.634 103.649 290.002 103.824C290.373 103.997 290.8 104.083 291.284 104.083ZM291.284 99.1262C291.682 99.1262 292.038 99.0417 292.353 98.8727C292.668 98.7036 292.917 98.4733 293.099 98.1816C293.284 97.8866 293.379 97.5519 293.382 97.1774C293.379 96.8062 293.286 96.478 293.104 96.193C292.921 95.9046 292.673 95.6809 292.358 95.5218C292.046 95.3594 291.689 95.2782 291.284 95.2782C290.88 95.2782 290.519 95.3594 290.2 95.5218C289.885 95.6809 289.637 95.9046 289.455 96.193C289.276 96.478 289.188 96.8062 289.191 97.1774C289.188 97.5519 289.277 97.8866 289.46 98.1816C289.645 98.4733 289.895 98.7036 290.21 98.8727C290.528 99.0417 290.886 99.1262 291.284 99.1262ZM298.892 99.688C298.892 100.881 298.741 102.008 298.44 103.069C298.138 104.129 297.705 105.124 297.142 106.052H296.337C296.579 105.661 296.799 105.218 296.998 104.724C297.2 104.23 297.374 103.703 297.52 103.143C297.666 102.583 297.778 102.01 297.858 101.423C297.937 100.836 297.977 100.258 297.977 99.688C297.977 98.9224 297.908 98.1501 297.768 97.3713C297.629 96.5924 297.435 95.8533 297.187 95.1539C296.941 94.4546 296.658 93.8447 296.337 93.3244H297.142C297.705 94.2557 298.138 95.2517 298.44 96.3123C298.741 97.3729 298.892 98.4982 298.892 99.688Z" fill="white"/>
<path d="M0 12.4988C0 5.87136 5.37258 0.498779 12 0.498779H108.313C111.082 0.498779 113.014 3.24471 112.078 5.85087L102.021 33.8509C101.451 35.4393 99.9445 36.4988 98.2566 36.4988H0V12.4988Z" fill="#09FE02"/>
<path d="M27.0158 19.909H35.4158V26.309H33.5758V21.653H28.7758V26.389H27.0158V19.909ZM34.1358 11.365L35.6078 12.869C34.8291 13.1676 33.9651 13.429 33.0158 13.653C32.0664 13.8663 31.0904 14.0423 30.0878 14.181C29.0958 14.3196 28.1251 14.4316 27.1758 14.517C27.1438 14.293 27.0691 14.021 26.9518 13.701C26.8451 13.3703 26.7384 13.0983 26.6318 12.885C27.3144 12.8103 28.0024 12.725 28.6958 12.629C29.3998 12.533 30.0824 12.421 30.7438 12.293C31.4051 12.165 32.0238 12.0263 32.5998 11.877C33.1758 11.717 33.6878 11.5463 34.1358 11.365ZM30.2958 13.173H32.1198V20.917H30.2958V13.173ZM26.0238 16.037H36.2158V17.861H26.0238V16.037ZM28.2798 23.989H34.3438V25.733H28.2798V23.989ZM22.0718 12.965L23.1598 11.573C23.4584 11.7223 23.7944 11.893 24.1678 12.085C24.5411 12.277 24.9038 12.469 25.2558 12.661C25.6184 12.853 25.9118 13.0236 26.1358 13.173L24.9998 14.725C24.7864 14.565 24.5091 14.3836 24.1678 14.181C23.8264 13.9783 23.4691 13.7703 23.0958 13.557C22.7224 13.333 22.3811 13.1356 22.0718 12.965ZM21.3038 17.397L22.3438 15.973C22.6424 16.101 22.9838 16.261 23.3678 16.453C23.7518 16.645 24.1251 16.837 24.4878 17.029C24.8504 17.2103 25.1438 17.3756 25.3678 17.525L24.2958 19.125C24.0824 18.965 23.7998 18.7836 23.4478 18.581C23.1064 18.3783 22.7438 18.1703 22.3598 17.957C21.9758 17.7436 21.6238 17.557 21.3038 17.397ZM21.5438 24.917C21.8318 24.5116 22.1464 24.037 22.4878 23.493C22.8398 22.9383 23.1971 22.3516 23.5598 21.733C23.9224 21.1036 24.2638 20.4796 24.5838 19.861L25.9918 21.141C25.7144 21.6956 25.4158 22.2663 25.0958 22.853C24.7864 23.4396 24.4664 24.0156 24.1358 24.581C23.8158 25.1463 23.4904 25.6903 23.1598 26.213L21.5438 24.917ZM44.8078 14.853H51.0958V16.693H44.8078V14.853ZM50.1038 14.853H51.9758C51.9758 14.853 51.9758 14.9063 51.9758 15.013C51.9758 15.1196 51.9704 15.2423 51.9598 15.381C51.9598 15.5196 51.9598 15.6316 51.9598 15.717C51.9278 17.3383 51.8851 18.7196 51.8318 19.861C51.7891 20.9916 51.7358 21.925 51.6718 22.661C51.6078 23.397 51.5278 23.9783 51.4318 24.405C51.3358 24.821 51.2238 25.1196 51.0958 25.301C50.9038 25.5783 50.7064 25.7703 50.5038 25.877C50.3011 25.9943 50.0558 26.0796 49.7678 26.133C49.5118 26.1756 49.1918 26.197 48.8078 26.197C48.4238 26.2076 48.0238 26.2023 47.6078 26.181C47.5971 25.9036 47.5384 25.589 47.4318 25.237C47.3251 24.885 47.1918 24.5756 47.0318 24.309C47.4158 24.341 47.7678 24.3623 48.0878 24.373C48.4078 24.373 48.6531 24.373 48.8238 24.373C48.9624 24.373 49.0744 24.357 49.1598 24.325C49.2451 24.2823 49.3304 24.213 49.4158 24.117C49.5118 23.989 49.5918 23.7436 49.6558 23.381C49.7304 23.0076 49.7944 22.4796 49.8478 21.797C49.9011 21.1036 49.9438 20.2236 49.9758 19.157C50.0184 18.0796 50.0611 16.7783 50.1038 15.253V14.853ZM46.6158 11.653H48.5198C48.5198 12.901 48.5038 14.1116 48.4718 15.285C48.4504 16.4476 48.3864 17.5623 48.2798 18.629C48.1731 19.6956 48.0024 20.6983 47.7678 21.637C47.5331 22.5756 47.2131 23.445 46.8078 24.245C46.4131 25.045 45.8958 25.7596 45.2558 26.389C45.1598 26.2183 45.0264 26.037 44.8558 25.845C44.6958 25.6636 44.5251 25.4876 44.3438 25.317C44.1624 25.1463 43.9918 25.013 43.8318 24.917C44.4078 24.3623 44.8718 23.733 45.2238 23.029C45.5864 22.325 45.8584 21.5516 46.0398 20.709C46.2318 19.8663 46.3651 18.965 46.4398 18.005C46.5251 17.045 46.5731 16.037 46.5838 14.981C46.6051 13.9143 46.6158 12.805 46.6158 11.653ZM38.0398 12.613H44.3278V14.293H38.0398V12.613ZM37.5118 16.325H44.6158V18.069H37.5118V16.325ZM42.1038 19.509L43.6558 19.093C43.8478 19.5303 44.0398 20.0103 44.2318 20.533C44.4344 21.045 44.6211 21.5463 44.7918 22.037C44.9624 22.5276 45.0904 22.9543 45.1758 23.317L43.5118 23.845C43.4371 23.4823 43.3251 23.0503 43.1758 22.549C43.0264 22.0476 42.8558 21.5303 42.6638 20.997C42.4824 20.4636 42.2958 19.9676 42.1038 19.509ZM38.1998 24.661L38.0078 23.045L38.8238 22.437L44.0078 21.221C44.0184 21.4663 44.0504 21.749 44.1038 22.069C44.1678 22.389 44.2264 22.645 44.2798 22.837C43.3091 23.093 42.4931 23.3116 41.8318 23.493C41.1704 23.6636 40.6211 23.813 40.1838 23.941C39.7571 24.0583 39.4158 24.1596 39.1598 24.245C38.9038 24.3303 38.7011 24.405 38.5518 24.469C38.4131 24.5223 38.2958 24.5863 38.1998 24.661ZM38.1838 24.645C38.1624 24.5276 38.1144 24.3623 38.0398 24.149C37.9758 23.9356 37.9011 23.7223 37.8158 23.509C37.7304 23.285 37.6504 23.093 37.5758 22.933C37.7358 22.8796 37.8744 22.7623 37.9918 22.581C38.1198 22.3996 38.2478 22.165 38.3758 21.877C38.4398 21.7276 38.5251 21.493 38.6318 21.173C38.7491 20.8423 38.8718 20.4583 38.9998 20.021C39.1278 19.573 39.2558 19.0983 39.3838 18.597C39.5118 18.085 39.6131 17.5783 39.6878 17.077L41.5758 17.605C41.4264 18.309 41.2344 19.0236 40.9998 19.749C40.7651 20.4636 40.5091 21.157 40.2318 21.829C39.9651 22.4903 39.6984 23.0876 39.4318 23.621V23.669C39.4318 23.669 39.3678 23.701 39.2398 23.765C39.1118 23.829 38.9678 23.9143 38.8078 24.021C38.6478 24.1276 38.5038 24.2396 38.3758 24.357C38.2478 24.4636 38.1838 24.5596 38.1838 24.645ZM54.6958 12.629H59.3198V23.429H54.6958V21.717H57.5278V14.341H54.6958V12.629ZM54.8078 17.125H58.0238V18.805H54.8078V17.125ZM53.7998 12.629H55.5918V24.725H53.7998V12.629ZM59.9118 14.325H68.2798V16.229H59.9118V14.325ZM64.6958 11.477H66.6478V23.845C66.6478 24.421 66.5731 24.853 66.4238 25.141C66.2851 25.4396 66.0344 25.6636 65.6718 25.813C65.3198 25.9623 64.8558 26.0583 64.2798 26.101C63.7144 26.1436 63.0318 26.1596 62.2318 26.149C62.1891 25.8823 62.1038 25.557 61.9758 25.173C61.8478 24.7996 61.7091 24.4796 61.5598 24.213C61.9438 24.2236 62.3118 24.2343 62.6638 24.245C63.0264 24.2556 63.3464 24.261 63.6238 24.261C63.9011 24.261 64.0984 24.261 64.2158 24.261C64.3971 24.261 64.5198 24.229 64.5838 24.165C64.6584 24.101 64.6958 23.989 64.6958 23.829V11.477ZM60.0878 18.117L61.6718 17.285C61.9278 17.6476 62.2104 18.0476 62.5198 18.485C62.8291 18.9116 63.1171 19.333 63.3838 19.749C63.6611 20.1543 63.8904 20.5063 64.0718 20.805L62.3598 21.797C62.2104 21.4876 62.0024 21.1196 61.7358 20.693C61.4798 20.2663 61.2024 19.829 60.9038 19.381C60.6158 18.9223 60.3438 18.501 60.0878 18.117ZM69.8798 15.221H71.8638V26.373H69.8798V15.221ZM70.1038 12.405L71.6238 11.477C71.8691 11.7116 72.1198 11.973 72.3758 12.261C72.6424 12.5383 72.8824 12.821 73.0958 13.109C73.3198 13.3863 73.4904 13.6476 73.6078 13.893L71.9918 14.933C71.8851 14.6983 71.7251 14.437 71.5118 14.149C71.3091 13.8503 71.0851 13.5516 70.8398 13.253C70.6051 12.9436 70.3598 12.661 70.1038 12.405ZM74.1678 12.165H82.8398V13.957H74.1678V12.165ZM81.7678 12.165H83.7518V24.325C83.7518 24.773 83.7038 25.1196 83.6078 25.365C83.5118 25.621 83.3304 25.8236 83.0638 25.973C82.7971 26.1116 82.4718 26.197 82.0878 26.229C81.7038 26.2716 81.2611 26.293 80.7598 26.293C80.7171 26.0476 80.6424 25.7543 80.5358 25.413C80.4398 25.0823 80.3331 24.805 80.2158 24.581C80.4718 24.5916 80.7278 24.597 80.9838 24.597C81.2398 24.597 81.4104 24.597 81.4958 24.597C81.6024 24.597 81.6718 24.5756 81.7038 24.533C81.7464 24.4903 81.7678 24.4156 81.7678 24.309V12.165ZM75.2078 20.453V21.989H78.2958V20.453H75.2078ZM75.2078 17.397V18.917H78.2958V17.397H75.2078ZM73.4958 15.861H80.0878V23.525H73.4958V15.861Z" fill="black"/>
</svg>
