<svg width="335" height="135" viewBox="0 0 335 135" fill="none" xmlns="http://www.w3.org/2000/svg">
<rect y="12.4988" width="335" height="122" rx="12" fill="#141414"/>
<path d="M39.7515 67.1426C39.6952 66.5758 39.445 66.125 39.0008 65.7903C38.5567 65.4555 37.9982 65.2882 37.3254 65.2882C36.8514 65.2882 36.4338 65.3694 36.0726 65.5318C35.7146 65.6942 35.4329 65.9196 35.2274 66.2079C35.0252 66.4929 34.9241 66.8178 34.9241 67.1823C34.9241 67.4508 34.9821 67.6861 35.0981 67.8883C35.2141 68.0905 35.3699 68.2645 35.5655 68.4103C35.7643 68.5528 35.9831 68.6755 36.2217 68.7782C36.4637 68.881 36.7073 68.9671 36.9525 69.0367L38.0264 69.345C38.3512 69.4345 38.676 69.5488 39.0008 69.688C39.3256 69.8272 39.6223 70.0029 39.8907 70.215C40.1625 70.4238 40.3796 70.6807 40.542 70.9856C40.7077 71.2872 40.7906 71.6501 40.7906 72.0744C40.7906 72.6179 40.6497 73.1068 40.368 73.541C40.0863 73.9752 39.6819 74.3199 39.1549 74.5751C38.628 74.827 37.9966 74.9529 37.2608 74.9529C36.5681 74.9529 35.9665 74.8386 35.4561 74.6099C34.9457 74.3779 34.5446 74.058 34.253 73.6504C33.9613 73.2427 33.7972 72.7704 33.7608 72.2335H34.7153C34.7485 72.6345 34.881 72.9742 35.113 73.2527C35.345 73.5311 35.6467 73.7432 36.0179 73.889C36.3891 74.0315 36.8034 74.1028 37.2608 74.1028C37.7679 74.1028 38.2186 74.0183 38.613 73.8492C39.0108 73.6769 39.3223 73.4383 39.5477 73.1333C39.7764 72.8251 39.8907 72.4671 39.8907 72.0595C39.8907 71.7148 39.8012 71.4264 39.6223 71.1944C39.4433 70.9591 39.1931 70.7619 38.8716 70.6028C38.5534 70.4437 38.1838 70.3028 37.7629 70.1802L36.5449 69.8223C35.7461 69.5836 35.1263 69.2538 34.6855 68.8329C34.2447 68.412 34.0243 67.875 34.0243 67.2221C34.0243 66.6752 34.1701 66.1947 34.4618 65.7804C34.7567 65.3627 35.1545 65.0379 35.6549 64.8059C36.1587 64.5706 36.7238 64.4529 37.3503 64.4529C37.9833 64.4529 38.5434 64.5689 39.0307 64.8009C39.5179 65.033 39.904 65.3528 40.189 65.7605C40.4774 66.1648 40.6315 66.6255 40.6514 67.1426H39.7515ZM45.8517 67.1426V67.9132H42.2075V67.1426H45.8517ZM43.346 65.313H44.2359V72.7853C44.2359 73.1035 44.2906 73.3537 44.4 73.536C44.5093 73.715 44.6519 73.8426 44.8275 73.9188C45.0032 73.9918 45.1905 74.0282 45.3893 74.0282C45.5053 74.0282 45.6048 74.0216 45.6876 74.0083C45.7705 73.9918 45.8434 73.9752 45.9064 73.9586L46.0953 74.759C46.0091 74.7922 45.903 74.822 45.7771 74.8485C45.6512 74.8784 45.4954 74.8933 45.3098 74.8933C44.985 74.8933 44.6717 74.822 44.3701 74.6795C44.0718 74.537 43.8266 74.3249 43.6343 74.0431C43.4421 73.7614 43.346 73.4117 43.346 72.9941V65.313ZM49.9943 74.9529C49.5336 74.9529 49.1126 74.8634 48.7315 74.6845C48.3503 74.5022 48.047 74.2403 47.8217 73.899C47.5963 73.5543 47.4836 73.1366 47.4836 72.6461C47.4836 72.2683 47.5549 71.9501 47.6974 71.6916C47.8399 71.433 48.0421 71.2209 48.3039 71.0552C48.5657 70.8895 48.8756 70.7586 49.2336 70.6625C49.5916 70.5663 49.986 70.4918 50.4168 70.4387C50.8444 70.3857 51.2057 70.3393 51.5006 70.2995C51.7989 70.2598 52.026 70.1968 52.1818 70.1106C52.3375 70.0244 52.4154 69.8852 52.4154 69.693V69.514C52.4154 68.9937 52.2596 68.5843 51.9481 68.286C51.6398 67.9844 51.1957 67.8336 50.6157 67.8336C50.0655 67.8336 49.6164 67.9546 49.2684 68.1965C48.9237 68.4385 48.6818 68.7235 48.5425 69.0517L47.7023 68.7484C47.8747 68.3308 48.1133 67.9977 48.4183 67.7491C48.7232 67.4972 49.0646 67.3166 49.4424 67.2072C49.8202 67.0945 50.2031 67.0382 50.5908 67.0382C50.8825 67.0382 51.1858 67.0763 51.5006 67.1525C51.8188 67.2287 52.1138 67.3613 52.3856 67.5502C52.6574 67.7358 52.8778 67.996 53.0468 68.3308C53.2158 68.6622 53.3004 69.0831 53.3004 69.5936V74.7789H52.4154V73.5708H52.3607C52.2547 73.7962 52.0972 74.015 51.8884 74.2271C51.6796 74.4392 51.4178 74.6132 51.1029 74.7491C50.788 74.885 50.4185 74.9529 49.9943 74.9529ZM50.1136 74.1426C50.5842 74.1426 50.9919 74.0382 51.3366 73.8294C51.6813 73.6205 51.9464 73.3438 52.132 72.9991C52.321 72.6511 52.4154 72.2683 52.4154 71.8507V70.747C52.3491 70.8099 52.2381 70.8663 52.0823 70.916C51.9299 70.9657 51.7525 71.0105 51.5504 71.0502C51.3515 71.0867 51.1526 71.1182 50.9538 71.1447C50.7549 71.1712 50.5759 71.1944 50.4168 71.2143C49.986 71.2673 49.6181 71.3502 49.3131 71.4629C49.0082 71.5756 48.7746 71.7313 48.6121 71.9302C48.4497 72.1258 48.3685 72.3777 48.3685 72.6859C48.3685 73.1499 48.5343 73.5095 48.8657 73.7647C49.1971 74.0166 49.6131 74.1426 50.1136 74.1426ZM55.6544 74.7789V67.1426H56.5145V68.3159H56.5791C56.7316 67.9314 56.9967 67.6215 57.3746 67.3862C57.7557 67.1475 58.1866 67.0282 58.6672 67.0282C58.7401 67.0282 58.8213 67.0299 58.9108 67.0332C59.0003 67.0365 59.0749 67.0398 59.1345 67.0431V67.943C59.0947 67.9364 59.0251 67.9264 58.9257 67.9132C58.8263 67.8999 58.7186 67.8933 58.6026 67.8933C58.2048 67.8933 57.8502 67.9778 57.5386 68.1468C57.2304 68.3125 56.9868 68.5429 56.8078 68.8379C56.6288 69.1329 56.5394 69.4693 56.5394 69.8471V74.7789H55.6544ZM64.131 67.1426V67.9132H60.4868V67.1426H64.131ZM61.6253 65.313H62.5152V72.7853C62.5152 73.1035 62.5699 73.3537 62.6793 73.536C62.7886 73.715 62.9312 73.8426 63.1068 73.9188C63.2825 73.9918 63.4697 74.0282 63.6686 74.0282C63.7846 74.0282 63.884 74.0216 63.9669 74.0083C64.0498 73.9918 64.1227 73.9752 64.1857 73.9586L64.3746 74.759C64.2884 74.7922 64.1823 74.822 64.0564 74.8485C63.9304 74.8784 63.7747 74.8933 63.5891 74.8933C63.2643 74.8933 62.951 74.822 62.6494 74.6795C62.3511 74.537 62.1059 74.3249 61.9136 74.0431C61.7214 73.7614 61.6253 73.4117 61.6253 72.9941V65.313ZM69.6457 65.4323V64.5971H77.0285V65.4323H73.802V74.7789H72.8723V65.4323H69.6457ZM78.9476 74.7789V67.1426H79.8375V74.7789H78.9476ZM79.4 65.8301C79.2177 65.8301 79.0619 65.7688 78.9326 65.6461C78.8034 65.5202 78.7387 65.3694 78.7387 65.1937C78.7387 65.018 78.8034 64.8689 78.9326 64.7463C79.0619 64.6203 79.2177 64.5573 79.4 64.5573C79.5823 64.5573 79.738 64.6203 79.8673 64.7463C79.9966 64.8689 80.0612 65.018 80.0612 65.1937C80.0612 65.3694 79.9966 65.5202 79.8673 65.6461C79.738 65.7688 79.5823 65.8301 79.4 65.8301ZM82.1778 74.7789V67.1426H83.0379V68.3159H83.1175C83.2699 67.9214 83.5235 67.6116 83.8781 67.3862C84.2361 67.1575 84.6653 67.0431 85.1658 67.0431C85.6928 67.0431 86.1253 67.1674 86.4634 67.416C86.8047 67.6613 87.0599 67.9993 87.229 68.4302H87.2936C87.466 68.006 87.746 67.6696 88.1338 67.421C88.5249 67.1691 88.9989 67.0431 89.5557 67.0431C90.265 67.0431 90.8251 67.2669 91.2361 67.7143C91.6471 68.1584 91.8526 68.808 91.8526 69.6632V74.7789H90.9676V69.6632C90.9676 69.0599 90.8135 68.6075 90.5053 68.3059C90.197 68.0043 89.791 67.8535 89.2872 67.8535C88.7039 67.8535 88.2548 68.0325 87.9399 68.3904C87.6251 68.7484 87.4676 69.2025 87.4676 69.7527V74.7789H86.5628V69.5836C86.5628 69.0666 86.4186 68.649 86.1303 68.3308C85.8419 68.0126 85.4359 67.8535 84.9122 67.8535C84.5609 67.8535 84.2444 67.9397 83.9626 68.112C83.6842 68.2844 83.4638 68.5247 83.3014 68.8329C83.1423 69.1378 83.0628 69.4892 83.0628 69.8869V74.7789H82.1778ZM97.2828 74.938C96.5702 74.938 95.9537 74.7723 95.4333 74.4409C94.913 74.1061 94.5103 73.6438 94.2253 73.0538C93.9435 72.4605 93.8027 71.7777 93.8027 71.0055C93.8027 70.2366 93.9435 69.5538 94.2253 68.9572C94.5103 68.3573 94.903 67.8883 95.4035 67.5502C95.9073 67.2089 96.489 67.0382 97.1485 67.0382C97.5628 67.0382 97.9622 67.1144 98.3467 67.2669C98.7312 67.416 99.0759 67.6464 99.3808 67.9579C99.689 68.2661 99.9326 68.6556 100.112 69.1262C100.291 69.5936 100.38 70.1471 100.38 70.7867V71.2242H94.4142V70.4437H99.4753C99.4753 69.9532 99.3758 69.5124 99.177 69.1213C98.9814 68.7268 98.708 68.4153 98.3566 68.1866C98.0086 67.9579 97.6059 67.8436 97.1485 67.8436C96.6646 67.8436 96.2387 67.9728 95.8708 68.2313C95.503 68.4899 95.2146 68.8313 95.0058 69.2555C94.8003 69.6797 94.6959 70.1438 94.6926 70.6475V71.1149C94.6926 71.7214 94.797 72.2517 95.0058 72.7058C95.2179 73.1565 95.5179 73.5062 95.9057 73.7548C96.2934 74.0034 96.7525 74.1277 97.2828 74.1277C97.6441 74.1277 97.9606 74.0713 98.2324 73.9586C98.5075 73.8459 98.7378 73.6951 98.9234 73.5062C99.1123 73.314 99.2548 73.1035 99.351 72.8748L100.191 73.1482C100.075 73.4697 99.8846 73.7664 99.6194 74.0382C99.3576 74.3099 99.0295 74.5287 98.6351 74.6944C98.244 74.8568 97.7932 74.938 97.2828 74.938ZM108.162 67.1629C107.882 67.1629 107.635 67.0696 107.42 66.8829C107.205 66.6869 107.098 66.4303 107.098 66.1129C107.098 65.7956 107.205 65.5436 107.42 65.3569C107.635 65.1609 107.882 65.0629 108.162 65.0629C108.442 65.0629 108.689 65.1609 108.904 65.3569C109.119 65.5436 109.226 65.7956 109.226 66.1129C109.226 66.4303 109.119 66.6869 108.904 66.8829C108.689 67.0696 108.442 67.1629 108.162 67.1629ZM108.162 74.0229C107.882 74.0229 107.635 73.9296 107.42 73.7429C107.205 73.5469 107.098 73.2903 107.098 72.9729C107.098 72.6463 107.205 72.3896 107.42 72.2029C107.635 72.0069 107.882 71.9089 108.162 71.9089C108.442 71.9089 108.689 72.0069 108.904 72.2029C109.119 72.3896 109.226 72.6463 109.226 72.9729C109.226 73.2903 109.119 73.5469 108.904 73.7429C108.689 73.9296 108.442 74.0229 108.162 74.0229ZM116.295 74.7789V74.0978L119.621 70.3592C120.056 69.8687 120.405 69.4494 120.67 69.1014C120.936 68.7534 121.128 68.4319 121.247 68.1369C121.37 67.8419 121.431 67.5353 121.431 67.2171C121.431 66.8294 121.34 66.4913 121.158 66.2029C120.979 65.9113 120.732 65.6842 120.417 65.5218C120.102 65.3594 119.747 65.2782 119.353 65.2782C118.935 65.2782 118.569 65.3677 118.254 65.5467C117.943 65.7257 117.701 65.9709 117.528 66.2825C117.356 66.594 117.27 66.952 117.27 67.3563H116.38C116.38 66.7929 116.509 66.2941 116.768 65.8599C117.03 65.4224 117.386 65.0794 117.837 64.8308C118.291 64.5822 118.804 64.4579 119.378 64.4579C119.945 64.4579 120.448 64.5805 120.889 64.8258C121.33 65.0678 121.676 65.3975 121.928 65.8152C122.18 66.2328 122.306 66.7001 122.306 67.2171C122.306 67.5917 122.24 67.9546 122.107 68.3059C121.978 68.6572 121.754 69.0483 121.436 69.4792C121.118 69.9101 120.677 70.4371 120.114 71.0602L117.588 73.8791V73.9437H122.624V74.7789H116.295ZM128.002 74.9181C127.286 74.9181 126.675 74.7126 126.168 74.3017C125.664 73.8874 125.276 73.2891 125.004 72.5069C124.736 71.7247 124.602 70.7851 124.602 69.688C124.602 68.5943 124.736 67.658 125.004 66.8791C125.276 66.0969 125.666 65.4986 126.173 65.0843C126.683 64.6667 127.293 64.4579 128.002 64.4579C128.712 64.4579 129.32 64.6667 129.827 65.0843C130.337 65.4986 130.727 66.0969 130.995 66.8791C131.267 67.658 131.403 68.5943 131.403 69.688C131.403 70.7851 131.267 71.7247 130.995 72.5069C130.727 73.2891 130.339 73.8874 129.832 74.3017C129.328 74.7126 128.718 74.9181 128.002 74.9181ZM128.002 74.0829C128.788 74.0829 129.401 73.7001 129.842 72.9345C130.283 72.1655 130.503 71.0834 130.503 69.688C130.503 68.76 130.402 67.9679 130.2 67.3116C130.001 66.652 129.714 66.1482 129.34 65.8002C128.968 65.4522 128.523 65.2782 128.002 65.2782C127.223 65.2782 126.612 65.666 126.168 66.4416C125.724 67.2138 125.502 68.296 125.502 69.688C125.502 70.6161 125.601 71.4082 125.8 72.0644C126.002 72.7207 126.289 73.2212 126.66 73.5659C127.034 73.9106 127.482 74.0829 128.002 74.0829ZM133.426 74.7789V74.0978L136.752 70.3592C137.186 69.8687 137.536 69.4494 137.801 69.1014C138.066 68.7534 138.259 68.4319 138.378 68.1369C138.501 67.8419 138.562 67.5353 138.562 67.2171C138.562 66.8294 138.471 66.4913 138.288 66.2029C138.109 65.9113 137.863 65.6842 137.548 65.5218C137.233 65.3594 136.878 65.2782 136.484 65.2782C136.066 65.2782 135.7 65.3677 135.385 65.5467C135.074 65.7257 134.832 65.9709 134.659 66.2825C134.487 66.594 134.401 66.952 134.401 67.3563H133.511C133.511 66.7929 133.64 66.2941 133.899 65.8599C134.16 65.4224 134.517 65.0794 134.967 64.8308C135.422 64.5822 135.935 64.4579 136.509 64.4579C137.075 64.4579 137.579 64.5805 138.02 64.8258C138.461 65.0678 138.807 65.3975 139.059 65.8152C139.311 66.2328 139.437 66.7001 139.437 67.2171C139.437 67.5917 139.371 67.9546 139.238 68.3059C139.109 68.6572 138.885 69.0483 138.567 69.4792C138.249 69.9101 137.808 70.4371 137.244 71.0602L134.719 73.8791V73.9437H139.755V74.7789H133.426ZM144.949 74.9181C144.382 74.9181 143.875 74.8038 143.428 74.5751C142.984 74.3431 142.629 74.0249 142.364 73.6205C142.102 73.2162 141.963 72.7538 141.946 72.2335H142.846C142.876 72.7737 143.088 73.2179 143.483 73.5659C143.877 73.9106 144.366 74.0829 144.949 74.0829C145.403 74.0829 145.808 73.9752 146.162 73.7598C146.517 73.541 146.794 73.2427 146.992 72.8649C147.195 72.4837 147.296 72.0545 147.296 71.5772C147.292 71.0801 147.185 70.6426 146.973 70.2647C146.76 69.8836 146.472 69.5853 146.108 69.3698C145.746 69.1544 145.34 69.0467 144.889 69.0467C144.548 69.0434 144.213 69.0997 143.885 69.2157C143.557 69.3317 143.284 69.4809 143.065 69.6632L142.135 69.5438L142.747 64.5971H147.778V65.4323H143.527L143.12 68.8379H143.169C143.395 68.649 143.668 68.4948 143.99 68.3755C144.314 68.2562 144.657 68.1965 145.019 68.1965C145.619 68.1965 146.157 68.3407 146.635 68.6291C147.115 68.9174 147.495 69.3152 147.773 69.8223C148.055 70.326 148.196 70.9061 148.196 71.5623C148.196 72.2053 148.055 72.7804 147.773 73.2875C147.495 73.7912 147.11 74.189 146.62 74.4806C146.132 74.7723 145.576 74.9181 144.949 74.9181ZM153.652 64.1198L150.371 76.3102H149.54L152.822 64.1198H153.652ZM158.313 74.9181C157.597 74.9181 156.985 74.7126 156.478 74.3017C155.974 73.8874 155.587 73.2891 155.315 72.5069C155.046 71.7247 154.912 70.7851 154.912 69.688C154.912 68.5943 155.046 67.658 155.315 66.8791C155.587 66.0969 155.976 65.4986 156.483 65.0843C156.994 64.6667 157.604 64.4579 158.313 64.4579C159.022 64.4579 159.63 64.6667 160.137 65.0843C160.648 65.4986 161.037 66.0969 161.306 66.8791C161.577 67.658 161.713 68.5943 161.713 69.688C161.713 70.7851 161.577 71.7247 161.306 72.5069C161.037 73.2891 160.649 73.8874 160.142 74.3017C159.639 74.7126 159.029 74.9181 158.313 74.9181ZM158.313 74.0829C159.098 74.0829 159.711 73.7001 160.152 72.9345C160.593 72.1655 160.813 71.0834 160.813 69.688C160.813 68.76 160.712 67.9679 160.51 67.3116C160.311 66.652 160.025 66.1482 159.65 65.8002C159.279 65.4522 158.833 65.2782 158.313 65.2782C157.534 65.2782 156.922 65.666 156.478 66.4416C156.034 67.2138 155.812 68.296 155.812 69.688C155.812 70.6161 155.912 71.4082 156.11 72.0644C156.313 72.7207 156.599 73.2212 156.97 73.5659C157.345 73.9106 157.792 74.0829 158.313 74.0829ZM163.757 74.7789L168.395 65.497V65.4323H163.051V64.5971H169.37V65.4721L164.736 74.7789H163.757ZM174.693 64.1198L171.412 76.3102H170.581L173.863 64.1198H174.693ZM179.334 64.5971V74.7789H178.404V65.5715H178.345L175.958 67.1575V66.193L178.364 64.5971H179.334ZM185.588 74.9181C184.872 74.9181 184.261 74.7126 183.754 74.3017C183.25 73.8874 182.862 73.2891 182.59 72.5069C182.322 71.7247 182.188 70.7851 182.188 69.688C182.188 68.5943 182.322 67.658 182.59 66.8791C182.862 66.0969 183.252 65.4986 183.759 65.0843C184.269 64.6667 184.879 64.4579 185.588 64.4579C186.297 64.4579 186.906 64.6667 187.413 65.0843C187.923 65.4986 188.313 66.0969 188.581 66.8791C188.853 67.658 188.989 68.5943 188.989 69.688C188.989 70.7851 188.853 71.7247 188.581 72.5069C188.313 73.2891 187.925 73.8874 187.418 74.3017C186.914 74.7126 186.304 74.9181 185.588 74.9181ZM185.588 74.0829C186.374 74.0829 186.987 73.7001 187.428 72.9345C187.868 72.1655 188.089 71.0834 188.089 69.688C188.089 68.76 187.988 67.9679 187.786 67.3116C187.587 66.652 187.3 66.1482 186.926 65.8002C186.554 65.4522 186.109 65.2782 185.588 65.2782C184.809 65.2782 184.198 65.666 183.754 66.4416C183.31 67.2138 183.087 68.296 183.087 69.688C183.087 70.6161 183.187 71.4082 183.386 72.0644C183.588 72.7207 183.875 73.2212 184.246 73.5659C184.62 73.9106 185.068 74.0829 185.588 74.0829ZM198.092 64.5971V74.7789H197.162V65.5715H197.102L194.716 67.1575V66.193L197.122 64.5971H198.092ZM204.346 74.9181C203.63 74.9181 203.019 74.7126 202.511 74.3017C202.008 73.8874 201.62 73.2891 201.348 72.5069C201.08 71.7247 200.945 70.7851 200.945 69.688C200.945 68.5943 201.08 67.658 201.348 66.8791C201.62 66.0969 202.009 65.4986 202.516 65.0843C203.027 64.6667 203.637 64.4579 204.346 64.4579C205.055 64.4579 205.663 64.6667 206.171 65.0843C206.681 65.4986 207.07 66.0969 207.339 66.8791C207.611 67.658 207.747 68.5943 207.747 69.688C207.747 70.7851 207.611 71.7247 207.339 72.5069C207.07 73.2891 206.683 73.8874 206.176 74.3017C205.672 74.7126 205.062 74.9181 204.346 74.9181ZM204.346 74.0829C205.132 74.0829 205.745 73.7001 206.185 72.9345C206.626 72.1655 206.847 71.0834 206.847 69.688C206.847 68.76 206.746 67.9679 206.543 67.3116C206.345 66.652 206.058 66.1482 205.683 65.8002C205.312 65.4522 204.866 65.2782 204.346 65.2782C203.567 65.2782 202.956 65.666 202.511 66.4416C202.067 67.2138 201.845 68.296 201.845 69.688C201.845 70.6161 201.945 71.4082 202.144 72.0644C202.346 72.7207 202.632 73.2212 203.004 73.5659C203.378 73.9106 203.826 74.0829 204.346 74.0829ZM210.511 73.2527C210.315 73.2527 210.146 73.183 210.004 73.0438C209.864 72.9013 209.795 72.7323 209.795 72.5367C209.795 72.3379 209.864 72.1688 210.004 72.0296C210.146 71.8904 210.315 71.8208 210.511 71.8208C210.71 71.8208 210.879 71.8904 211.018 72.0296C211.157 72.1688 211.227 72.3379 211.227 72.5367C211.227 72.666 211.194 72.7853 211.127 72.8947C211.064 73.0041 210.978 73.0919 210.869 73.1582C210.763 73.2212 210.643 73.2527 210.511 73.2527ZM210.511 68.0872C210.315 68.0872 210.146 68.0176 210.004 67.8784C209.864 67.7358 209.795 67.5668 209.795 67.3713C209.795 67.1757 209.864 67.0083 210.004 66.8691C210.146 66.7266 210.315 66.6554 210.511 66.6554C210.71 66.6554 210.879 66.7266 211.018 66.8691C211.157 67.0083 211.227 67.1757 211.227 67.3713C211.227 67.5005 211.194 67.6198 211.127 67.7292C211.064 67.8386 210.978 67.9264 210.869 67.9927C210.763 68.0557 210.643 68.0872 210.511 68.0872ZM216.692 74.9181C215.976 74.9181 215.364 74.7126 214.857 74.3017C214.353 73.8874 213.966 73.2891 213.694 72.5069C213.425 71.7247 213.291 70.7851 213.291 69.688C213.291 68.5943 213.425 67.658 213.694 66.8791C213.966 66.0969 214.355 65.4986 214.862 65.0843C215.373 64.6667 215.982 64.4579 216.692 64.4579C217.401 64.4579 218.009 64.6667 218.516 65.0843C219.027 65.4986 219.416 66.0969 219.685 66.8791C219.956 67.658 220.092 68.5943 220.092 69.688C220.092 70.7851 219.956 71.7247 219.685 72.5069C219.416 73.2891 219.028 73.8874 218.521 74.3017C218.017 74.7126 217.408 74.9181 216.692 74.9181ZM216.692 74.0829C217.477 74.0829 218.09 73.7001 218.531 72.9345C218.972 72.1655 219.192 71.0834 219.192 69.688C219.192 68.76 219.091 67.9679 218.889 67.3116C218.69 66.652 218.404 66.1482 218.029 65.8002C217.658 65.4522 217.212 65.2782 216.692 65.2782C215.913 65.2782 215.301 65.666 214.857 66.4416C214.413 67.2138 214.191 68.296 214.191 69.688C214.191 70.6161 214.29 71.4082 214.489 72.0644C214.691 72.7207 214.978 73.2212 215.349 73.5659C215.724 73.9106 216.171 74.0829 216.692 74.0829ZM225.278 74.9181C224.562 74.9181 223.95 74.7126 223.443 74.3017C222.939 73.8874 222.552 73.2891 222.28 72.5069C222.011 71.7247 221.877 70.7851 221.877 69.688C221.877 68.5943 222.011 67.658 222.28 66.8791C222.552 66.0969 222.941 65.4986 223.448 65.0843C223.959 64.6667 224.568 64.4579 225.278 64.4579C225.987 64.4579 226.595 64.6667 227.102 65.0843C227.613 65.4986 228.002 66.0969 228.271 66.8791C228.542 67.658 228.678 68.5943 228.678 69.688C228.678 70.7851 228.542 71.7247 228.271 72.5069C228.002 73.2891 227.614 73.8874 227.107 74.3017C226.603 74.7126 225.994 74.9181 225.278 74.9181ZM225.278 74.0829C226.063 74.0829 226.676 73.7001 227.117 72.9345C227.558 72.1655 227.778 71.0834 227.778 69.688C227.778 68.76 227.677 67.9679 227.475 67.3116C227.276 66.652 226.99 66.1482 226.615 65.8002C226.244 65.4522 225.798 65.2782 225.278 65.2782C224.499 65.2782 223.887 65.666 223.443 66.4416C222.999 67.2138 222.777 68.296 222.777 69.688C222.777 70.6161 222.876 71.4082 223.075 72.0644C223.277 72.7207 223.564 73.2212 223.935 73.5659C224.31 73.9106 224.757 74.0829 225.278 74.0829ZM231.442 73.2527C231.247 73.2527 231.078 73.183 230.935 73.0438C230.796 72.9013 230.726 72.7323 230.726 72.5367C230.726 72.3379 230.796 72.1688 230.935 72.0296C231.078 71.8904 231.247 71.8208 231.442 71.8208C231.641 71.8208 231.81 71.8904 231.95 72.0296C232.089 72.1688 232.158 72.3379 232.158 72.5367C232.158 72.666 232.125 72.7853 232.059 72.8947C231.996 73.0041 231.91 73.0919 231.8 73.1582C231.694 73.2212 231.575 73.2527 231.442 73.2527ZM231.442 68.0872C231.247 68.0872 231.078 68.0176 230.935 67.8784C230.796 67.7358 230.726 67.5668 230.726 67.3713C230.726 67.1757 230.796 67.0083 230.935 66.8691C231.078 66.7266 231.247 66.6554 231.442 66.6554C231.641 66.6554 231.81 66.7266 231.95 66.8691C232.089 67.0083 232.158 67.1757 232.158 67.3713C232.158 67.5005 232.125 67.6198 232.059 67.7292C231.996 67.8386 231.91 67.9264 231.8 67.9927C231.694 68.0557 231.575 68.0872 231.442 68.0872ZM237.623 74.9181C236.907 74.9181 236.296 74.7126 235.789 74.3017C235.285 73.8874 234.897 73.2891 234.625 72.5069C234.357 71.7247 234.223 70.7851 234.223 69.688C234.223 68.5943 234.357 67.658 234.625 66.8791C234.897 66.0969 235.287 65.4986 235.794 65.0843C236.304 64.6667 236.914 64.4579 237.623 64.4579C238.333 64.4579 238.941 64.6667 239.448 65.0843C239.958 65.4986 240.348 66.0969 240.616 66.8791C240.888 67.658 241.024 68.5943 241.024 69.688C241.024 70.7851 240.888 71.7247 240.616 72.5069C240.348 73.2891 239.96 73.8874 239.453 74.3017C238.949 74.7126 238.339 74.9181 237.623 74.9181ZM237.623 74.0829C238.409 74.0829 239.022 73.7001 239.463 72.9345C239.904 72.1655 240.124 71.0834 240.124 69.688C240.124 68.76 240.023 67.9679 239.821 67.3116C239.622 66.652 239.335 66.1482 238.961 65.8002C238.589 65.4522 238.144 65.2782 237.623 65.2782C236.844 65.2782 236.233 65.666 235.789 66.4416C235.345 67.2138 235.123 68.296 235.123 69.688C235.123 70.6161 235.222 71.4082 235.421 72.0644C235.623 72.7207 235.91 73.2212 236.281 73.5659C236.656 73.9106 237.103 74.0829 237.623 74.0829ZM246.209 74.9181C245.493 74.9181 244.882 74.7126 244.375 74.3017C243.871 73.8874 243.483 73.2891 243.211 72.5069C242.943 71.7247 242.809 70.7851 242.809 69.688C242.809 68.5943 242.943 67.658 243.211 66.8791C243.483 66.0969 243.873 65.4986 244.38 65.0843C244.89 64.6667 245.5 64.4579 246.209 64.4579C246.919 64.4579 247.527 64.6667 248.034 65.0843C248.544 65.4986 248.934 66.0969 249.202 66.8791C249.474 67.658 249.61 68.5943 249.61 69.688C249.61 70.7851 249.474 71.7247 249.202 72.5069C248.934 73.2891 248.546 73.8874 248.039 74.3017C247.535 74.7126 246.925 74.9181 246.209 74.9181ZM246.209 74.0829C246.995 74.0829 247.608 73.7001 248.049 72.9345C248.49 72.1655 248.71 71.0834 248.71 69.688C248.71 68.76 248.609 67.9679 248.407 67.3116C248.208 66.652 247.921 66.1482 247.547 65.8002C247.175 65.4522 246.73 65.2782 246.209 65.2782C245.43 65.2782 244.819 65.666 244.375 66.4416C243.931 67.2138 243.709 68.296 243.709 69.688C243.709 70.6161 243.808 71.4082 244.007 72.0644C244.209 72.7207 244.496 73.2212 244.867 73.5659C245.241 73.9106 245.689 74.0829 246.209 74.0829ZM255.973 69.688C255.973 68.4948 256.124 67.3679 256.426 66.3073C256.728 65.2467 257.16 64.2524 257.723 63.3244H258.529C258.287 63.7155 258.065 64.158 257.863 64.6518C257.664 65.1456 257.491 65.6726 257.346 66.2328C257.2 66.7929 257.087 67.3663 257.008 67.9529C256.928 68.5363 256.888 69.1146 256.888 69.688C256.888 70.4536 256.958 71.2259 257.097 72.0048C257.236 72.7837 257.428 73.5228 257.674 74.2221C257.922 74.9214 258.207 75.5313 258.529 76.0517H257.723C257.16 75.1203 256.728 74.1243 256.426 73.0637C256.124 72.0031 255.973 70.8779 255.973 69.688ZM267.429 64.5971H268.359V71.3386C268.359 72.0313 268.197 72.6511 267.872 73.198C267.547 73.7415 267.095 74.1707 266.514 74.4856C265.938 74.7972 265.267 74.9529 264.501 74.9529C263.739 74.9529 263.068 74.7955 262.488 74.4806C261.907 74.1658 261.455 73.7366 261.13 73.193C260.805 72.6494 260.643 72.0313 260.643 71.3386V64.5971H261.573V71.274C261.573 71.8142 261.694 72.2964 261.936 72.7207C262.178 73.1416 262.517 73.4731 262.955 73.715C263.396 73.957 263.911 74.0779 264.501 74.0779C265.091 74.0779 265.606 73.957 266.047 73.715C266.488 73.4731 266.828 73.1416 267.066 72.7207C267.308 72.2964 267.429 71.8142 267.429 71.274V64.5971ZM270.445 65.4323V64.5971H277.827V65.4323H274.601V74.7789H273.671V65.4323H270.445ZM287.471 67.7789H286.536C286.467 67.4309 286.341 67.1094 286.158 66.8144C285.98 66.5161 285.754 66.256 285.482 66.0339C285.211 65.8118 284.902 65.6395 284.558 65.5169C284.213 65.3942 283.84 65.3329 283.439 65.3329C282.796 65.3329 282.209 65.5003 281.679 65.835C281.152 66.1698 280.73 66.662 280.411 67.3116C280.096 67.9579 279.939 68.75 279.939 69.688C279.939 70.6326 280.096 71.4281 280.411 72.0744C280.73 72.7207 281.152 73.2112 281.679 73.546C282.209 73.8774 282.796 74.0431 283.439 74.0431C283.84 74.0431 284.213 73.9818 284.558 73.8592C284.902 73.7366 285.211 73.5659 285.482 73.3471C285.754 73.125 285.98 72.8649 286.158 72.5666C286.341 72.2683 286.467 71.9451 286.536 71.5971H287.471C287.388 72.0644 287.232 72.5003 287.004 72.9046C286.778 73.3057 286.49 73.657 286.139 73.9586C285.791 74.2602 285.39 74.4955 284.935 74.6646C284.481 74.8336 283.983 74.9181 283.439 74.9181C282.584 74.9181 281.825 74.7044 281.162 74.2768C280.499 73.8459 279.979 73.2394 279.601 72.4572C279.226 71.675 279.039 70.7519 279.039 69.688C279.039 68.6241 279.226 67.701 279.601 66.9188C279.979 66.1366 280.499 65.5318 281.162 65.1042C281.825 64.6733 282.584 64.4579 283.439 64.4579C283.983 64.4579 284.481 64.5424 284.935 64.7115C285.39 64.8772 285.791 65.1125 286.139 65.4174C286.49 65.719 286.778 66.0704 287.004 66.4714C287.232 66.8724 287.388 67.3083 287.471 67.7789ZM292.439 72.85V66.5509H293.289V72.85H292.439ZM289.714 70.1255V69.2754H296.013V70.1255H289.714ZM301.702 74.9181C301.053 74.9181 300.474 74.7955 299.967 74.5502C299.46 74.305 299.062 73.9702 298.774 73.546C298.486 73.1184 298.341 72.6362 298.341 72.0992C298.341 71.6783 298.429 71.2856 298.605 70.921C298.781 70.5531 299.022 70.2448 299.331 69.9963C299.639 69.7444 299.985 69.5803 300.37 69.5041V69.4494C299.869 69.3036 299.467 69.0169 299.162 68.5893C298.857 68.1584 298.706 67.6696 298.709 67.1227C298.706 66.6156 298.835 66.1615 299.097 65.7605C299.359 65.3594 299.715 65.0429 300.166 64.8109C300.62 64.5756 301.132 64.4579 301.702 64.4579C302.269 64.4579 302.778 64.5756 303.228 64.8109C303.679 65.0429 304.036 65.3594 304.297 65.7605C304.562 66.1615 304.697 66.6156 304.7 67.1227C304.697 67.6662 304.543 68.1551 304.238 68.5893C303.933 69.0202 303.532 69.3069 303.035 69.4494V69.5041C303.419 69.577 303.764 69.7394 304.069 69.9913C304.374 70.2432 304.616 70.5531 304.795 70.921C304.973 71.2856 305.063 71.6783 305.063 72.0992C305.063 72.6362 304.917 73.1184 304.625 73.546C304.337 73.9702 303.939 74.305 303.432 74.5502C302.928 74.7955 302.352 74.9181 301.702 74.9181ZM301.702 74.0829C302.186 74.0829 302.61 73.9967 302.975 73.8244C303.343 73.6487 303.629 73.4084 303.835 73.1035C304.044 72.7986 304.148 72.4489 304.148 72.0545C304.148 71.6468 304.04 71.2839 303.825 70.9657C303.61 70.6442 303.318 70.3907 302.95 70.2051C302.582 70.0161 302.166 69.9217 301.702 69.9217C301.238 69.9217 300.821 70.0161 300.449 70.2051C300.081 70.3907 299.79 70.6442 299.574 70.9657C299.362 71.2839 299.256 71.6468 299.256 72.0545C299.256 72.4489 299.357 72.7986 299.559 73.1035C299.765 73.4084 300.052 73.6487 300.42 73.8244C300.791 73.9967 301.218 74.0829 301.702 74.0829ZM301.702 69.1262C302.1 69.1262 302.456 69.0417 302.771 68.8727C303.086 68.7036 303.335 68.4733 303.517 68.1816C303.702 67.8866 303.797 67.5519 303.8 67.1774C303.797 66.8062 303.704 66.478 303.522 66.193C303.339 65.9046 303.091 65.6809 302.776 65.5218C302.464 65.3594 302.107 65.2782 301.702 65.2782C301.298 65.2782 300.937 65.3594 300.618 65.5218C300.303 65.6809 300.055 65.9046 299.873 66.193C299.694 66.478 299.606 66.8062 299.609 67.1774C299.606 67.5519 299.695 67.8866 299.878 68.1816C300.063 68.4733 300.313 68.7036 300.628 68.8727C300.946 69.0417 301.304 69.1262 301.702 69.1262ZM309.31 69.688C309.31 70.8812 309.159 72.0081 308.858 73.0687C308.556 74.1293 308.123 75.1236 307.56 76.0517H306.755C306.997 75.6606 307.217 75.2181 307.416 74.7242C307.618 74.2304 307.792 73.7034 307.938 73.1433C308.084 72.5831 308.196 72.0098 308.276 71.4231C308.355 70.8365 308.395 70.2581 308.395 69.688C308.395 68.9224 308.326 68.1501 308.186 67.3713C308.047 66.5924 307.853 65.8533 307.605 65.1539C307.359 64.4546 307.076 63.8447 306.755 63.3244H307.56C308.123 64.2557 308.556 65.2517 308.858 66.3123C309.159 67.3729 309.31 68.4982 309.31 69.688ZM34.2231 104.779V94.5971H40.1294V95.4323H35.1528V99.2654H39.8162V100.101H35.1528V103.944H40.2288V104.779H34.2231ZM43.2366 100.006V104.779H42.3517V97.1426H43.2118V98.3407H43.2913C43.4703 97.9496 43.7487 97.6364 44.1265 97.4011C44.5077 97.1625 44.9783 97.0431 45.5385 97.0431C46.0522 97.0431 46.503 97.1509 46.8907 97.3663C47.2818 97.5784 47.5851 97.8916 47.8005 98.3059C48.0193 98.7202 48.1287 99.229 48.1287 99.8322V104.779H47.2437V99.8869C47.2437 99.2605 47.0681 98.765 46.7167 98.4004C46.3687 98.0358 45.9014 97.8535 45.3147 97.8535C44.9137 97.8535 44.5574 97.9397 44.2458 98.112C43.9343 98.2844 43.6874 98.533 43.5051 98.8578C43.3261 99.1793 43.2366 99.5621 43.2366 100.006ZM53.2084 104.938C52.582 104.938 52.0334 104.772 51.5628 104.441C51.0921 104.109 50.7242 103.647 50.4591 103.054C50.1973 102.461 50.0663 101.769 50.0663 100.981C50.0663 100.195 50.1973 99.5074 50.4591 98.9174C50.7242 98.3241 51.0938 97.8634 51.5678 97.5353C52.0417 97.2039 52.5936 97.0382 53.2233 97.0382C53.6873 97.0382 54.0734 97.121 54.3817 97.2867C54.6899 97.4491 54.9368 97.6513 55.1224 97.8933C55.3081 98.1352 55.4522 98.3705 55.555 98.5992H55.6345V94.5971H56.5244V104.779H55.6594V103.362H55.555C55.4522 103.594 55.3064 103.833 55.1175 104.078C54.9286 104.32 54.6783 104.524 54.3668 104.689C54.0585 104.855 53.6724 104.938 53.2084 104.938ZM53.3128 104.128C53.8066 104.128 54.2276 103.993 54.5756 103.725C54.9236 103.453 55.1887 103.08 55.371 102.606C55.5566 102.129 55.6494 101.582 55.6494 100.966C55.6494 100.356 55.5583 99.8173 55.376 99.35C55.1937 98.8793 54.9286 98.5114 54.5805 98.2463C54.2325 97.9778 53.8099 97.8436 53.3128 97.8436C52.8024 97.8436 52.3715 97.9828 52.0202 98.2612C51.6722 98.5363 51.407 98.9091 51.2247 99.3798C51.0457 99.8504 50.9563 100.379 50.9563 100.966C50.9563 101.559 51.0474 102.094 51.2297 102.572C51.412 103.049 51.6771 103.428 52.0251 103.71C52.3765 103.988 52.8057 104.128 53.3128 104.128ZM62.55 95.4323V94.5971H69.9328V95.4323H66.7063V104.779H65.7766V95.4323H62.55ZM71.8519 104.779V97.1426H72.7418V104.779H71.8519ZM72.3043 95.8301C72.122 95.8301 71.9662 95.7688 71.8369 95.6461C71.7077 95.5202 71.643 95.3694 71.643 95.1937C71.643 95.018 71.7077 94.8689 71.8369 94.7463C71.9662 94.6203 72.122 94.5573 72.3043 94.5573C72.4866 94.5573 72.6423 94.6203 72.7716 94.7463C72.9009 94.8689 72.9655 95.018 72.9655 95.1937C72.9655 95.3694 72.9009 95.5202 72.7716 95.6461C72.6423 95.7688 72.4866 95.8301 72.3043 95.8301ZM75.0821 104.779V97.1426H75.9422V98.3159H76.0218C76.1742 97.9214 76.4278 97.6116 76.7824 97.3862C77.1404 97.1575 77.5696 97.0431 78.0701 97.0431C78.5971 97.0431 79.0296 97.1674 79.3677 97.416C79.709 97.6613 79.9642 97.9993 80.1333 98.4302H80.1979C80.3703 98.006 80.6503 97.6696 81.0381 97.421C81.4292 97.1691 81.9032 97.0431 82.46 97.0431C83.1693 97.0431 83.7294 97.2669 84.1404 97.7143C84.5514 98.1584 84.7569 98.808 84.7569 99.6632V104.779H83.8719V99.6632C83.8719 99.0599 83.7178 98.6075 83.4096 98.3059C83.1013 98.0043 82.6953 97.8535 82.1915 97.8535C81.6082 97.8535 81.1591 98.0325 80.8442 98.3904C80.5293 98.7484 80.3719 99.2025 80.3719 99.7527V104.779H79.4671V99.5836C79.4671 99.0666 79.3229 98.649 79.0346 98.3308C78.7462 98.0126 78.3402 97.8535 77.8165 97.8535C77.4652 97.8535 77.1487 97.9397 76.8669 98.112C76.5885 98.2844 76.3681 98.5247 76.2057 98.8329C76.0466 99.1378 75.9671 99.4892 75.9671 99.8869V104.779H75.0821ZM90.1871 104.938C89.4745 104.938 88.858 104.772 88.3376 104.441C87.8173 104.106 87.4146 103.644 87.1295 103.054C86.8478 102.461 86.707 101.778 86.707 101.005C86.707 100.237 86.8478 99.5538 87.1295 98.9572C87.4146 98.3573 87.8073 97.8883 88.3078 97.5502C88.8116 97.2089 89.3933 97.0382 90.0528 97.0382C90.4671 97.0382 90.8665 97.1144 91.251 97.2669C91.6355 97.416 91.9802 97.6464 92.2851 97.9579C92.5933 98.2661 92.8369 98.6556 93.0159 99.1262C93.1949 99.5936 93.2844 100.147 93.2844 100.787V101.224H87.3185V100.444H92.3796C92.3796 99.9532 92.2801 99.5124 92.0813 99.1213C91.8857 98.7268 91.6123 98.4153 91.2609 98.1866C90.9129 97.9579 90.5102 97.8436 90.0528 97.8436C89.5689 97.8436 89.143 97.9728 88.7751 98.2313C88.4072 98.4899 88.1189 98.8313 87.9101 99.2555C87.7046 99.6797 87.6002 100.144 87.5969 100.648V101.115C87.5969 101.721 87.7013 102.252 87.9101 102.706C88.1222 103.157 88.4222 103.506 88.8099 103.755C89.1977 104.003 89.6568 104.128 90.1871 104.128C90.5483 104.128 90.8649 104.071 91.1367 103.959C91.4117 103.846 91.6421 103.695 91.8277 103.506C92.0166 103.314 92.1591 103.104 92.2553 102.875L93.0955 103.148C92.9795 103.47 92.7889 103.766 92.5237 104.038C92.2619 104.31 91.9338 104.529 91.5394 104.694C91.1483 104.857 90.6975 104.938 90.1871 104.938ZM101.066 97.1629C100.786 97.1629 100.539 97.0696 100.324 96.8829C100.109 96.6869 100.002 96.4303 100.002 96.1129C100.002 95.7956 100.109 95.5436 100.324 95.3569C100.539 95.1609 100.786 95.0629 101.066 95.0629C101.346 95.0629 101.593 95.1609 101.808 95.3569C102.023 95.5436 102.13 95.7956 102.13 96.1129C102.13 96.4303 102.023 96.6869 101.808 96.8829C101.593 97.0696 101.346 97.1629 101.066 97.1629ZM101.066 104.023C100.786 104.023 100.539 103.93 100.324 103.743C100.109 103.547 100.002 103.29 100.002 102.973C100.002 102.646 100.109 102.39 100.324 102.203C100.539 102.007 100.786 101.909 101.066 101.909C101.346 101.909 101.593 102.007 101.808 102.203C102.023 102.39 102.13 102.646 102.13 102.973C102.13 103.29 102.023 103.547 101.808 103.743C101.593 103.93 101.346 104.023 101.066 104.023ZM109.2 104.779V104.098L112.526 100.359C112.96 99.8687 113.31 99.4494 113.575 99.1014C113.84 98.7534 114.032 98.4319 114.151 98.1369C114.274 97.8419 114.335 97.5353 114.335 97.2171C114.335 96.8294 114.244 96.4913 114.062 96.2029C113.883 95.9113 113.636 95.6842 113.321 95.5218C113.006 95.3594 112.652 95.2782 112.257 95.2782C111.84 95.2782 111.473 95.3677 111.158 95.5467C110.847 95.7257 110.605 95.9709 110.433 96.2825C110.26 96.594 110.174 96.952 110.174 97.3563H109.284C109.284 96.7929 109.413 96.2941 109.672 95.8599C109.934 95.4224 110.29 95.0794 110.741 94.8308C111.195 94.5822 111.709 94.4579 112.282 94.4579C112.849 94.4579 113.353 94.5805 113.793 94.8258C114.234 95.0678 114.581 95.3975 114.832 95.8152C115.084 96.2328 115.21 96.7001 115.21 97.2171C115.21 97.5917 115.144 97.9546 115.011 98.3059C114.882 98.6572 114.658 99.0483 114.34 99.4792C114.022 99.9101 113.581 100.437 113.018 101.06L110.492 103.879V103.944H115.529V104.779H109.2ZM120.907 104.918C120.191 104.918 119.579 104.713 119.072 104.302C118.568 103.887 118.18 103.289 117.909 102.507C117.64 101.725 117.506 100.785 117.506 99.688C117.506 98.5943 117.64 97.658 117.909 96.8791C118.18 96.0969 118.57 95.4986 119.077 95.0843C119.587 94.6667 120.197 94.4579 120.907 94.4579C121.616 94.4579 122.224 94.6667 122.731 95.0843C123.242 95.4986 123.631 96.0969 123.899 96.8791C124.171 97.658 124.307 98.5943 124.307 99.688C124.307 100.785 124.171 101.725 123.899 102.507C123.631 103.289 123.243 103.887 122.736 104.302C122.232 104.713 121.622 104.918 120.907 104.918ZM120.907 104.083C121.692 104.083 122.305 103.7 122.746 102.934C123.187 102.166 123.407 101.083 123.407 99.688C123.407 98.76 123.306 97.9679 123.104 97.3116C122.905 96.652 122.618 96.1482 122.244 95.8002C121.873 95.4522 121.427 95.2782 120.907 95.2782C120.128 95.2782 119.516 95.666 119.072 96.4416C118.628 97.2138 118.406 98.296 118.406 99.688C118.406 100.616 118.505 101.408 118.704 102.064C118.906 102.721 119.193 103.221 119.564 103.566C119.939 103.911 120.386 104.083 120.907 104.083ZM126.331 104.779V104.098L129.657 100.359C130.091 99.8687 130.44 99.4494 130.706 99.1014C130.971 98.7534 131.163 98.4319 131.282 98.1369C131.405 97.8419 131.466 97.5353 131.466 97.2171C131.466 96.8294 131.375 96.4913 131.193 96.2029C131.014 95.9113 130.767 95.6842 130.452 95.5218C130.137 95.3594 129.782 95.2782 129.388 95.2782C128.97 95.2782 128.604 95.3677 128.289 95.5467C127.978 95.7257 127.736 95.9709 127.563 96.2825C127.391 96.594 127.305 96.952 127.305 97.3563H126.415C126.415 96.7929 126.544 96.2941 126.803 95.8599C127.065 95.4224 127.421 95.0794 127.872 94.8308C128.326 94.5822 128.84 94.4579 129.413 94.4579C129.98 94.4579 130.483 94.5805 130.924 94.8258C131.365 95.0678 131.711 95.3975 131.963 95.8152C132.215 96.2328 132.341 96.7001 132.341 97.2171C132.341 97.5917 132.275 97.9546 132.142 98.3059C132.013 98.6572 131.789 99.0483 131.471 99.4792C131.153 99.9101 130.712 100.437 130.149 101.06L127.623 103.879V103.944H132.659V104.779H126.331ZM137.853 104.918C137.287 104.918 136.78 104.804 136.332 104.575C135.888 104.343 135.533 104.025 135.268 103.621C135.006 103.216 134.867 102.754 134.851 102.233H135.75C135.78 102.774 135.992 103.218 136.387 103.566C136.781 103.911 137.27 104.083 137.853 104.083C138.308 104.083 138.712 103.975 139.067 103.76C139.421 103.541 139.698 103.243 139.897 102.865C140.099 102.484 140.2 102.054 140.2 101.577C140.197 101.08 140.089 100.643 139.877 100.265C139.665 99.8836 139.376 99.5853 139.012 99.3698C138.651 99.1544 138.245 99.0467 137.794 99.0467C137.452 99.0434 137.118 99.0997 136.79 99.2157C136.461 99.3317 136.188 99.4809 135.969 99.6632L135.04 99.5438L135.651 94.5971H140.682V95.4323H136.432L136.024 98.8379H136.074C136.299 98.649 136.572 98.4948 136.894 98.3755C137.219 98.2562 137.562 98.1965 137.923 98.1965C138.523 98.1965 139.062 98.3407 139.539 98.6291C140.019 98.9174 140.399 99.3152 140.677 99.8223C140.959 100.326 141.1 100.906 141.1 101.562C141.1 102.205 140.959 102.78 140.677 103.287C140.399 103.791 140.014 104.189 139.524 104.481C139.037 104.772 138.48 104.918 137.853 104.918ZM146.556 94.1198L143.275 106.31H142.445L145.726 94.1198H146.556ZM151.217 104.918C150.501 104.918 149.89 104.713 149.383 104.302C148.879 103.887 148.491 103.289 148.219 102.507C147.951 101.725 147.817 100.785 147.817 99.688C147.817 98.5943 147.951 97.658 148.219 96.8791C148.491 96.0969 148.88 95.4986 149.388 95.0843C149.898 94.6667 150.508 94.4579 151.217 94.4579C151.926 94.4579 152.535 94.6667 153.042 95.0843C153.552 95.4986 153.942 96.0969 154.21 96.8791C154.482 97.658 154.618 98.5943 154.618 99.688C154.618 100.785 154.482 101.725 154.21 102.507C153.942 103.289 153.554 103.887 153.047 104.302C152.543 104.713 151.933 104.918 151.217 104.918ZM151.217 104.083C152.003 104.083 152.616 103.7 153.057 102.934C153.497 102.166 153.718 101.083 153.718 99.688C153.718 98.76 153.617 97.9679 153.415 97.3116C153.216 96.652 152.929 96.1482 152.554 95.8002C152.183 95.4522 151.737 95.2782 151.217 95.2782C150.438 95.2782 149.827 95.666 149.383 96.4416C148.938 97.2138 148.716 98.296 148.716 99.688C148.716 100.616 148.816 101.408 149.015 102.064C149.217 102.721 149.504 103.221 149.875 103.566C150.249 103.911 150.697 104.083 151.217 104.083ZM156.661 104.779L161.299 95.497V95.4323H155.955V94.5971H162.274V95.4721L157.64 104.779H156.661ZM167.597 94.1198L164.316 106.31H163.486L166.767 94.1198H167.597ZM172.238 94.5971V104.779H171.309V95.5715H171.249L168.863 97.1575V96.193L171.269 94.5971H172.238ZM178.393 94.4579C178.817 94.4612 179.228 94.5474 179.626 94.7164C180.027 94.8822 180.388 95.1506 180.71 95.5218C181.031 95.8897 181.287 96.3803 181.475 96.9934C181.664 97.6033 181.759 98.354 181.759 99.2455C181.759 100.077 181.686 100.84 181.54 101.532C181.394 102.225 181.175 102.825 180.884 103.332C180.595 103.836 180.231 104.227 179.79 104.505C179.353 104.781 178.84 104.918 178.254 104.918C177.707 104.918 177.221 104.804 176.797 104.575C176.376 104.346 176.035 104.03 175.773 103.626C175.511 103.218 175.349 102.747 175.286 102.214H176.201C176.29 102.757 176.509 103.205 176.857 103.556C177.208 103.907 177.674 104.083 178.254 104.083C179.086 104.083 179.732 103.695 180.193 102.92C180.653 102.144 180.884 101.04 180.884 99.6085H180.819C180.66 99.9068 180.451 100.167 180.193 100.389C179.938 100.611 179.646 100.785 179.318 100.911C178.99 101.034 178.643 101.095 178.279 101.095C177.712 101.095 177.193 100.952 176.723 100.667C176.252 100.379 175.876 99.9863 175.594 99.4892C175.312 98.9887 175.171 98.4186 175.171 97.7789C175.171 97.1757 175.304 96.6222 175.569 96.1184C175.838 95.6113 176.212 95.207 176.693 94.9054C177.177 94.6004 177.743 94.4513 178.393 94.4579ZM178.393 95.2931C177.952 95.2931 177.556 95.4058 177.205 95.6312C176.857 95.8533 176.58 96.1532 176.375 96.5311C176.172 96.9056 176.071 97.3215 176.071 97.7789C176.071 98.2396 176.172 98.6589 176.375 99.0367C176.58 99.4113 176.857 99.7096 177.205 99.9316C177.556 100.15 177.952 100.26 178.393 100.26C178.731 100.26 179.046 100.192 179.338 100.056C179.629 99.9167 179.881 99.7278 180.093 99.4892C180.309 99.2505 180.471 98.9804 180.581 98.6788C180.693 98.3739 180.738 98.054 180.715 97.7193C180.675 97.2553 180.551 96.841 180.342 96.4764C180.136 96.1085 179.865 95.8201 179.527 95.6113C179.192 95.3992 178.814 95.2931 178.393 95.2931ZM187.799 104.779V104.098L191.125 100.359C191.559 99.8687 191.909 99.4494 192.174 99.1014C192.439 98.7534 192.632 98.4319 192.751 98.1369C192.874 97.8419 192.935 97.5353 192.935 97.2171C192.935 96.8294 192.844 96.4913 192.662 96.2029C192.483 95.9113 192.236 95.6842 191.921 95.5218C191.606 95.3594 191.251 95.2782 190.857 95.2782C190.439 95.2782 190.073 95.3677 189.758 95.5467C189.447 95.7257 189.205 95.9709 189.032 96.2825C188.86 96.594 188.774 96.952 188.774 97.3563H187.884C187.884 96.7929 188.013 96.2941 188.272 95.8599C188.533 95.4224 188.89 95.0794 189.34 94.8308C189.795 94.5822 190.308 94.4579 190.882 94.4579C191.448 94.4579 191.952 94.5805 192.393 94.8258C192.834 95.0678 193.18 95.3975 193.432 95.8152C193.684 96.2328 193.81 96.7001 193.81 97.2171C193.81 97.5917 193.744 97.9546 193.611 98.3059C193.482 98.6572 193.258 99.0483 192.94 99.4792C192.622 99.9101 192.181 100.437 191.617 101.06L189.092 103.879V103.944H194.128V104.779H187.799ZM199.65 104.918C199.024 104.918 198.464 104.805 197.97 104.58C197.476 104.351 197.085 104.035 196.797 103.63C196.508 103.226 196.356 102.76 196.339 102.233H197.279C197.295 102.605 197.41 102.929 197.622 103.208C197.834 103.483 198.116 103.698 198.467 103.854C198.818 104.007 199.21 104.083 199.64 104.083C200.111 104.083 200.525 103.995 200.883 103.819C201.245 103.644 201.526 103.403 201.728 103.099C201.934 102.79 202.037 102.442 202.037 102.054C202.037 101.644 201.932 101.281 201.723 100.966C201.515 100.651 201.215 100.406 200.824 100.23C200.436 100.054 199.972 99.9664 199.432 99.9664H198.835V99.1312H199.432C199.872 99.1312 200.262 99.0517 200.6 98.8926C200.941 98.7302 201.21 98.5031 201.405 98.2115C201.601 97.9198 201.699 97.5768 201.699 97.1823C201.699 96.8078 201.614 96.478 201.445 96.193C201.276 95.908 201.037 95.6842 200.729 95.5218C200.424 95.3594 200.068 95.2782 199.66 95.2782C199.266 95.2782 198.905 95.3545 198.576 95.5069C198.248 95.6594 197.983 95.8748 197.781 96.1532C197.582 96.4316 197.476 96.7614 197.463 97.1426H196.563C196.576 96.6123 196.722 96.1466 197 95.7455C197.282 95.3412 197.655 95.0263 198.119 94.8009C198.586 94.5723 199.103 94.4579 199.67 94.4579C200.27 94.4579 200.789 94.5805 201.226 94.8258C201.664 95.0711 202.002 95.3975 202.241 95.8052C202.482 96.2096 202.603 96.6554 202.603 97.1426C202.603 97.7226 202.446 98.2197 202.131 98.634C201.816 99.045 201.392 99.3301 200.858 99.4892V99.5538C201.508 99.683 202.018 99.9714 202.39 100.419C202.764 100.863 202.951 101.408 202.951 102.054C202.951 102.598 202.809 103.087 202.524 103.521C202.239 103.952 201.848 104.293 201.351 104.545C200.857 104.794 200.29 104.918 199.65 104.918ZM205.89 103.253C205.694 103.253 205.525 103.183 205.383 103.044C205.243 102.901 205.174 102.732 205.174 102.537C205.174 102.338 205.243 102.169 205.383 102.03C205.525 101.89 205.694 101.821 205.89 101.821C206.089 101.821 206.258 101.89 206.397 102.03C206.536 102.169 206.606 102.338 206.606 102.537C206.606 102.666 206.572 102.785 206.506 102.895C206.443 103.004 206.357 103.092 206.248 103.158C206.142 103.221 206.022 103.253 205.89 103.253ZM205.89 98.0872C205.694 98.0872 205.525 98.0176 205.383 97.8784C205.243 97.7358 205.174 97.5668 205.174 97.3713C205.174 97.1757 205.243 97.0083 205.383 96.8691C205.525 96.7266 205.694 96.6554 205.89 96.6554C206.089 96.6554 206.258 96.7266 206.397 96.8691C206.536 97.0083 206.606 97.1757 206.606 97.3713C206.606 97.5005 206.572 97.6198 206.506 97.7292C206.443 97.8386 206.357 97.9264 206.248 97.9927C206.142 98.0557 206.022 98.0872 205.89 98.0872ZM211.887 104.918C211.32 104.918 210.813 104.804 210.365 104.575C209.921 104.343 209.567 104.025 209.301 103.621C209.04 103.216 208.9 102.754 208.884 102.233H209.784C209.813 102.774 210.026 103.218 210.42 103.566C210.814 103.911 211.303 104.083 211.887 104.083C212.341 104.083 212.745 103.975 213.1 103.76C213.454 103.541 213.731 103.243 213.93 102.865C214.132 102.484 214.233 102.054 214.233 101.577C214.23 101.08 214.122 100.643 213.91 100.265C213.698 99.8836 213.41 99.5853 213.045 99.3698C212.684 99.1544 212.278 99.0467 211.827 99.0467C211.486 99.0434 211.151 99.0997 210.823 99.2157C210.495 99.3317 210.221 99.4809 210.002 99.6632L209.073 99.5438L209.684 94.5971H214.715V95.4323H210.465L210.057 98.8379H210.107C210.332 98.649 210.606 98.4948 210.927 98.3755C211.252 98.2562 211.595 98.1965 211.956 98.1965C212.556 98.1965 213.095 98.3407 213.572 98.6291C214.053 98.9174 214.432 99.3152 214.711 99.8223C214.992 100.326 215.133 100.906 215.133 101.562C215.133 102.205 214.992 102.78 214.711 103.287C214.432 103.791 214.048 104.189 213.557 104.481C213.07 104.772 212.513 104.918 211.887 104.918ZM220.311 94.4579C220.735 94.4612 221.146 94.5474 221.544 94.7164C221.945 94.8822 222.306 95.1506 222.628 95.5218C222.949 95.8897 223.204 96.3803 223.393 96.9934C223.582 97.6033 223.677 98.354 223.677 99.2455C223.677 100.077 223.604 100.84 223.458 101.532C223.312 102.225 223.093 102.825 222.802 103.332C222.513 103.836 222.149 104.227 221.708 104.505C221.271 104.781 220.758 104.918 220.172 104.918C219.625 104.918 219.139 104.804 218.715 104.575C218.294 104.346 217.953 104.03 217.691 103.626C217.429 103.218 217.267 102.747 217.204 102.214H218.119C218.208 102.757 218.427 103.205 218.775 103.556C219.126 103.907 219.592 104.083 220.172 104.083C221.004 104.083 221.65 103.695 222.111 102.92C222.571 102.144 222.802 101.04 222.802 99.6085H222.737C222.578 99.9068 222.369 100.167 222.111 100.389C221.856 100.611 221.564 100.785 221.236 100.911C220.908 101.034 220.561 101.095 220.197 101.095C219.63 101.095 219.111 100.952 218.641 100.667C218.17 100.379 217.794 99.9863 217.512 99.4892C217.23 98.9887 217.089 98.4186 217.089 97.7789C217.089 97.1757 217.222 96.6222 217.487 96.1184C217.756 95.6113 218.13 95.207 218.611 94.9054C219.095 94.6004 219.661 94.4513 220.311 94.4579ZM220.311 95.2931C219.87 95.2931 219.474 95.4058 219.123 95.6312C218.775 95.8533 218.498 96.1532 218.293 96.5311C218.09 96.9056 217.989 97.3215 217.989 97.7789C217.989 98.2396 218.09 98.6589 218.293 99.0367C218.498 99.4113 218.775 99.7096 219.123 99.9316C219.474 100.15 219.87 100.26 220.311 100.26C220.649 100.26 220.964 100.192 221.256 100.056C221.547 99.9167 221.799 99.7278 222.011 99.4892C222.227 99.2505 222.389 98.9804 222.499 98.6788C222.611 98.3739 222.656 98.054 222.633 97.7193C222.593 97.2553 222.469 96.841 222.26 96.4764C222.054 96.1085 221.783 95.8201 221.445 95.6113C221.11 95.3992 220.732 95.2931 220.311 95.2931ZM226.521 103.253C226.325 103.253 226.156 103.183 226.013 103.044C225.874 102.901 225.805 102.732 225.805 102.537C225.805 102.338 225.874 102.169 226.013 102.03C226.156 101.89 226.325 101.821 226.521 101.821C226.719 101.821 226.888 101.89 227.028 102.03C227.167 102.169 227.236 102.338 227.236 102.537C227.236 102.666 227.203 102.785 227.137 102.895C227.074 103.004 226.988 103.092 226.878 103.158C226.772 103.221 226.653 103.253 226.521 103.253ZM226.521 98.0872C226.325 98.0872 226.156 98.0176 226.013 97.8784C225.874 97.7358 225.805 97.5668 225.805 97.3713C225.805 97.1757 225.874 97.0083 226.013 96.8691C226.156 96.7266 226.325 96.6554 226.521 96.6554C226.719 96.6554 226.888 96.7266 227.028 96.8691C227.167 97.0083 227.236 97.1757 227.236 97.3713C227.236 97.5005 227.203 97.6198 227.137 97.7292C227.074 97.8386 226.988 97.9264 226.878 97.9927C226.772 98.0557 226.653 98.0872 226.521 98.0872ZM232.518 104.918C231.951 104.918 231.444 104.804 230.996 104.575C230.552 104.343 230.197 104.025 229.932 103.621C229.67 103.216 229.531 102.754 229.515 102.233H230.415C230.444 102.774 230.656 103.218 231.051 103.566C231.445 103.911 231.934 104.083 232.518 104.083C232.972 104.083 233.376 103.975 233.731 103.76C234.085 103.541 234.362 103.243 234.561 102.865C234.763 102.484 234.864 102.054 234.864 101.577C234.861 101.08 234.753 100.643 234.541 100.265C234.329 99.8836 234.04 99.5853 233.676 99.3698C233.315 99.1544 232.909 99.0467 232.458 99.0467C232.116 99.0434 231.782 99.0997 231.454 99.2157C231.125 99.3317 230.852 99.4809 230.633 99.6632L229.704 99.5438L230.315 94.5971H235.346V95.4323H231.096L230.688 98.8379H230.738C230.963 98.649 231.236 98.4948 231.558 98.3755C231.883 98.2562 232.226 98.1965 232.587 98.1965C233.187 98.1965 233.726 98.3407 234.203 98.6291C234.683 98.9174 235.063 99.3152 235.341 99.8223C235.623 100.326 235.764 100.906 235.764 101.562C235.764 102.205 235.623 102.78 235.341 103.287C235.063 103.791 234.678 104.189 234.188 104.481C233.701 104.772 233.144 104.918 232.518 104.918ZM240.942 94.4579C241.366 94.4612 241.777 94.5474 242.175 94.7164C242.576 94.8822 242.937 95.1506 243.259 95.5218C243.58 95.8897 243.835 96.3803 244.024 96.9934C244.213 97.6033 244.308 98.354 244.308 99.2455C244.308 100.077 244.235 100.84 244.089 101.532C243.943 102.225 243.724 102.825 243.433 103.332C243.144 103.836 242.78 104.227 242.339 104.505C241.901 104.781 241.389 104.918 240.803 104.918C240.256 104.918 239.77 104.804 239.346 104.575C238.925 104.346 238.584 104.03 238.322 103.626C238.06 103.218 237.898 102.747 237.835 102.214H238.749C238.839 102.757 239.058 103.205 239.406 103.556C239.757 103.907 240.223 104.083 240.803 104.083C241.635 104.083 242.281 103.695 242.742 102.92C243.202 102.144 243.433 101.04 243.433 99.6085H243.368C243.209 99.9068 243 100.167 242.742 100.389C242.486 100.611 242.195 100.785 241.867 100.911C241.538 101.034 241.192 101.095 240.828 101.095C240.261 101.095 239.742 100.952 239.271 100.667C238.801 100.379 238.425 99.9863 238.143 99.4892C237.861 98.9887 237.72 98.4186 237.72 97.7789C237.72 97.1757 237.853 96.6222 238.118 96.1184C238.386 95.6113 238.761 95.207 239.242 94.9054C239.725 94.6004 240.292 94.4513 240.942 94.4579ZM240.942 95.2931C240.501 95.2931 240.105 95.4058 239.754 95.6312C239.406 95.8533 239.129 96.1532 238.923 96.5311C238.721 96.9056 238.62 97.3215 238.62 97.7789C238.62 98.2396 238.721 98.6589 238.923 99.0367C239.129 99.4113 239.406 99.7096 239.754 99.9316C240.105 100.15 240.501 100.26 240.942 100.26C241.28 100.26 241.595 100.192 241.886 100.056C242.178 99.9167 242.43 99.7278 242.642 99.4892C242.858 99.2505 243.02 98.9804 243.129 98.6788C243.242 98.3739 243.287 98.054 243.264 97.7193C243.224 97.2553 243.1 96.841 242.891 96.4764C242.685 96.1085 242.413 95.8201 242.075 95.6113C241.741 95.3992 241.363 95.2931 240.942 95.2931ZM250.751 99.688C250.751 98.4948 250.902 97.3679 251.203 96.3073C251.505 95.2467 251.937 94.2524 252.501 93.3244H253.306C253.064 93.7155 252.842 94.158 252.64 94.6518C252.441 95.1456 252.269 95.6726 252.123 96.2328C251.977 96.7929 251.864 97.3663 251.785 97.9529C251.705 98.5363 251.666 99.1146 251.666 99.688C251.666 100.454 251.735 101.226 251.874 102.005C252.014 102.784 252.206 103.523 252.451 104.222C252.7 104.921 252.985 105.531 253.306 106.052H252.501C251.937 105.12 251.505 104.124 251.203 103.064C250.902 102.003 250.751 100.878 250.751 99.688ZM262.207 94.5971H263.136V101.339C263.136 102.031 262.974 102.651 262.649 103.198C262.324 103.742 261.872 104.171 261.292 104.486C260.715 104.797 260.044 104.953 259.278 104.953C258.516 104.953 257.845 104.796 257.265 104.481C256.685 104.166 256.232 103.737 255.908 103.193C255.583 102.649 255.42 102.031 255.42 101.339V94.5971H256.35V101.274C256.35 101.814 256.471 102.296 256.713 102.721C256.955 103.142 257.295 103.473 257.732 103.715C258.173 103.957 258.688 104.078 259.278 104.078C259.868 104.078 260.384 103.957 260.825 103.715C261.265 103.473 261.605 103.142 261.844 102.721C262.086 102.296 262.207 101.814 262.207 101.274V94.5971ZM265.222 95.4323V94.5971H272.605V95.4323H269.378V104.779H268.448V95.4323H265.222ZM282.248 97.7789H281.314C281.244 97.4309 281.118 97.1094 280.936 96.8144C280.757 96.5161 280.531 96.256 280.26 96.0339C279.988 95.8118 279.68 95.6395 279.335 95.5169C278.99 95.3942 278.617 95.3329 278.216 95.3329C277.573 95.3329 276.987 95.5003 276.456 95.835C275.929 96.1698 275.507 96.662 275.189 97.3116C274.874 97.9579 274.716 98.75 274.716 99.688C274.716 100.633 274.874 101.428 275.189 102.074C275.507 102.721 275.929 103.211 276.456 103.546C276.987 103.877 277.573 104.043 278.216 104.043C278.617 104.043 278.99 103.982 279.335 103.859C279.68 103.737 279.988 103.566 280.26 103.347C280.531 103.125 280.757 102.865 280.936 102.567C281.118 102.268 281.244 101.945 281.314 101.597H282.248C282.165 102.064 282.01 102.5 281.781 102.905C281.556 103.306 281.267 103.657 280.916 103.959C280.568 104.26 280.167 104.496 279.713 104.665C279.259 104.834 278.76 104.918 278.216 104.918C277.361 104.918 276.602 104.704 275.939 104.277C275.277 103.846 274.756 103.239 274.378 102.457C274.004 101.675 273.817 100.752 273.817 99.688C273.817 98.6241 274.004 97.701 274.378 96.9188C274.756 96.1366 275.277 95.5318 275.939 95.1042C276.602 94.6733 277.361 94.4579 278.216 94.4579C278.76 94.4579 279.259 94.5424 279.713 94.7115C280.167 94.8772 280.568 95.1125 280.916 95.4174C281.267 95.719 281.556 96.0704 281.781 96.4714C282.01 96.8724 282.165 97.3083 282.248 97.7789ZM287.216 102.85V96.5509H288.066V102.85H287.216ZM284.492 100.126V99.2754H290.791V100.126H284.492ZM296.48 104.918C295.83 104.918 295.252 104.796 294.744 104.55C294.237 104.305 293.84 103.97 293.551 103.546C293.263 103.118 293.119 102.636 293.119 102.099C293.119 101.678 293.207 101.286 293.382 100.921C293.558 100.553 293.8 100.245 294.108 99.9963C294.416 99.7444 294.763 99.5803 295.147 99.5041V99.4494C294.647 99.3036 294.244 99.0169 293.939 98.5893C293.634 98.1584 293.483 97.6696 293.487 97.1227C293.483 96.6156 293.613 96.1615 293.874 95.7605C294.136 95.3594 294.493 95.0429 294.943 94.8109C295.397 94.5756 295.909 94.4579 296.48 94.4579C297.046 94.4579 297.555 94.5756 298.006 94.8109C298.457 95.0429 298.813 95.3594 299.075 95.7605C299.34 96.1615 299.474 96.6156 299.477 97.1227C299.474 97.6662 299.32 98.1551 299.015 98.5893C298.71 99.0202 298.309 99.3069 297.812 99.4494V99.5041C298.196 99.577 298.541 99.7394 298.846 99.9913C299.151 100.243 299.393 100.553 299.572 100.921C299.751 101.286 299.84 101.678 299.84 102.099C299.84 102.636 299.694 103.118 299.403 103.546C299.114 103.97 298.717 104.305 298.21 104.55C297.706 104.796 297.129 104.918 296.48 104.918ZM296.48 104.083C296.963 104.083 297.388 103.997 297.752 103.824C298.12 103.649 298.407 103.408 298.612 103.104C298.821 102.799 298.926 102.449 298.926 102.054C298.926 101.647 298.818 101.284 298.602 100.966C298.387 100.644 298.095 100.391 297.727 100.205C297.359 100.016 296.944 99.9217 296.48 99.9217C296.015 99.9217 295.598 100.016 295.227 100.205C294.859 100.391 294.567 100.644 294.352 100.966C294.14 101.284 294.033 101.647 294.033 102.054C294.033 102.449 294.135 102.799 294.337 103.104C294.542 103.408 294.829 103.649 295.197 103.824C295.568 103.997 295.996 104.083 296.48 104.083ZM296.48 99.1262C296.877 99.1262 297.234 99.0417 297.548 98.8727C297.863 98.7036 298.112 98.4733 298.294 98.1816C298.48 97.8866 298.574 97.5519 298.578 97.1774C298.574 96.8062 298.481 96.478 298.299 96.193C298.117 95.9046 297.868 95.6809 297.553 95.5218C297.242 95.3594 296.884 95.2782 296.48 95.2782C296.075 95.2782 295.714 95.3594 295.396 95.5218C295.081 95.6809 294.832 95.9046 294.65 96.193C294.471 96.478 294.383 96.8062 294.386 97.1774C294.383 97.5519 294.473 97.8866 294.655 98.1816C294.841 98.4733 295.091 98.7036 295.406 98.8727C295.724 99.0417 296.082 99.1262 296.48 99.1262ZM304.087 99.688C304.087 100.881 303.936 102.008 303.635 103.069C303.333 104.129 302.901 105.124 302.337 106.052H301.532C301.774 105.661 301.994 105.218 302.193 104.724C302.395 104.23 302.569 103.703 302.715 103.143C302.861 102.583 302.974 102.01 303.053 101.423C303.133 100.836 303.173 100.258 303.173 99.688C303.173 98.9224 303.103 98.1501 302.964 97.3713C302.825 96.5924 302.631 95.8533 302.382 95.1539C302.137 94.4546 301.853 93.8447 301.532 93.3244H302.337C302.901 94.2557 303.333 95.2517 303.635 96.3123C303.936 97.3729 304.087 98.4982 304.087 99.688Z" fill="white"/>
<path d="M0 12.4988C0 5.87136 5.37258 0.498779 12 0.498779H159.313C162.082 0.498779 164.014 3.24471 163.078 5.85087L153.021 33.8509C152.451 35.4393 150.944 36.4988 149.257 36.4988H0V12.4988Z" fill="#09FE02"/>
<path d="M21.6245 24.965V13.3286H29.7381V15.6127H24.437V17.9991H29.3233V20.2888H24.437V22.6809H29.7381V24.965H21.6245ZM39.9654 16.2377L36.971 24.965H33.7892L30.8006 16.2377H33.7267L35.3347 22.2491H35.4256L37.0392 16.2377H39.9654ZM44.829 25.1297C43.9161 25.1297 43.1282 24.9498 42.4654 24.59C41.8063 24.2263 41.2987 23.7093 40.9426 23.0388C40.5904 22.3646 40.4142 21.5635 40.4142 20.6354C40.4142 19.7339 40.5923 18.946 40.9483 18.2718C41.3044 17.5938 41.8063 17.0672 42.454 16.6922C43.1017 16.3135 43.865 16.1241 44.7438 16.1241C45.365 16.1241 45.9332 16.2206 46.4483 16.4138C46.9635 16.607 47.4085 16.893 47.7835 17.2718C48.1585 17.6506 48.4502 18.1184 48.6585 18.6752C48.8669 19.2282 48.971 19.8627 48.971 20.5786V21.2718H41.3858V19.6581H46.3858C46.382 19.3627 46.312 19.0994 46.1756 18.8684C46.0392 18.6373 45.8517 18.4574 45.6131 18.3286C45.3782 18.196 45.1074 18.1297 44.8006 18.1297C44.49 18.1297 44.2116 18.1998 43.9654 18.34C43.7192 18.4763 43.5241 18.6638 43.3801 18.9025C43.2362 19.1373 43.1604 19.4044 43.1529 19.7036V21.3456C43.1529 21.7017 43.2229 22.0142 43.3631 22.2831C43.5032 22.5483 43.7021 22.7547 43.9597 22.9025C44.2173 23.0502 44.5241 23.1241 44.8801 23.1241C45.1264 23.1241 45.3498 23.09 45.5506 23.0218C45.7514 22.9536 45.9237 22.8532 46.0676 22.7206C46.2116 22.5881 46.3195 22.4252 46.3915 22.232L48.9426 22.3059C48.8366 22.8778 48.6036 23.376 48.2438 23.8002C47.8877 24.2206 47.4199 24.5483 46.8404 24.7831C46.2608 25.0142 45.5904 25.1297 44.829 25.1297ZM53.1685 19.9877V24.965H50.3901V16.2377H53.0321V17.84H53.1287C53.3219 17.3059 53.6514 16.8873 54.1174 16.5843C54.5833 16.2775 55.1382 16.1241 55.7821 16.1241C56.3958 16.1241 56.928 16.2623 57.3787 16.5388C57.8333 16.8116 58.1855 17.1941 58.4355 17.6866C58.6893 18.1752 58.8143 18.7472 58.8105 19.4025V24.965H56.0321V19.9479C56.0359 19.4631 55.9128 19.0843 55.6628 18.8116C55.4166 18.5388 55.0738 18.4025 54.6344 18.4025C54.3427 18.4025 54.0852 18.4669 53.8617 18.5956C53.642 18.7206 53.4715 18.9006 53.3503 19.1354C53.2329 19.3703 53.1723 19.6544 53.1685 19.9877ZM65.4568 16.2377V18.2831H59.9512V16.2377H65.4568ZM61.1046 14.1468H63.883V22.2206C63.883 22.3911 63.9095 22.5294 63.9625 22.6354C64.0193 22.7377 64.1008 22.8116 64.2068 22.857C64.3129 22.8987 64.4398 22.9195 64.5875 22.9195C64.6936 22.9195 64.8053 22.91 64.9228 22.8911C65.044 22.8684 65.1349 22.8494 65.1955 22.8343L65.6159 24.84C65.4834 24.8778 65.2959 24.9252 65.0534 24.982C64.8148 25.0388 64.5288 25.0748 64.1955 25.09C63.544 25.1203 62.9853 25.0445 62.5193 24.8627C62.0572 24.6771 61.7031 24.3892 61.4568 23.9991C61.2144 23.6089 61.097 23.1184 61.1046 22.5275V14.1468ZM74.6131 24.965H70.312V13.3286H74.6074C75.793 13.3286 76.8139 13.5616 77.6699 14.0275C78.5298 14.4896 79.1926 15.1563 79.6585 16.0275C80.1245 16.8949 80.3574 17.9328 80.3574 19.1411C80.3574 20.3532 80.1245 21.3949 79.6585 22.2661C79.1964 23.1373 78.5354 23.8059 77.6756 24.2718C76.8157 24.7339 75.7949 24.965 74.6131 24.965ZM73.1245 22.5672H74.5051C75.1567 22.5672 75.7078 22.4574 76.1585 22.2377C76.6131 22.0142 76.9559 21.6525 77.187 21.1525C77.4218 20.6487 77.5392 19.9782 77.5392 19.1411C77.5392 18.304 77.4218 17.6373 77.187 17.1411C76.9521 16.6411 76.6055 16.2813 76.1472 16.0616C75.6926 15.8381 75.132 15.7263 74.4654 15.7263H73.1245V22.5672ZM87.6301 21.1979V16.2377H90.4029V24.965H87.7551V23.34H87.6642C87.471 23.8741 87.1415 24.2983 86.6756 24.6127C86.2135 24.9233 85.6548 25.0786 84.9995 25.0786C84.4048 25.0786 83.882 24.9422 83.4313 24.6695C82.9805 24.3968 82.6301 24.0161 82.3801 23.5275C82.1301 23.035 82.0032 22.4593 81.9995 21.8002V16.2377H84.7779V21.2547C84.7817 21.7282 84.9067 22.1013 85.1529 22.3741C85.3991 22.6468 85.7343 22.7831 86.1585 22.7831C86.4351 22.7831 86.6832 22.7225 86.9029 22.6013C87.1264 22.4763 87.3025 22.2964 87.4313 22.0616C87.5639 21.8229 87.6301 21.535 87.6301 21.1979ZM92.1713 24.965V16.2377H94.8702V17.8286H94.9611C95.1202 17.2528 95.3797 16.8248 95.7395 16.5445C96.0994 16.2604 96.5179 16.1184 96.9952 16.1184C97.124 16.1184 97.2566 16.1278 97.3929 16.1468C97.5293 16.1619 97.6562 16.1866 97.7736 16.2206V18.6354C97.641 18.59 97.4668 18.554 97.2509 18.5275C97.0388 18.501 96.8494 18.4877 96.6827 18.4877C96.3531 18.4877 96.0558 18.5616 95.7906 18.7093C95.5293 18.8532 95.3228 19.0559 95.1713 19.3172C95.0236 19.5748 94.9497 19.8778 94.9497 20.2263V24.965H92.1713ZM101.038 25.1127C100.481 25.1127 99.9867 25.0199 99.5549 24.8343C99.1268 24.6449 98.7878 24.3608 98.5378 23.982C98.2916 23.5994 98.1685 23.1203 98.1685 22.5445C98.1685 22.0597 98.2537 21.6506 98.4242 21.3172C98.5946 20.9839 98.8295 20.7131 99.1287 20.5047C99.428 20.2964 99.7727 20.1392 100.163 20.0331C100.553 19.9233 100.97 19.8494 101.413 19.8116C101.909 19.7661 102.309 19.7188 102.612 19.6695C102.915 19.6165 103.134 19.5426 103.271 19.4479C103.411 19.3494 103.481 19.2112 103.481 19.0331V19.0047C103.481 18.7131 103.381 18.4877 103.18 18.3286C102.979 18.1695 102.708 18.09 102.367 18.09C102 18.09 101.704 18.1695 101.481 18.3286C101.258 18.4877 101.115 18.7074 101.055 18.9877L98.4924 18.8968C98.5681 18.3665 98.7632 17.893 99.0776 17.4763C99.3958 17.0559 99.8314 16.7263 100.384 16.4877C100.941 16.2453 101.61 16.1241 102.39 16.1241C102.947 16.1241 103.46 16.1903 103.93 16.3229C104.4 16.4517 104.809 16.6411 105.157 16.8911C105.506 17.1373 105.775 17.4403 105.964 17.8002C106.157 18.16 106.254 18.571 106.254 19.0331V24.965H103.64V23.7491H103.572C103.417 24.0445 103.218 24.2945 102.975 24.4991C102.737 24.7036 102.454 24.857 102.129 24.9593C101.807 25.0616 101.443 25.1127 101.038 25.1127ZM101.896 23.2945C102.195 23.2945 102.464 23.2339 102.703 23.1127C102.945 22.9915 103.138 22.8248 103.282 22.6127C103.426 22.3968 103.498 22.1468 103.498 21.8627V21.0331C103.418 21.0748 103.322 21.1127 103.208 21.1468C103.098 21.1809 102.977 21.2131 102.845 21.2434C102.712 21.2737 102.576 21.3002 102.436 21.3229C102.295 21.3456 102.161 21.3665 102.032 21.3854C101.771 21.4271 101.547 21.4915 101.362 21.5786C101.18 21.6657 101.04 21.7794 100.941 21.9195C100.847 22.0559 100.799 22.2188 100.799 22.4081C100.799 22.696 100.901 22.9157 101.106 23.0672C101.314 23.2188 101.578 23.2945 101.896 23.2945ZM112.879 16.2377V18.2831H107.373V16.2377H112.879ZM108.526 14.1468H111.305V22.2206C111.305 22.3911 111.331 22.5294 111.384 22.6354C111.441 22.7377 111.523 22.8116 111.629 22.857C111.735 22.8987 111.862 22.9195 112.009 22.9195C112.115 22.9195 112.227 22.91 112.345 22.8911C112.466 22.8684 112.557 22.8494 112.617 22.8343L113.038 24.84C112.905 24.8778 112.718 24.9252 112.475 24.982C112.237 25.0388 111.951 25.0748 111.617 25.09C110.966 25.1203 110.407 25.0445 109.941 24.8627C109.479 24.6771 109.125 24.3892 108.879 23.9991C108.636 23.6089 108.519 23.1184 108.526 22.5275V14.1468ZM114.296 24.965V16.2377H117.075V24.965H114.296ZM115.688 15.2206C115.298 15.2206 114.963 15.0919 114.683 14.8343C114.402 14.5729 114.262 14.2585 114.262 13.8911C114.262 13.5275 114.402 13.2169 114.683 12.9593C114.963 12.6979 115.298 12.5672 115.688 12.5672C116.082 12.5672 116.418 12.6979 116.694 12.9593C116.974 13.2169 117.115 13.5275 117.115 13.8911C117.115 14.2585 116.974 14.5729 116.694 14.8343C116.418 15.0919 116.082 15.2206 115.688 15.2206ZM122.917 25.1297C122 25.1297 121.213 24.9422 120.553 24.5672C119.898 24.1885 119.392 23.6619 119.036 22.9877C118.684 22.3097 118.508 21.5237 118.508 20.6297C118.508 19.732 118.684 18.946 119.036 18.2718C119.392 17.5938 119.898 17.0672 120.553 16.6922C121.213 16.3135 122 16.1241 122.917 16.1241C123.834 16.1241 124.62 16.3135 125.275 16.6922C125.934 17.0672 126.44 17.5938 126.792 18.2718C127.148 18.946 127.326 19.732 127.326 20.6297C127.326 21.5237 127.148 22.3097 126.792 22.9877C126.44 23.6619 125.934 24.1885 125.275 24.5672C124.62 24.9422 123.834 25.1297 122.917 25.1297ZM122.934 23.0331C123.267 23.0331 123.55 22.9309 123.781 22.7263C124.012 22.5218 124.188 22.2377 124.309 21.8741C124.434 21.5104 124.497 21.09 124.497 20.6127C124.497 20.1278 124.434 19.7036 124.309 19.34C124.188 18.9763 124.012 18.6922 123.781 18.4877C123.55 18.2831 123.267 18.1809 122.934 18.1809C122.589 18.1809 122.298 18.2831 122.059 18.4877C121.824 18.6922 121.644 18.9763 121.519 19.34C121.398 19.7036 121.338 20.1278 121.338 20.6127C121.338 21.09 121.398 21.5104 121.519 21.8741C121.644 22.2377 121.824 22.5218 122.059 22.7263C122.298 22.9309 122.589 23.0331 122.934 23.0331ZM131.528 19.9877V24.965H128.749V16.2377H131.392V17.84H131.488C131.681 17.3059 132.011 16.8873 132.477 16.5843C132.943 16.2775 133.498 16.1241 134.142 16.1241C134.755 16.1241 135.287 16.2623 135.738 16.5388C136.193 16.8116 136.545 17.1941 136.795 17.6866C137.049 18.1752 137.174 18.7472 137.17 19.4025V24.965H134.392V19.9479C134.395 19.4631 134.272 19.0843 134.022 18.8116C133.776 18.5388 133.433 18.4025 132.994 18.4025C132.702 18.4025 132.445 18.4669 132.221 18.5956C132.001 18.7206 131.831 18.9006 131.71 19.1354C131.592 19.3703 131.532 19.6544 131.528 19.9877Z" fill="black"/>
</svg>
