<svg width="137" height="37" viewBox="0 0 137 37" fill="none" xmlns="http://www.w3.org/2000/svg">
<path d="M0 12.6313C0 6.00393 5.37258 0.631348 12 0.631348H130.917C133.793 0.631348 135.729 3.57587 134.589 6.2165L122.504 34.2165C121.871 35.6822 120.428 36.6313 118.831 36.6313H0V12.6313Z" fill="#09FE02"/>
<path d="M30.6478 18.1215L32.6958 18.6975C32.0878 20.1589 31.2878 21.4015 30.2958 22.4255C29.3144 23.4495 28.1624 24.2975 26.8398 24.9695C25.5278 25.6415 24.0611 26.1749 22.4398 26.5695C22.3758 26.4095 22.2691 26.2122 22.1198 25.9775C21.9811 25.7535 21.8318 25.5295 21.6718 25.3055C21.5118 25.0815 21.3624 24.9002 21.2238 24.7615C22.8024 24.4522 24.2104 24.0202 25.4478 23.4655C26.6958 22.9109 27.7571 22.1962 28.6318 21.3215C29.5064 20.4362 30.1784 19.3695 30.6478 18.1215ZM25.4798 15.3535L27.4638 16.1055C27.0904 16.6069 26.6531 17.1029 26.1518 17.5935C25.6504 18.0842 25.1278 18.5429 24.5838 18.9695C24.0398 19.3962 23.5171 19.7642 23.0158 20.0735C22.8984 19.9349 22.7438 19.7695 22.5518 19.5775C22.3598 19.3855 22.1624 19.1989 21.9598 19.0175C21.7571 18.8362 21.5758 18.6869 21.4158 18.5695C21.9278 18.3242 22.4344 18.0309 22.9358 17.6895C23.4371 17.3482 23.9064 16.9749 24.3438 16.5695C24.7918 16.1642 25.1704 15.7589 25.4798 15.3535ZM26.9198 18.2015C27.6344 19.9615 28.7598 21.3909 30.2958 22.4895C31.8424 23.5775 33.8424 24.3189 36.2958 24.7135C36.1571 24.8522 36.0078 25.0282 35.8478 25.2415C35.6878 25.4655 35.5331 25.6895 35.3838 25.9135C35.2451 26.1482 35.1331 26.3562 35.0478 26.5375C33.3091 26.2069 31.8051 25.7055 30.5358 25.0335C29.2771 24.3509 28.1998 23.4869 27.3038 22.4415C26.4184 21.3962 25.6771 20.1642 25.0798 18.7455L26.9198 18.2015ZM21.6558 13.3535H35.8478V15.2255H21.6558V13.3535ZM27.7198 11.4815H29.7038V14.5855H27.7198V11.4815ZM30.2798 16.3455L31.8478 15.1935C32.3171 15.5029 32.8184 15.8602 33.3518 16.2655C33.8958 16.6602 34.4078 17.0602 34.8878 17.4655C35.3784 17.8709 35.7784 18.2495 36.0878 18.6015L34.3598 19.9135C34.0931 19.5722 33.7304 19.1935 33.2718 18.7775C32.8131 18.3509 32.3171 17.9295 31.7838 17.5135C31.2611 17.0869 30.7598 16.6975 30.2798 16.3455ZM41.4318 16.1535V17.1615H48.1678V16.1535H41.4318ZM41.4318 13.7215V14.7135H48.1678V13.7215H41.4318ZM39.5598 12.1855H50.1358V18.6975H39.5598V12.1855ZM40.5358 19.6575H49.9118V21.3375H40.5358V19.6575ZM49.4638 19.6575H51.4158C51.4158 19.6575 51.4104 19.7055 51.3998 19.8015C51.3998 19.8869 51.3944 19.9935 51.3838 20.1215C51.3838 20.2389 51.3731 20.3402 51.3518 20.4255C51.2451 21.5882 51.1278 22.5429 50.9998 23.2895C50.8718 24.0255 50.7384 24.6015 50.5998 25.0175C50.4611 25.4335 50.3011 25.7322 50.1198 25.9135C49.9278 26.1269 49.7251 26.2762 49.5118 26.3615C49.2984 26.4469 49.0638 26.5002 48.8078 26.5215C48.5838 26.5535 48.2904 26.5695 47.9278 26.5695C47.5758 26.5695 47.2024 26.5589 46.8078 26.5375C46.7971 26.3029 46.7438 26.0309 46.6478 25.7215C46.5624 25.4122 46.4504 25.1455 46.3118 24.9215C46.6424 24.9535 46.9518 24.9749 47.2398 24.9855C47.5384 24.9855 47.7571 24.9855 47.8958 24.9855C48.0344 24.9855 48.1464 24.9749 48.2318 24.9535C48.3171 24.9322 48.4024 24.8789 48.4878 24.7935C48.6051 24.6762 48.7224 24.4415 48.8398 24.0895C48.9678 23.7269 49.0798 23.2095 49.1758 22.5375C49.2824 21.8655 49.3784 20.9962 49.4638 19.9295V19.6575ZM41.5278 17.8495L43.3678 18.4415C42.9838 19.1029 42.5251 19.7322 41.9918 20.3295C41.4691 20.9269 40.9144 21.4815 40.3278 21.9935C39.7411 22.4949 39.1491 22.9322 38.5518 23.3055C38.4451 23.1775 38.3011 23.0282 38.1198 22.8575C37.9491 22.6762 37.7731 22.5002 37.5918 22.3295C37.4104 22.1589 37.2451 22.0255 37.0958 21.9295C37.9918 21.4709 38.8344 20.8842 39.6238 20.1695C40.4131 19.4442 41.0478 18.6709 41.5278 17.8495ZM43.0958 20.2495L44.9038 20.8095C44.5198 21.5455 44.0504 22.2495 43.4958 22.9215C42.9518 23.5829 42.3651 24.1909 41.7358 24.7455C41.1064 25.3002 40.4611 25.7802 39.7998 26.1855C39.7038 26.0575 39.5704 25.9029 39.3998 25.7215C39.2291 25.5509 39.0478 25.3802 38.8558 25.2095C38.6744 25.0389 38.5144 24.9055 38.3758 24.8095C39.3678 24.3082 40.2798 23.6629 41.1118 22.8735C41.9544 22.0735 42.6158 21.1989 43.0958 20.2495ZM46.3598 20.3615L48.1838 20.7935C47.7571 21.9989 47.1971 23.1135 46.5038 24.1375C45.8211 25.1509 45.0798 25.9882 44.2798 26.6495C44.1731 26.5429 44.0238 26.4149 43.8318 26.2655C43.6504 26.1162 43.4638 25.9669 43.2718 25.8175C43.0798 25.6682 42.9091 25.5509 42.7598 25.4655C43.5704 24.9002 44.2851 24.1695 44.9038 23.2735C45.5331 22.3669 46.0184 21.3962 46.3598 20.3615ZM60.8238 11.4975H62.5358V18.2815C62.5358 19.0815 62.4984 19.8709 62.4238 20.6495C62.3598 21.4175 62.2211 22.1589 62.0078 22.8735C61.7944 23.5775 61.4798 24.2389 61.0638 24.8575C60.6478 25.4762 60.0878 26.0362 59.3838 26.5375C59.2878 26.4095 59.1544 26.2655 58.9838 26.1055C58.8238 25.9455 58.6584 25.7855 58.4878 25.6255C58.3171 25.4762 58.1571 25.3535 58.0078 25.2575C58.6371 24.8309 59.1384 24.3562 59.5118 23.8335C59.8851 23.3109 60.1624 22.7509 60.3438 22.1535C60.5358 21.5562 60.6638 20.9322 60.7278 20.2815C60.7918 19.6309 60.8238 18.9642 60.8238 18.2815V11.4975ZM63.6558 11.4975H65.4638V26.5215H63.6558V11.4975ZM58.4558 14.1215H61.5598V15.8495H58.4558V14.1215ZM64.5998 14.1215H67.9918V15.8495H64.5998V14.1215ZM64.7278 17.4975H67.7998V19.1775H64.7278V17.4975ZM64.5838 20.9375H68.2478V22.6815H64.5838V20.9375ZM58.5838 17.4975H61.6238V19.1775H58.5838V17.4975ZM57.6078 21.6255C58.0558 21.5082 58.5838 21.3589 59.1918 21.1775C59.7998 20.9855 60.4238 20.7882 61.0638 20.5855L61.3518 22.0895C60.8398 22.2922 60.3224 22.5002 59.7998 22.7135C59.2878 22.9162 58.7971 23.1082 58.3278 23.2895L57.6078 21.6255ZM53.0798 19.5455C53.7198 19.4069 54.4824 19.2202 55.3678 18.9855C56.2638 18.7509 57.1651 18.5055 58.0718 18.2495L58.3118 19.9775C57.4904 20.2229 56.6584 20.4682 55.8158 20.7135C54.9838 20.9589 54.2104 21.1829 53.4958 21.3855L53.0798 19.5455ZM53.3358 14.5375H58.2318V16.2975H53.3358V14.5375ZM55.0158 11.5135H56.7758V24.5055C56.7758 24.9429 56.7278 25.2895 56.6318 25.5455C56.5464 25.8122 56.3811 26.0202 56.1358 26.1695C55.9011 26.3189 55.6024 26.4202 55.2398 26.4735C54.8878 26.5269 54.4451 26.5482 53.9118 26.5375C53.8904 26.3029 53.8318 26.0095 53.7358 25.6575C53.6398 25.3162 53.5331 25.0175 53.4158 24.7615C53.7144 24.7722 53.9864 24.7829 54.2318 24.7935C54.4878 24.7935 54.6638 24.7882 54.7598 24.7775C54.8558 24.7775 54.9198 24.7615 54.9518 24.7295C54.9944 24.6869 55.0158 24.6122 55.0158 24.5055V11.5135ZM75.8958 12.4095H83.7038V14.2495H75.8958V12.4095ZM79.9438 17.4015H81.9118V24.3135C81.9118 24.8149 81.8478 25.2095 81.7198 25.4975C81.6024 25.7962 81.3678 26.0202 81.0158 26.1695C80.6638 26.3082 80.2318 26.3935 79.7198 26.4255C79.2078 26.4682 78.5944 26.4895 77.8798 26.4895C77.8371 26.2122 77.7571 25.8815 77.6398 25.4975C77.5331 25.1242 77.4158 24.8042 77.2878 24.5375C77.5971 24.5482 77.9064 24.5589 78.2158 24.5695C78.5251 24.5802 78.8024 24.5855 79.0478 24.5855C79.2931 24.5749 79.4638 24.5695 79.5598 24.5695C79.7091 24.5695 79.8104 24.5482 79.8638 24.5055C79.9171 24.4522 79.9438 24.3722 79.9438 24.2655V17.4015ZM75.2078 16.8575H84.1198V18.6815H75.2078V16.8575ZM71.6078 18.7455L73.2878 17.0495L73.5278 17.1455V26.5535H71.6078V18.7455ZM73.4158 14.9855L75.2398 15.6895C74.8238 16.3935 74.3384 17.1029 73.7838 17.8175C73.2398 18.5215 72.6638 19.1882 72.0558 19.8175C71.4584 20.4469 70.8718 20.9962 70.2958 21.4655C70.2104 21.3269 70.0878 21.1562 69.9278 20.9535C69.7678 20.7402 69.6024 20.5269 69.4318 20.3135C69.2718 20.1002 69.1224 19.9295 68.9838 19.8015C69.5384 19.4175 70.0878 18.9695 70.6318 18.4575C71.1758 17.9349 71.6878 17.3802 72.1678 16.7935C72.6478 16.1962 73.0638 15.5935 73.4158 14.9855ZM72.8078 11.4975L74.6638 12.2655C74.2691 12.7669 73.8264 13.2789 73.3358 13.8015C72.8451 14.3135 72.3331 14.8042 71.7998 15.2735C71.2664 15.7429 70.7438 16.1535 70.2318 16.5055C70.1571 16.3562 70.0558 16.1855 69.9278 15.9935C69.7998 15.7909 69.6664 15.5935 69.5278 15.4015C69.3998 15.2095 69.2771 15.0495 69.1598 14.9215C69.6078 14.6442 70.0611 14.3082 70.5198 13.9135C70.9784 13.5189 71.4104 13.1135 71.8158 12.6975C72.2211 12.2709 72.5518 11.8709 72.8078 11.4975ZM91.1438 12.9055H99.8798V14.4255H91.1438V12.9055ZM94.4718 11.4975H96.3438V13.6575H94.4718V11.4975ZM94.4718 17.8335H96.3438V19.8655H94.4718V17.8335ZM91.1278 19.1775H99.8798V20.7615H91.1278V19.1775ZM92.4238 14.5375L94.0398 14.2015C94.1571 14.4682 94.2638 14.7669 94.3598 15.0975C94.4558 15.4282 94.5198 15.7109 94.5518 15.9455L92.8558 16.3295C92.8344 16.0949 92.7811 15.8069 92.6958 15.4655C92.6211 15.1242 92.5304 14.8149 92.4238 14.5375ZM96.7918 14.0415L98.6798 14.3135C98.5304 14.6975 98.3864 15.0709 98.2478 15.4335C98.1091 15.7855 97.9811 16.0895 97.8638 16.3455L96.2638 16.0735C96.3278 15.8815 96.3918 15.6682 96.4558 15.4335C96.5304 15.1882 96.5944 14.9482 96.6478 14.7135C96.7118 14.4682 96.7598 14.2442 96.7918 14.0415ZM90.9678 15.9935H100.04V18.6655H98.2798V17.4815H92.6478V18.6975H90.9678V15.9935ZM93.7518 21.6415H97.9438V23.2095H93.7518V21.6415ZM97.2878 21.6415H99.1438C99.1438 21.6415 99.1384 21.7269 99.1278 21.8975C99.1278 22.0575 99.1171 22.1909 99.0958 22.2975C99.0424 23.0442 98.9838 23.6629 98.9198 24.1535C98.8664 24.6442 98.7918 25.0335 98.6958 25.3215C98.6104 25.6095 98.5038 25.8229 98.3758 25.9615C98.2158 26.1429 98.0398 26.2709 97.8478 26.3455C97.6664 26.4202 97.4584 26.4682 97.2238 26.4895C97.0318 26.5109 96.7651 26.5215 96.4238 26.5215C96.0931 26.5322 95.7464 26.5322 95.3838 26.5215C95.3731 26.2762 95.3198 25.9989 95.2238 25.6895C95.1278 25.3909 95.0211 25.1349 94.9038 24.9215C95.2024 24.9429 95.4798 24.9589 95.7358 24.9695C95.9918 24.9802 96.1838 24.9855 96.3118 24.9855C96.5358 24.9855 96.7011 24.9375 96.8078 24.8415C96.8824 24.7562 96.9464 24.6069 96.9998 24.3935C97.0638 24.1802 97.1171 23.8709 97.1598 23.4655C97.2131 23.0602 97.2558 22.5322 97.2878 21.8815V21.6415ZM85.4638 14.8255H90.7598V16.6015H85.4638V14.8255ZM87.4158 11.4975H89.1438V26.5215H87.4158V11.4975ZM87.3838 16.0415L88.4398 16.3935C88.3331 17.0335 88.1944 17.6949 88.0238 18.3775C87.8531 19.0495 87.6611 19.7162 87.4478 20.3775C87.2344 21.0282 86.9998 21.6362 86.7438 22.2015C86.4984 22.7669 86.2318 23.2522 85.9438 23.6575C85.8584 23.4122 85.7251 23.1242 85.5438 22.7935C85.3731 22.4629 85.2184 22.1909 85.0798 21.9775C85.3358 21.6255 85.5811 21.2149 85.8158 20.7455C86.0504 20.2762 86.2691 19.7749 86.4718 19.2415C86.6744 18.7082 86.8504 18.1695 86.9998 17.6255C87.1598 17.0709 87.2878 16.5429 87.3838 16.0415ZM89.0638 17.2575C89.1598 17.3749 89.3038 17.5775 89.4958 17.8655C89.6878 18.1429 89.8904 18.4469 90.1038 18.7775C90.3278 19.1082 90.5304 19.4175 90.7118 19.7055C90.8931 19.9829 91.0158 20.1802 91.0798 20.2975L90.0878 21.6895C89.9918 21.4442 89.8638 21.1562 89.7038 20.8255C89.5438 20.4842 89.3731 20.1375 89.1918 19.7855C89.0211 19.4335 88.8504 19.1029 88.6798 18.7935C88.5198 18.4842 88.3811 18.2282 88.2638 18.0255L89.0638 17.2575ZM93.4958 19.8335H95.3198C95.2771 20.6229 95.1971 21.3642 95.0798 22.0575C94.9731 22.7402 94.7811 23.3642 94.5038 23.9295C94.2371 24.4842 93.8584 24.9802 93.3678 25.4175C92.8771 25.8655 92.2318 26.2549 91.4318 26.5855C91.3464 26.3509 91.1971 26.0895 90.9838 25.8015C90.7704 25.5242 90.5678 25.3002 90.3758 25.1295C91.0478 24.8842 91.5811 24.5909 91.9758 24.2495C92.3811 23.9082 92.6851 23.5135 92.8878 23.0655C93.0904 22.6175 93.2344 22.1269 93.3198 21.5935C93.4051 21.0602 93.4638 20.4735 93.4958 19.8335Z" fill="black"/>
</svg>
