<svg width="197" height="37" viewBox="0 0 197 37" fill="none" xmlns="http://www.w3.org/2000/svg">
<path d="M0 12.7701C0 6.14272 5.37258 0.770142 12 0.770142H190.917C193.793 0.770142 195.729 3.71467 194.589 6.35529L182.504 34.3553C181.871 35.821 180.428 36.7701 178.831 36.7701H0V12.7701Z" fill="#09FE02"/>
<path d="M21.2438 15.8841V13.6H31.079V15.8841H27.5506V25.2363H24.7779V15.8841H21.2438ZM31.5463 25.2363V16.5091H34.2452V18.1H34.3361C34.4952 17.5242 34.7547 17.0962 35.1145 16.8159C35.4744 16.5318 35.8929 16.3897 36.3702 16.3897C36.499 16.3897 36.6316 16.3992 36.7679 16.4181C36.9043 16.4333 37.0312 16.4579 37.1486 16.492V18.9068C37.016 18.8613 36.8418 18.8253 36.6259 18.7988C36.4138 18.7723 36.2244 18.7591 36.0577 18.7591C35.7281 18.7591 35.4308 18.8329 35.1656 18.9806C34.9043 19.1246 34.6978 19.3272 34.5463 19.5886C34.3986 19.8462 34.3247 20.1492 34.3247 20.4977V25.2363H31.5463ZM40.4128 25.3841C39.856 25.3841 39.3617 25.2913 38.9299 25.1056C38.5018 24.9163 38.1628 24.6322 37.9128 24.2534C37.6666 23.8708 37.5435 23.3916 37.5435 22.8159C37.5435 22.331 37.6287 21.9219 37.7992 21.5886C37.9696 21.2553 38.2045 20.9844 38.5037 20.7761C38.803 20.5678 39.1477 20.4106 39.5378 20.3045C39.928 20.1947 40.3446 20.1208 40.7878 20.0829C41.284 20.0375 41.6836 19.9901 41.9867 19.9409C42.2897 19.8878 42.5094 19.814 42.6458 19.7193C42.7859 19.6208 42.856 19.4825 42.856 19.3045V19.2761C42.856 18.9844 42.7556 18.7591 42.5549 18.6C42.3541 18.4409 42.0833 18.3613 41.7424 18.3613C41.3749 18.3613 41.0795 18.4409 40.856 18.6C40.6325 18.7591 40.4905 18.9788 40.4299 19.2591L37.8674 19.1681C37.9431 18.6378 38.1382 18.1644 38.4526 17.7477C38.7708 17.3272 39.2064 16.9977 39.7594 16.7591C40.3162 16.5166 40.9848 16.3954 41.7651 16.3954C42.3219 16.3954 42.8352 16.4617 43.3049 16.5943C43.7746 16.7231 44.1836 16.9125 44.5321 17.1625C44.8806 17.4087 45.1496 17.7117 45.3389 18.0716C45.5321 18.4314 45.6287 18.8424 45.6287 19.3045V25.2363H43.0151V24.0204H42.9469C42.7916 24.3159 42.5927 24.5659 42.3503 24.7704C42.1117 24.975 41.8295 25.1284 41.5037 25.2306C41.1817 25.3329 40.8181 25.3841 40.4128 25.3841ZM41.2708 23.5659C41.57 23.5659 41.8389 23.5053 42.0776 23.3841C42.32 23.2628 42.5132 23.0962 42.6571 22.8841C42.8011 22.6681 42.873 22.4181 42.873 22.1341V21.3045C42.7935 21.3462 42.6969 21.3841 42.5833 21.4181C42.4734 21.4522 42.3522 21.4844 42.2196 21.5147C42.0871 21.545 41.9507 21.5716 41.8105 21.5943C41.6704 21.617 41.5359 21.6378 41.4071 21.6568C41.1458 21.6984 40.9223 21.7628 40.7367 21.85C40.5549 21.9371 40.4147 22.0507 40.3162 22.1909C40.2215 22.3272 40.1742 22.4901 40.1742 22.6795C40.1742 22.9674 40.2764 23.1871 40.481 23.3386C40.6893 23.4901 40.9526 23.5659 41.2708 23.5659ZM50.5151 25.3613C49.8711 25.3613 49.2859 25.1947 48.7594 24.8613C48.2329 24.528 47.8124 24.028 47.498 23.3613C47.1836 22.6947 47.0264 21.867 47.0264 20.8784C47.0264 19.8519 47.1893 19.0072 47.5151 18.3443C47.8408 17.6814 48.267 17.1909 48.7935 16.8727C49.3238 16.5545 49.8939 16.3954 50.5037 16.3954C50.9621 16.3954 51.3541 16.475 51.6799 16.6341C52.0056 16.7894 52.2746 16.9901 52.4867 17.2363C52.6988 17.4825 52.8598 17.7382 52.9696 18.0034H53.0264V13.6H55.8049V25.2363H53.0549V23.8216H52.9696C52.8522 24.0905 52.6855 24.3424 52.4696 24.5772C52.2537 24.8121 51.9829 25.0015 51.6571 25.1454C51.3352 25.2894 50.9545 25.3613 50.5151 25.3613ZM51.481 23.1966C51.8181 23.1966 52.106 23.1019 52.3446 22.9125C52.5833 22.7193 52.767 22.4484 52.8958 22.1C53.0246 21.7515 53.0889 21.3424 53.0889 20.8727C53.0889 20.3954 53.0246 19.9844 52.8958 19.6397C52.7708 19.295 52.5871 19.0299 52.3446 18.8443C52.106 18.6587 51.8181 18.5659 51.481 18.5659C51.1363 18.5659 50.8446 18.6606 50.606 18.85C50.3674 19.0394 50.1855 19.3064 50.0605 19.6511C49.9393 19.9958 49.8787 20.403 49.8787 20.8727C49.8787 21.3424 49.9412 21.7515 50.0662 22.1C50.1912 22.4484 50.3711 22.7193 50.606 22.9125C50.8446 23.1019 51.1363 23.1966 51.481 23.1966ZM57.562 25.2363V16.5091H60.3404V25.2363H57.562ZM58.954 15.492C58.5639 15.492 58.2286 15.3632 57.9483 15.1056C57.668 14.8443 57.5279 14.5299 57.5279 14.1625C57.5279 13.7988 57.668 13.4882 57.9483 13.2306C58.2286 12.9693 58.5639 12.8386 58.954 12.8386C59.3479 12.8386 59.6832 12.9693 59.9597 13.2306C60.24 13.4882 60.3801 13.7988 60.3801 14.1625C60.3801 14.5299 60.24 14.8443 59.9597 15.1056C59.6832 15.3632 59.3479 15.492 58.954 15.492ZM64.8872 20.2591V25.2363H62.1088V16.5091H64.7509V18.1113H64.8475C65.0406 17.5772 65.3702 17.1587 65.8361 16.8556C66.302 16.5488 66.8569 16.3954 67.5009 16.3954C68.1145 16.3954 68.6467 16.5337 69.0975 16.8102C69.552 17.0829 69.9043 17.4655 70.1543 17.9579C70.4081 18.4466 70.5331 19.0185 70.5293 19.6738V25.2363H67.7509V20.2193C67.7547 19.7344 67.6316 19.3556 67.3816 19.0829C67.1353 18.8102 66.7925 18.6738 66.3531 18.6738C66.0615 18.6738 65.8039 18.7382 65.5804 18.867C65.3607 18.992 65.1903 19.1719 65.0691 19.4068C64.9516 19.6416 64.891 19.9257 64.8872 20.2591ZM76.3176 28.6909C75.4881 28.6909 74.7779 28.5753 74.187 28.3443C73.596 28.1132 73.132 27.7969 72.7949 27.3954C72.4578 26.9939 72.2551 26.5394 72.187 26.0318L74.8176 25.8841C74.8669 26.0621 74.9578 26.2174 75.0904 26.35C75.2267 26.4825 75.4029 26.5848 75.6188 26.6568C75.8385 26.7288 76.096 26.7647 76.3915 26.7647C76.8574 26.7647 77.2419 26.6511 77.5449 26.4238C77.8517 26.2003 78.0051 25.8083 78.0051 25.2477V23.7136H77.9085C77.7987 23.9825 77.632 24.2231 77.4085 24.4352C77.1851 24.6473 76.9067 24.814 76.5733 24.9352C76.2438 25.0564 75.865 25.117 75.437 25.117C74.8006 25.117 74.2173 24.9693 73.687 24.6738C73.1604 24.3746 72.7381 23.9125 72.4199 23.2875C72.1055 22.6587 71.9483 21.85 71.9483 20.8613C71.9483 19.8424 72.1112 19.0034 72.437 18.3443C72.7627 17.6814 73.1889 17.1909 73.7154 16.8727C74.2457 16.5545 74.8157 16.3954 75.4256 16.3954C75.8839 16.3954 76.276 16.475 76.6017 16.6341C76.9313 16.7894 77.2021 16.9901 77.4142 17.2363C77.6264 17.4825 77.7873 17.7382 77.8972 18.0034H77.9767V16.5091H80.7438V25.2704C80.7438 26.0091 80.5582 26.6322 80.187 27.1397C79.8157 27.6473 79.2968 28.0318 78.6301 28.2931C77.9635 28.5583 77.1926 28.6909 76.3176 28.6909ZM76.4029 23.0943C76.74 23.0943 77.0279 23.0053 77.2665 22.8272C77.5051 22.6492 77.6889 22.3935 77.8176 22.0602C77.9464 21.7269 78.0108 21.3272 78.0108 20.8613C78.0108 20.3878 77.9464 19.9806 77.8176 19.6397C77.6926 19.295 77.5089 19.0299 77.2665 18.8443C77.0279 18.6587 76.74 18.5659 76.4029 18.5659C76.0582 18.5659 75.7665 18.6606 75.5279 18.85C75.2892 19.0394 75.1074 19.3064 74.9824 19.6511C74.8612 19.992 74.8006 20.3954 74.8006 20.8613C74.8006 21.3272 74.8631 21.7269 74.9881 22.0602C75.1131 22.3935 75.293 22.6492 75.5279 22.8272C75.7665 23.0053 76.0582 23.0943 76.4029 23.0943ZM85.9526 25.2363V13.6H90.7594C91.6306 13.6 92.3825 13.7572 93.0151 14.0716C93.6514 14.3822 94.142 14.8291 94.4867 15.4125C94.8314 15.992 95.0037 16.6795 95.0037 17.475C95.0037 18.2818 94.8276 18.9674 94.4753 19.5318C94.123 20.0924 93.623 20.5204 92.9753 20.8159C92.3276 21.1075 91.5605 21.2534 90.6742 21.2534H87.6344V19.0375H90.1514C90.5757 19.0375 90.9299 18.9825 91.2139 18.8727C91.5018 18.7591 91.7196 18.5886 91.8674 18.3613C92.0151 18.1303 92.0889 17.8348 92.0889 17.475C92.0889 17.1151 92.0151 16.8178 91.8674 16.5829C91.7196 16.3443 91.5018 16.1663 91.2139 16.0488C90.9261 15.9276 90.5719 15.867 90.1514 15.867H88.7651V25.2363H85.9526ZM92.5037 19.9181L95.4014 25.2363H92.3333L89.4924 19.9181H92.5037ZM99.0066 25.3841C98.4497 25.3841 97.9554 25.2913 97.5236 25.1056C97.0956 24.9163 96.7566 24.6322 96.5066 24.2534C96.2603 23.8708 96.1372 23.3916 96.1372 22.8159C96.1372 22.331 96.2225 21.9219 96.3929 21.5886C96.5634 21.2553 96.7982 20.9844 97.0975 20.7761C97.3967 20.5678 97.7414 20.4106 98.1316 20.3045C98.5217 20.1947 98.9384 20.1208 99.3816 20.0829C99.8778 20.0375 100.277 19.9901 100.58 19.9409C100.883 19.8878 101.103 19.814 101.24 19.7193C101.38 19.6208 101.45 19.4825 101.45 19.3045V19.2761C101.45 18.9844 101.349 18.7591 101.149 18.6C100.948 18.4409 100.677 18.3613 100.336 18.3613C99.9687 18.3613 99.6732 18.4409 99.4497 18.6C99.2263 18.7591 99.0842 18.9788 99.0236 19.2591L96.4611 19.1681C96.5369 18.6378 96.7319 18.1644 97.0463 17.7477C97.3645 17.3272 97.8001 16.9977 98.3531 16.7591C98.91 16.5166 99.5785 16.3954 100.359 16.3954C100.916 16.3954 101.429 16.4617 101.899 16.5943C102.368 16.7231 102.777 16.9125 103.126 17.1625C103.474 17.4087 103.743 17.7117 103.933 18.0716C104.126 18.4314 104.222 18.8424 104.222 19.3045V25.2363H101.609V24.0204H101.541C101.385 24.3159 101.186 24.5659 100.944 24.7704C100.705 24.975 100.423 25.1284 100.097 25.2306C99.7755 25.3329 99.4119 25.3841 99.0066 25.3841ZM99.8645 23.5659C100.164 23.5659 100.433 23.5053 100.671 23.3841C100.914 23.2628 101.107 23.0962 101.251 22.8841C101.395 22.6681 101.467 22.4181 101.467 22.1341V21.3045C101.387 21.3462 101.291 21.3841 101.177 21.4181C101.067 21.4522 100.946 21.4844 100.813 21.5147C100.681 21.545 100.544 21.5716 100.404 21.5943C100.264 21.617 100.13 21.6378 100.001 21.6568C99.7395 21.6984 99.516 21.7628 99.3304 21.85C99.1486 21.9371 99.0085 22.0507 98.91 22.1909C98.8153 22.3272 98.7679 22.4901 98.7679 22.6795C98.7679 22.9674 98.8702 23.1871 99.0747 23.3386C99.2831 23.4901 99.5463 23.5659 99.8645 23.5659ZM108.7 20.2591V25.2363H105.921V16.5091H108.563V18.1113H108.66C108.853 17.5772 109.183 17.1587 109.649 16.8556C110.115 16.5488 110.669 16.3954 111.313 16.3954C111.927 16.3954 112.459 16.5337 112.91 16.8102C113.365 17.0829 113.717 17.4655 113.967 17.9579C114.221 18.4466 114.346 19.0185 114.342 19.6738V25.2363H111.563V20.2193C111.567 19.7344 111.444 19.3556 111.194 19.0829C110.948 18.8102 110.605 18.6738 110.166 18.6738C109.874 18.6738 109.616 18.7382 109.393 18.867C109.173 18.992 109.003 19.1719 108.882 19.4068C108.764 19.6416 108.704 19.9257 108.7 20.2591ZM118.568 22.9466L118.579 19.6341H118.965L121.42 16.5091H124.568L120.92 20.9863H120.187L118.568 22.9466ZM116.062 25.2363V13.6H118.84V25.2363H116.062ZM121.482 25.2363L119.198 21.6113L121.028 19.6397L124.693 25.2363H121.482ZM125.562 25.2363V16.5091H128.34V25.2363H125.562ZM126.954 15.492C126.564 15.492 126.229 15.3632 125.948 15.1056C125.668 14.8443 125.528 14.5299 125.528 14.1625C125.528 13.7988 125.668 13.4882 125.948 13.2306C126.229 12.9693 126.564 12.8386 126.954 12.8386C127.348 12.8386 127.683 12.9693 127.96 13.2306C128.24 13.4882 128.38 13.7988 128.38 14.1625C128.38 14.5299 128.24 14.8443 127.96 15.1056C127.683 15.3632 127.348 15.492 126.954 15.492ZM132.887 20.2591V25.2363H130.109V16.5091H132.751V18.1113H132.847C133.041 17.5772 133.37 17.1587 133.836 16.8556C134.302 16.5488 134.857 16.3954 135.501 16.3954C136.115 16.3954 136.647 16.5337 137.097 16.8102C137.552 17.0829 137.904 17.4655 138.154 17.9579C138.408 18.4466 138.533 19.0185 138.529 19.6738V25.2363H135.751V20.2193C135.755 19.7344 135.632 19.3556 135.382 19.0829C135.135 18.8102 134.793 18.6738 134.353 18.6738C134.061 18.6738 133.804 18.7382 133.58 18.867C133.361 18.992 133.19 19.1719 133.069 19.4068C132.952 19.6416 132.891 19.9257 132.887 20.2591ZM144.318 28.6909C143.488 28.6909 142.778 28.5753 142.187 28.3443C141.596 28.1132 141.132 27.7969 140.795 27.3954C140.458 26.9939 140.255 26.5394 140.187 26.0318L142.818 25.8841C142.867 26.0621 142.958 26.2174 143.09 26.35C143.227 26.4825 143.403 26.5848 143.619 26.6568C143.838 26.7288 144.096 26.7647 144.392 26.7647C144.857 26.7647 145.242 26.6511 145.545 26.4238C145.852 26.2003 146.005 25.8083 146.005 25.2477V23.7136H145.909C145.799 23.9825 145.632 24.2231 145.409 24.4352C145.185 24.6473 144.907 24.814 144.573 24.9352C144.244 25.0564 143.865 25.117 143.437 25.117C142.801 25.117 142.217 24.9693 141.687 24.6738C141.16 24.3746 140.738 23.9125 140.42 23.2875C140.106 22.6587 139.948 21.85 139.948 20.8613C139.948 19.8424 140.111 19.0034 140.437 18.3443C140.763 17.6814 141.189 17.1909 141.715 16.8727C142.246 16.5545 142.816 16.3954 143.426 16.3954C143.884 16.3954 144.276 16.475 144.602 16.6341C144.931 16.7894 145.202 16.9901 145.414 17.2363C145.626 17.4825 145.787 17.7382 145.897 18.0034H145.977V16.5091H148.744V25.2704C148.744 26.0091 148.558 26.6322 148.187 27.1397C147.816 27.6473 147.297 28.0318 146.63 28.2931C145.963 28.5583 145.193 28.6909 144.318 28.6909ZM144.403 23.0943C144.74 23.0943 145.028 23.0053 145.267 22.8272C145.505 22.6492 145.689 22.3935 145.818 22.0602C145.946 21.7269 146.011 21.3272 146.011 20.8613C146.011 20.3878 145.946 19.9806 145.818 19.6397C145.693 19.295 145.509 19.0299 145.267 18.8443C145.028 18.6587 144.74 18.5659 144.403 18.5659C144.058 18.5659 143.767 18.6606 143.528 18.85C143.289 19.0394 143.107 19.3064 142.982 19.6511C142.861 19.992 142.801 20.3954 142.801 20.8613C142.801 21.3272 142.863 21.7269 142.988 22.0602C143.113 22.3935 143.293 22.6492 143.528 22.8272C143.767 23.0053 144.058 23.0943 144.403 23.0943ZM158.134 19.1738L155.583 19.242C155.557 19.0602 155.485 18.8992 155.367 18.7591C155.25 18.6151 155.097 18.5034 154.907 18.4238C154.722 18.3405 154.506 18.2988 154.259 18.2988C153.937 18.2988 153.663 18.3632 153.436 18.492C153.212 18.6208 153.102 18.795 153.106 19.0147C153.102 19.1852 153.17 19.3329 153.311 19.4579C153.454 19.5829 153.71 19.6833 154.078 19.7591L155.759 20.0772C156.631 20.2439 157.278 20.5204 157.703 20.9068C158.131 21.2931 158.347 21.8045 158.35 22.4409C158.347 23.0394 158.168 23.5602 157.816 24.0034C157.468 24.4466 156.99 24.7913 156.384 25.0375C155.778 25.2799 155.085 25.4011 154.305 25.4011C153.059 25.4011 152.076 25.1454 151.356 24.6341C150.64 24.1189 150.231 23.4295 150.129 22.5659L152.873 22.4977C152.934 22.8159 153.091 23.0583 153.345 23.225C153.598 23.3916 153.922 23.475 154.316 23.475C154.672 23.475 154.962 23.4087 155.186 23.2761C155.409 23.1435 155.523 22.9674 155.526 22.7477C155.523 22.5507 155.436 22.3935 155.265 22.2761C155.095 22.1549 154.828 22.0602 154.464 21.992L152.941 21.7022C152.066 21.5431 151.415 21.2496 150.987 20.8216C150.559 20.3897 150.347 19.8405 150.35 19.1738C150.347 18.5905 150.502 18.0924 150.816 17.6795C151.131 17.2628 151.578 16.9447 152.157 16.725C152.737 16.5053 153.42 16.3954 154.208 16.3954C155.39 16.3954 156.322 16.6435 157.004 17.1397C157.686 17.6322 158.062 18.3102 158.134 19.1738Z" fill="black"/>
</svg>
