<svg width="155" height="37" viewBox="0 0 155 37" fill="none" xmlns="http://www.w3.org/2000/svg">
<path d="M0 12.8612C0 6.23379 5.37258 0.861206 12 0.861206H148.595C151.552 0.861206 153.487 3.95919 152.19 6.61644L138.516 34.6164C137.845 35.99 136.45 36.8612 134.922 36.8612H0V12.8612Z" fill="#09FE02"/>
<path d="M30.6478 18.3514L32.6958 18.9274C32.0878 20.3887 31.2878 21.6314 30.2958 22.6554C29.3144 23.6794 28.1624 24.5274 26.8398 25.1994C25.5278 25.8714 24.0611 26.4047 22.4398 26.7994C22.3758 26.6394 22.2691 26.4421 22.1198 26.2074C21.9811 25.9834 21.8318 25.7594 21.6718 25.5354C21.5118 25.3114 21.3624 25.1301 21.2238 24.9914C22.8024 24.6821 24.2104 24.2501 25.4478 23.6954C26.6958 23.1407 27.7571 22.4261 28.6318 21.5514C29.5064 20.6661 30.1784 19.5994 30.6478 18.3514ZM25.4798 15.5834L27.4638 16.3354C27.0904 16.8367 26.6531 17.3327 26.1518 17.8234C25.6504 18.3141 25.1278 18.7727 24.5838 19.1994C24.0398 19.6261 23.5171 19.9941 23.0158 20.3034C22.8984 20.1647 22.7438 19.9994 22.5518 19.8074C22.3598 19.6154 22.1624 19.4287 21.9598 19.2474C21.7571 19.0661 21.5758 18.9167 21.4158 18.7994C21.9278 18.5541 22.4344 18.2607 22.9358 17.9194C23.4371 17.5781 23.9064 17.2047 24.3438 16.7994C24.7918 16.3941 25.1704 15.9887 25.4798 15.5834ZM26.9198 18.4314C27.6344 20.1914 28.7598 21.6207 30.2958 22.7194C31.8424 23.8074 33.8424 24.5487 36.2958 24.9434C36.1571 25.0821 36.0078 25.2581 35.8478 25.4714C35.6878 25.6954 35.5331 25.9194 35.3838 26.1434C35.2451 26.3781 35.1331 26.5861 35.0478 26.7674C33.3091 26.4367 31.8051 25.9354 30.5358 25.2634C29.2771 24.5807 28.1998 23.7167 27.3038 22.6714C26.4184 21.6261 25.6771 20.3941 25.0798 18.9754L26.9198 18.4314ZM21.6558 13.5834H35.8478V15.4554H21.6558V13.5834ZM27.7198 11.7114H29.7038V14.8154H27.7198V11.7114ZM30.2798 16.5754L31.8478 15.4234C32.3171 15.7327 32.8184 16.0901 33.3518 16.4954C33.8958 16.8901 34.4078 17.2901 34.8878 17.6954C35.3784 18.1007 35.7784 18.4794 36.0878 18.8314L34.3598 20.1434C34.0931 19.8021 33.7304 19.4234 33.2718 19.0074C32.8131 18.5807 32.3171 18.1594 31.7838 17.7434C31.2611 17.3167 30.7598 16.9274 30.2798 16.5754ZM41.4318 16.3834V17.3914H48.1678V16.3834H41.4318ZM41.4318 13.9514V14.9434H48.1678V13.9514H41.4318ZM39.5598 12.4154H50.1358V18.9274H39.5598V12.4154ZM40.5358 19.8874H49.9118V21.5674H40.5358V19.8874ZM49.4638 19.8874H51.4158C51.4158 19.8874 51.4104 19.9354 51.3998 20.0314C51.3998 20.1167 51.3944 20.2234 51.3838 20.3514C51.3838 20.4687 51.3731 20.5701 51.3518 20.6554C51.2451 21.8181 51.1278 22.7727 50.9998 23.5194C50.8718 24.2554 50.7384 24.8314 50.5998 25.2474C50.4611 25.6634 50.3011 25.9621 50.1198 26.1434C49.9278 26.3567 49.7251 26.5061 49.5118 26.5914C49.2984 26.6767 49.0638 26.7301 48.8078 26.7514C48.5838 26.7834 48.2904 26.7994 47.9278 26.7994C47.5758 26.7994 47.2024 26.7887 46.8078 26.7674C46.7971 26.5327 46.7438 26.2607 46.6478 25.9514C46.5624 25.6421 46.4504 25.3754 46.3118 25.1514C46.6424 25.1834 46.9518 25.2047 47.2398 25.2154C47.5384 25.2154 47.7571 25.2154 47.8958 25.2154C48.0344 25.2154 48.1464 25.2047 48.2318 25.1834C48.3171 25.1621 48.4024 25.1087 48.4878 25.0234C48.6051 24.9061 48.7224 24.6714 48.8398 24.3194C48.9678 23.9567 49.0798 23.4394 49.1758 22.7674C49.2824 22.0954 49.3784 21.2261 49.4638 20.1594V19.8874ZM41.5278 18.0794L43.3678 18.6714C42.9838 19.3327 42.5251 19.9621 41.9918 20.5594C41.4691 21.1567 40.9144 21.7114 40.3278 22.2234C39.7411 22.7247 39.1491 23.1621 38.5518 23.5354C38.4451 23.4074 38.3011 23.2581 38.1198 23.0874C37.9491 22.9061 37.7731 22.7301 37.5918 22.5594C37.4104 22.3887 37.2451 22.2554 37.0958 22.1594C37.9918 21.7007 38.8344 21.1141 39.6238 20.3994C40.4131 19.6741 41.0478 18.9007 41.5278 18.0794ZM43.0958 20.4794L44.9038 21.0394C44.5198 21.7754 44.0504 22.4794 43.4958 23.1514C42.9518 23.8127 42.3651 24.4207 41.7358 24.9754C41.1064 25.5301 40.4611 26.0101 39.7998 26.4154C39.7038 26.2874 39.5704 26.1327 39.3998 25.9514C39.2291 25.7807 39.0478 25.6101 38.8558 25.4394C38.6744 25.2687 38.5144 25.1354 38.3758 25.0394C39.3678 24.5381 40.2798 23.8927 41.1118 23.1034C41.9544 22.3034 42.6158 21.4287 43.0958 20.4794ZM46.3598 20.5914L48.1838 21.0234C47.7571 22.2287 47.1971 23.3434 46.5038 24.3674C45.8211 25.3807 45.0798 26.2181 44.2798 26.8794C44.1731 26.7727 44.0238 26.6447 43.8318 26.4954C43.6504 26.3461 43.4638 26.1967 43.2718 26.0474C43.0798 25.8981 42.9091 25.7807 42.7598 25.6954C43.5704 25.1301 44.2851 24.3994 44.9038 23.5034C45.5331 22.5967 46.0184 21.6261 46.3598 20.5914ZM53.2078 20.0794H61.3038V21.6314H53.2078V20.0794ZM53.3998 14.4314H61.2558V15.9514H53.3998V14.4314ZM56.1038 18.9434L57.8798 19.3114C57.6131 19.8661 57.3251 20.4367 57.0158 21.0234C56.7171 21.6101 56.4184 22.1807 56.1198 22.7354C55.8211 23.2794 55.5438 23.7647 55.2878 24.1914L53.6078 23.6794C53.8638 23.2741 54.1358 22.7994 54.4238 22.2554C54.7224 21.7114 55.0158 21.1514 55.3038 20.5754C55.6024 19.9887 55.8691 19.4447 56.1038 18.9434ZM58.3598 21.1514L60.1358 21.3114C59.9864 22.1541 59.7624 22.8794 59.4638 23.4874C59.1758 24.0847 58.7864 24.5967 58.2958 25.0234C57.8158 25.4394 57.2291 25.7861 56.5358 26.0634C55.8424 26.3514 55.0158 26.5914 54.0558 26.7834C54.0024 26.5167 53.9011 26.2341 53.7518 25.9354C53.6024 25.6367 53.4478 25.3914 53.2878 25.1994C54.3438 25.0607 55.2131 24.8421 55.8958 24.5434C56.5891 24.2447 57.1331 23.8234 57.5278 23.2794C57.9224 22.7354 58.1998 22.0261 58.3598 21.1514ZM59.4958 11.9194L61.1118 12.5754C60.8558 12.9274 60.5998 13.2794 60.3438 13.6314C60.0984 13.9727 59.8744 14.2661 59.6718 14.5114L58.4398 13.9674C58.6211 13.6901 58.8131 13.3594 59.0158 12.9754C59.2184 12.5807 59.3784 12.2287 59.4958 11.9194ZM56.4558 11.7114H58.2158V19.1674H56.4558V11.7114ZM53.7998 12.5754L55.1758 11.9994C55.3891 12.2981 55.5864 12.6341 55.7678 13.0074C55.9491 13.3807 56.0771 13.7061 56.1518 13.9834L54.6798 14.6234C54.6264 14.3461 54.5144 14.0154 54.3438 13.6314C54.1731 13.2474 53.9918 12.8954 53.7998 12.5754ZM56.5038 15.1834L57.7358 15.9354C57.4798 16.3621 57.1438 16.7887 56.7278 17.2154C56.3224 17.6421 55.8851 18.0421 55.4158 18.4154C54.9571 18.7781 54.5038 19.0874 54.0558 19.3434C53.9491 19.1407 53.7998 18.9007 53.6078 18.6234C53.4264 18.3461 53.2504 18.1221 53.0798 17.9514C53.5064 17.7701 53.9384 17.5354 54.3758 17.2474C54.8131 16.9487 55.2184 16.6234 55.5918 16.2714C55.9758 15.9087 56.2798 15.5461 56.5038 15.1834ZM58.0558 15.6474C58.2051 15.7221 58.4078 15.8341 58.6638 15.9834C58.9304 16.1327 59.2131 16.2981 59.5118 16.4794C59.8211 16.6501 60.0984 16.8101 60.3438 16.9594C60.5998 17.1087 60.7811 17.2207 60.8878 17.2954L59.8798 18.6234C59.7304 18.4847 59.5384 18.3141 59.3038 18.1114C59.0691 17.9087 58.8184 17.7007 58.5518 17.4874C58.2851 17.2741 58.0291 17.0714 57.7838 16.8794C57.5384 16.6874 57.3251 16.5327 57.1438 16.4154L58.0558 15.6474ZM62.3598 14.6234H68.2478V16.3994H62.3598V14.6234ZM62.5358 11.7114L64.4878 11.9994C64.3171 13.0981 64.0984 14.1647 63.8318 15.1994C63.5651 16.2234 63.2398 17.1727 62.8558 18.0474C62.4824 18.9114 62.0451 19.6741 61.5438 20.3354C61.4478 20.2074 61.3091 20.0581 61.1278 19.8874C60.9464 19.7167 60.7544 19.5514 60.5518 19.3914C60.3491 19.2207 60.1784 19.0821 60.0398 18.9754C60.4878 18.4207 60.8718 17.7647 61.1918 17.0074C61.5224 16.2394 61.7998 15.4074 62.0238 14.5114C62.2478 13.6047 62.4184 12.6714 62.5358 11.7114ZM65.4478 15.7114L67.4158 15.9034C67.1811 17.7274 66.8184 19.3327 66.3278 20.7194C65.8478 22.1061 65.1811 23.3007 64.3278 24.3034C63.4744 25.3061 62.3758 26.1434 61.0318 26.8154C60.9678 26.6661 60.8718 26.4794 60.7438 26.2554C60.6158 26.0314 60.4771 25.8074 60.3278 25.5834C60.1784 25.3701 60.0398 25.1994 59.9118 25.0714C61.1278 24.5381 62.1091 23.8447 62.8558 22.9914C63.6131 22.1381 64.1944 21.1087 64.5998 19.9034C65.0051 18.6874 65.2878 17.2901 65.4478 15.7114ZM63.4478 16.0474C63.6718 17.3914 63.9864 18.6554 64.3918 19.8394C64.7971 21.0234 65.3304 22.0634 65.9918 22.9594C66.6531 23.8554 67.4691 24.5594 68.4398 25.0714C68.3011 25.1887 68.1464 25.3434 67.9758 25.5354C67.8051 25.7381 67.6398 25.9461 67.4798 26.1594C67.3304 26.3727 67.2078 26.5647 67.1118 26.7354C66.0344 26.0954 65.1438 25.2687 64.4398 24.2554C63.7464 23.2421 63.1864 22.0687 62.7598 20.7354C62.3331 19.3914 61.9864 17.9247 61.7198 16.3354L63.4478 16.0474ZM55.0158 23.6954L56.0398 22.3994C56.6691 22.6341 57.2931 22.9061 57.9118 23.2154C58.5411 23.5247 59.1224 23.8447 59.6558 24.1754C60.1998 24.4954 60.6531 24.8047 61.0158 25.1034L59.6718 26.4634C59.3411 26.1647 58.9251 25.8501 58.4238 25.5194C57.9224 25.1887 57.3784 24.8687 56.7918 24.5594C56.2051 24.2394 55.6131 23.9514 55.0158 23.6954ZM75.7358 12.3674H83.6718V17.0234H75.7838V15.3914H81.8638V14.0154H75.7358V12.3674ZM74.8558 12.3674H76.7118V17.2794C76.7118 17.9727 76.6851 18.7354 76.6318 19.5674C76.5891 20.3887 76.4984 21.2367 76.3598 22.1114C76.2211 22.9754 76.0131 23.8127 75.7358 24.6234C75.4691 25.4234 75.1171 26.1487 74.6798 26.7994C74.5731 26.6821 74.4238 26.5487 74.2318 26.3994C74.0398 26.2607 73.8424 26.1221 73.6398 25.9834C73.4371 25.8447 73.2664 25.7434 73.1278 25.6794C73.5224 25.0821 73.8371 24.4314 74.0718 23.7274C74.3064 23.0127 74.4771 22.2821 74.5838 21.5354C74.6904 20.7781 74.7598 20.0367 74.7918 19.3114C74.8344 18.5754 74.8558 17.8981 74.8558 17.2794V12.3674ZM75.7518 18.4474H84.1198V20.0634H75.7518V18.4474ZM77.2878 24.7674H82.8398V26.2874H77.2878V24.7674ZM79.0798 16.8794H80.8718V22.3034H79.0798V16.8794ZM76.5038 21.5994H83.7518V26.7354H82.0238V23.1674H78.1518V26.7514H76.5038V21.5994ZM69.0798 19.8554C69.7304 19.7061 70.5091 19.5141 71.4158 19.2794C72.3331 19.0447 73.2558 18.7994 74.1838 18.5434L74.4238 20.2714C73.5811 20.5167 72.7278 20.7674 71.8638 21.0234C71.0104 21.2687 70.2264 21.4927 69.5118 21.6954L69.0798 19.8554ZM69.3358 14.7674H74.3918V16.5274H69.3358V14.7674ZM71.0158 11.7434H72.7758V24.5274C72.7758 24.9647 72.7278 25.3114 72.6318 25.5674C72.5464 25.8234 72.3811 26.0261 72.1358 26.1754C71.9011 26.3247 71.6024 26.4207 71.2398 26.4634C70.8771 26.5167 70.4344 26.5434 69.9118 26.5434C69.8904 26.3087 69.8318 26.0154 69.7358 25.6634C69.6398 25.3221 69.5331 25.0287 69.4158 24.7834C69.7144 24.7941 69.9864 24.7994 70.2318 24.7994C70.4878 24.7994 70.6638 24.7941 70.7598 24.7834C70.8558 24.7834 70.9198 24.7674 70.9518 24.7354C70.9944 24.6927 71.0158 24.6181 71.0158 24.5114V11.7434ZM96.4398 16.5594L97.9118 15.8234C98.1998 16.1967 98.4931 16.6021 98.7918 17.0394C99.0904 17.4661 99.3678 17.8927 99.6238 18.3194C99.8798 18.7354 100.077 19.1141 100.216 19.4554L98.5998 20.3034C98.4824 19.9727 98.3064 19.5941 98.0718 19.1674C97.8371 18.7301 97.5758 18.2874 97.2878 17.8394C96.9998 17.3807 96.7171 16.9541 96.4398 16.5594ZM91.0958 13.8234H100.04V15.5354H91.0958V13.8234ZM95.6398 19.8074H97.5278V24.3194C97.5278 24.5647 97.5438 24.7194 97.5758 24.7834C97.6078 24.8474 97.6771 24.8794 97.7838 24.8794C97.8158 24.8794 97.8691 24.8794 97.9438 24.8794C98.0184 24.8794 98.0931 24.8794 98.1678 24.8794C98.2424 24.8794 98.2958 24.8794 98.3278 24.8794C98.4238 24.8794 98.4931 24.8261 98.5358 24.7194C98.5784 24.6021 98.6104 24.3727 98.6318 24.0314C98.6638 23.6794 98.6851 23.1621 98.6958 22.4794C98.8771 22.6501 99.1278 22.8047 99.4478 22.9434C99.7784 23.0714 100.066 23.1727 100.312 23.2474C100.269 24.0901 100.184 24.7514 100.056 25.2314C99.9278 25.7007 99.7411 26.0261 99.4958 26.2074C99.2611 26.3994 98.9358 26.4954 98.5198 26.4954C98.4558 26.4954 98.3758 26.4954 98.2798 26.4954C98.1838 26.4954 98.0771 26.4954 97.9598 26.4954C97.8531 26.4954 97.7518 26.4954 97.6558 26.4954C97.5598 26.4954 97.4798 26.4954 97.4158 26.4954C96.9358 26.4954 96.5678 26.4261 96.3118 26.2874C96.0558 26.1487 95.8798 25.9194 95.7838 25.5994C95.6878 25.2901 95.6398 24.8687 95.6398 24.3354V19.8074ZM92.6158 19.8234H94.5038C94.4718 20.6661 94.4078 21.4447 94.3118 22.1594C94.2158 22.8741 94.0504 23.5247 93.8158 24.1114C93.5811 24.6874 93.2398 25.2047 92.7918 25.6634C92.3544 26.1221 91.7678 26.5167 91.0318 26.8474C90.9678 26.6874 90.8664 26.5061 90.7278 26.3034C90.5998 26.1007 90.4558 25.9034 90.2958 25.7114C90.1464 25.5301 90.0024 25.3807 89.8638 25.2634C90.4718 25.0074 90.9518 24.7087 91.3038 24.3674C91.6664 24.0154 91.9384 23.6207 92.1198 23.1834C92.3011 22.7354 92.4238 22.2341 92.4878 21.6794C92.5518 21.1141 92.5944 20.4954 92.6158 19.8234ZM91.2718 20.0794L91.2078 18.6874L92.1358 18.1114L98.2318 17.5834C98.2424 17.8181 98.2638 18.0901 98.2958 18.3994C98.3384 18.6981 98.3811 18.9381 98.4238 19.1194C97.2611 19.2367 96.2851 19.3434 95.4958 19.4394C94.7064 19.5247 94.0611 19.5994 93.5598 19.6634C93.0584 19.7167 92.6584 19.7701 92.3598 19.8234C92.0611 19.8661 91.8318 19.9087 91.6718 19.9514C91.5118 19.9834 91.3784 20.0261 91.2718 20.0794ZM94.0238 12.1114L95.8478 11.6634C95.9864 11.9514 96.1304 12.2767 96.2798 12.6394C96.4398 12.9914 96.5624 13.2901 96.6478 13.5354L94.7278 14.0794C94.6638 13.8127 94.5624 13.4981 94.4238 13.1354C94.2958 12.7621 94.1624 12.4207 94.0238 12.1114ZM91.2718 20.0794C91.2398 19.9194 91.1864 19.7221 91.1118 19.4874C91.0478 19.2527 90.9784 19.0181 90.9038 18.7834C90.8291 18.5487 90.7598 18.3674 90.6958 18.2394C90.8771 18.1967 91.0744 18.1381 91.2878 18.0634C91.5011 17.9781 91.6984 17.8554 91.8798 17.6954C91.9864 17.5887 92.1464 17.4021 92.3598 17.1354C92.5838 16.8687 92.8238 16.5701 93.0798 16.2394C93.3358 15.8981 93.5811 15.5674 93.8158 15.2474C94.0611 14.9274 94.2584 14.6607 94.4078 14.4474H96.6478C96.4238 14.7674 96.1624 15.1301 95.8638 15.5354C95.5758 15.9301 95.2718 16.3407 94.9518 16.7674C94.6424 17.1834 94.3384 17.5781 94.0398 17.9514C93.7411 18.3141 93.4744 18.6287 93.2398 18.8954C93.2398 18.8954 93.1704 18.9221 93.0318 18.9754C92.9038 19.0181 92.7438 19.0821 92.5518 19.1674C92.3598 19.2527 92.1624 19.3487 91.9598 19.4554C91.7678 19.5514 91.6024 19.6581 91.4638 19.7754C91.3358 19.8821 91.2718 19.9834 91.2718 20.0794ZM85.8158 22.6234C85.7944 22.4954 85.7464 22.3247 85.6718 22.1114C85.5971 21.8874 85.5171 21.6581 85.4318 21.4234C85.3571 21.1887 85.2771 20.9967 85.1918 20.8474C85.4051 20.7941 85.6078 20.6821 85.7998 20.5114C85.9918 20.3407 86.2158 20.1061 86.4718 19.8074C86.5998 19.6687 86.7864 19.4394 87.0318 19.1194C87.2771 18.7994 87.5438 18.4154 87.8318 17.9674C88.1304 17.5194 88.4344 17.0341 88.7438 16.5114C89.0531 15.9887 89.3304 15.4607 89.5758 14.9274L91.2558 15.9674C90.6904 16.9914 90.0398 17.9994 89.3038 18.9914C88.5678 19.9834 87.8211 20.8634 87.0638 21.6314V21.6794C87.0638 21.6794 86.9998 21.7114 86.8718 21.7754C86.7544 21.8394 86.6104 21.9247 86.4398 22.0314C86.2798 22.1274 86.1358 22.2287 86.0078 22.3354C85.8798 22.4421 85.8158 22.5381 85.8158 22.6234ZM85.8158 22.6234L85.6718 21.0234L86.4718 20.4314L90.7278 19.5674C90.7064 19.8341 90.6958 20.1327 90.6958 20.4634C90.6958 20.7941 90.7118 21.0607 90.7438 21.2634C89.7838 21.4767 89.0051 21.6581 88.4078 21.8074C87.8104 21.9567 87.3411 22.0794 86.9998 22.1754C86.6584 22.2714 86.4024 22.3514 86.2318 22.4154C86.0611 22.4794 85.9224 22.5487 85.8158 22.6234ZM85.7198 18.7194C85.6771 18.5807 85.6184 18.3994 85.5438 18.1754C85.4691 17.9407 85.3838 17.6954 85.2878 17.4394C85.2024 17.1834 85.1171 16.9701 85.0318 16.7994C85.2024 16.7461 85.3624 16.6394 85.5118 16.4794C85.6611 16.3194 85.8264 16.1114 86.0078 15.8554C86.0931 15.7381 86.2104 15.5354 86.3598 15.2474C86.5198 14.9594 86.6904 14.6181 86.8718 14.2234C87.0638 13.8287 87.2504 13.4074 87.4318 12.9594C87.6131 12.5007 87.7731 12.0421 87.9118 11.5834L89.8638 12.4794C89.6184 13.0874 89.3251 13.7061 88.9838 14.3354C88.6531 14.9541 88.3011 15.5514 87.9278 16.1274C87.5544 16.6927 87.1758 17.2101 86.7918 17.6794V17.7274C86.7918 17.7274 86.7384 17.7647 86.6318 17.8394C86.5251 17.9034 86.3971 17.9887 86.2478 18.0954C86.1091 18.2021 85.9864 18.3141 85.8798 18.4314C85.7731 18.5381 85.7198 18.6341 85.7198 18.7194ZM85.7198 18.7194L85.6558 17.3114L86.4718 16.7834L89.1598 16.5594C89.1064 16.8154 89.0584 17.0981 89.0158 17.4074C88.9838 17.7167 88.9624 17.9727 88.9518 18.1754C88.3544 18.2394 87.8638 18.2981 87.4798 18.3514C87.0958 18.3941 86.7864 18.4367 86.5518 18.4794C86.3278 18.5221 86.1518 18.5647 86.0238 18.6074C85.8958 18.6394 85.7944 18.6767 85.7198 18.7194ZM85.2878 24.2394C85.7464 24.1007 86.2691 23.9354 86.8558 23.7434C87.4424 23.5407 88.0664 23.3221 88.7278 23.0874C89.3891 22.8527 90.0504 22.6181 90.7118 22.3834L91.0638 24.0154C90.1571 24.3887 89.2344 24.7621 88.2958 25.1354C87.3678 25.4981 86.5144 25.8341 85.7358 26.1434L85.2878 24.2394ZM102.584 13.1354L103.816 11.8874C104.114 12.1221 104.434 12.3834 104.776 12.6714C105.128 12.9487 105.458 13.2261 105.768 13.5034C106.077 13.7807 106.328 14.0367 106.52 14.2714L105.224 15.6634C105.042 15.4287 104.802 15.1621 104.504 14.8634C104.216 14.5647 103.901 14.2661 103.56 13.9674C103.218 13.6581 102.893 13.3807 102.584 13.1354ZM103.752 26.6874L103.32 24.8154L103.752 24.1914L107.272 21.7114C107.314 21.8927 107.368 22.0954 107.432 22.3194C107.506 22.5434 107.581 22.7621 107.656 22.9754C107.741 23.1781 107.816 23.3487 107.88 23.4874C107.069 24.0741 106.413 24.5541 105.912 24.9274C105.41 25.3007 105.016 25.5941 104.728 25.8074C104.44 26.0314 104.226 26.2074 104.088 26.3354C103.949 26.4741 103.837 26.5914 103.752 26.6874ZM101.352 16.6714H104.92V18.5754H101.352V16.6714ZM106.616 16.7834H116.216V18.7834H106.616V16.7834ZM110.456 11.8074H112.52V26.7674H110.456V11.8074ZM103.752 26.6874C103.709 26.5167 103.629 26.3194 103.512 26.0954C103.405 25.8714 103.288 25.6474 103.16 25.4234C103.032 25.2101 102.914 25.0341 102.808 24.8954C103 24.7781 103.192 24.5914 103.384 24.3354C103.586 24.0687 103.688 23.7594 103.688 23.4074V16.6714H105.64V24.8474C105.64 24.8474 105.576 24.8901 105.448 24.9754C105.32 25.0501 105.165 25.1567 104.984 25.2954C104.802 25.4341 104.616 25.5834 104.424 25.7434C104.232 25.9034 104.072 26.0634 103.944 26.2234C103.816 26.3941 103.752 26.5487 103.752 26.6874Z" fill="black"/>
</svg>
