<svg width="267" height="36" viewBox="0 0 267 36" fill="none" xmlns="http://www.w3.org/2000/svg">
<path d="M0 12C0 5.37258 5.37258 0 12 0H260.595C263.552 0 265.487 3.09799 264.19 5.75524L250.516 33.7552C249.845 35.1288 248.45 36 246.922 36H0V12Z" fill="#09FE02"/>
<path d="M21.2438 15.1139V12.8298H31.079V15.1139H27.5506V24.4662H24.7779V15.1139H21.2438ZM31.5463 24.4662V15.7389H34.2452V17.3298H34.3361C34.4952 16.7541 34.7547 16.326 35.1145 16.0457C35.4744 15.7616 35.8929 15.6196 36.3702 15.6196C36.499 15.6196 36.6316 15.6291 36.7679 15.648C36.9043 15.6632 37.0312 15.6878 37.1486 15.7219V18.1366C37.016 18.0912 36.8418 18.0552 36.6259 18.0287C36.4138 18.0022 36.2244 17.9889 36.0577 17.9889C35.7281 17.9889 35.4308 18.0628 35.1656 18.2105C34.9043 18.3544 34.6978 18.5571 34.5463 18.8185C34.3986 19.076 34.3247 19.3791 34.3247 19.7276V24.4662H31.5463ZM40.4128 24.6139C39.856 24.6139 39.3617 24.5211 38.9299 24.3355C38.5018 24.1461 38.1628 23.862 37.9128 23.4832C37.6666 23.1007 37.5435 22.6215 37.5435 22.0457C37.5435 21.5609 37.6287 21.1518 37.7992 20.8185C37.9696 20.4851 38.2045 20.2143 38.5037 20.006C38.803 19.7976 39.1477 19.6404 39.5378 19.5344C39.928 19.4245 40.3446 19.3507 40.7878 19.3128C41.284 19.2673 41.6836 19.22 41.9867 19.1707C42.2897 19.1177 42.5094 19.0438 42.6458 18.9491C42.7859 18.8507 42.856 18.7124 42.856 18.5344V18.506C42.856 18.2143 42.7556 17.9889 42.5549 17.8298C42.3541 17.6707 42.0833 17.5912 41.7424 17.5912C41.3749 17.5912 41.0795 17.6707 40.856 17.8298C40.6325 17.9889 40.4905 18.2086 40.4299 18.4889L37.8674 18.398C37.9431 17.8677 38.1382 17.3942 38.4526 16.9776C38.7708 16.5571 39.2064 16.2276 39.7594 15.9889C40.3162 15.7465 40.9848 15.6253 41.7651 15.6253C42.3219 15.6253 42.8352 15.6916 43.3049 15.8241C43.7746 15.9529 44.1836 16.1423 44.5321 16.3923C44.8806 16.6385 45.1496 16.9416 45.3389 17.3014C45.5321 17.6613 45.6287 18.0722 45.6287 18.5344V24.4662H43.0151V23.2503H42.9469C42.7916 23.5457 42.5927 23.7957 42.3503 24.0003C42.1117 24.2048 41.8295 24.3582 41.5037 24.4605C41.1817 24.5628 40.8181 24.6139 40.4128 24.6139ZM41.2708 22.7957C41.57 22.7957 41.8389 22.7351 42.0776 22.6139C42.32 22.4927 42.5132 22.326 42.6571 22.1139C42.8011 21.898 42.873 21.648 42.873 21.3639V20.5344C42.7935 20.576 42.6969 20.6139 42.5833 20.648C42.4734 20.6821 42.3522 20.7143 42.2196 20.7446C42.0871 20.7749 41.9507 20.8014 41.8105 20.8241C41.6704 20.8469 41.5359 20.8677 41.4071 20.8866C41.1458 20.9283 40.9223 20.9927 40.7367 21.0798C40.5549 21.1669 40.4147 21.2806 40.3162 21.4207C40.2215 21.5571 40.1742 21.72 40.1742 21.9094C40.1742 22.1972 40.2764 22.4169 40.481 22.5685C40.6893 22.72 40.9526 22.7957 41.2708 22.7957ZM50.106 19.4889V24.4662H47.3276V15.7389H49.9696V17.3412H50.0662C50.2594 16.8071 50.5889 16.3885 51.0549 16.0855C51.5208 15.7787 52.0757 15.6253 52.7196 15.6253C53.3333 15.6253 53.8655 15.7635 54.3162 16.04C54.7708 16.3128 55.123 16.6954 55.373 17.1878C55.6268 17.6764 55.7518 18.2484 55.748 18.9037V24.4662H52.9696V19.4491C52.9734 18.9643 52.8503 18.5855 52.6003 18.3128C52.3541 18.0401 52.0113 17.9037 51.5719 17.9037C51.2802 17.9037 51.0227 17.9681 50.7992 18.0969C50.5795 18.2219 50.409 18.4018 50.2878 18.6366C50.1704 18.8715 50.1098 19.1556 50.106 19.4889ZM65.0875 18.4037L62.5364 18.4719C62.5099 18.2901 62.4379 18.1291 62.3205 17.9889C62.2031 17.845 62.0496 17.7332 61.8603 17.6537C61.6746 17.5704 61.4587 17.5287 61.2125 17.5287C60.8906 17.5287 60.6159 17.5931 60.3887 17.7219C60.1652 17.8507 60.0553 18.0249 60.0591 18.2446C60.0553 18.415 60.1235 18.5628 60.2637 18.6878C60.4076 18.8128 60.6633 18.9132 61.0307 18.9889L62.7125 19.3071C63.5837 19.4738 64.2315 19.7503 64.6557 20.1366C65.0837 20.523 65.2996 21.0344 65.3034 21.6707C65.2996 22.2692 65.1216 22.7901 64.7693 23.2332C64.4209 23.6764 63.9436 24.0211 63.3375 24.2673C62.7315 24.5097 62.0383 24.631 61.258 24.631C60.0118 24.631 59.0288 24.3753 58.3091 23.8639C57.5932 23.3488 57.1841 22.6594 57.0818 21.7957L59.8262 21.7276C59.8868 22.0457 60.044 22.2882 60.2978 22.4548C60.5515 22.6215 60.8754 22.7048 61.2693 22.7048C61.6254 22.7048 61.9152 22.6385 62.1387 22.506C62.3621 22.3734 62.4758 22.1972 62.4796 21.9776C62.4758 21.7806 62.3887 21.6234 62.2182 21.506C62.0478 21.3847 61.7807 21.2901 61.4171 21.2219L59.8943 20.9321C59.0193 20.773 58.3678 20.4794 57.9398 20.0514C57.5118 19.6196 57.2996 19.0704 57.3034 18.4037C57.2996 17.8204 57.4549 17.3222 57.7693 16.9094C58.0837 16.4927 58.5307 16.1745 59.1103 15.9548C59.6898 15.7351 60.3735 15.6253 61.1614 15.6253C62.3432 15.6253 63.275 15.8734 63.9568 16.3696C64.6387 16.862 65.0156 17.54 65.0875 18.4037ZM69.1316 24.6139C68.5747 24.6139 68.0804 24.5211 67.6486 24.3355C67.2206 24.1461 66.8816 23.862 66.6316 23.4832C66.3853 23.1007 66.2622 22.6215 66.2622 22.0457C66.2622 21.5609 66.3475 21.1518 66.5179 20.8185C66.6884 20.4851 66.9232 20.2143 67.2225 20.006C67.5217 19.7976 67.8664 19.6404 68.2566 19.5344C68.6467 19.4245 69.0634 19.3507 69.5066 19.3128C70.0028 19.2673 70.4024 19.22 70.7054 19.1707C71.0085 19.1177 71.2281 19.0438 71.3645 18.9491C71.5047 18.8507 71.5747 18.7124 71.5747 18.5344V18.506C71.5747 18.2143 71.4744 17.9889 71.2736 17.8298C71.0728 17.6707 70.802 17.5912 70.4611 17.5912C70.0937 17.5912 69.7982 17.6707 69.5747 17.8298C69.3513 17.9889 69.2092 18.2086 69.1486 18.4889L66.5861 18.398C66.6619 17.8677 66.8569 17.3942 67.1713 16.9776C67.4895 16.5571 67.9251 16.2276 68.4781 15.9889C69.035 15.7465 69.7035 15.6253 70.4838 15.6253C71.0406 15.6253 71.5539 15.6916 72.0236 15.8241C72.4933 15.9529 72.9024 16.1423 73.2509 16.3923C73.5994 16.6385 73.8683 16.9416 74.0577 17.3014C74.2509 17.6613 74.3475 18.0722 74.3475 18.5344V24.4662H71.7338V23.2503H71.6656C71.5103 23.5457 71.3115 23.7957 71.0691 24.0003C70.8304 24.2048 70.5482 24.3582 70.2225 24.4605C69.9005 24.5628 69.5369 24.6139 69.1316 24.6139ZM69.9895 22.7957C70.2888 22.7957 70.5577 22.7351 70.7963 22.6139C71.0388 22.4927 71.2319 22.326 71.3759 22.1139C71.5198 21.898 71.5918 21.648 71.5918 21.3639V20.5344C71.5122 20.576 71.4156 20.6139 71.302 20.648C71.1922 20.6821 71.071 20.7143 70.9384 20.7446C70.8058 20.7749 70.6694 20.8014 70.5293 20.8241C70.3891 20.8469 70.2547 20.8677 70.1259 20.8866C69.8645 20.9283 69.641 20.9927 69.4554 21.0798C69.2736 21.1669 69.1335 21.2806 69.035 21.4207C68.9403 21.5571 68.8929 21.72 68.8929 21.9094C68.8929 22.1972 68.9952 22.4169 69.1997 22.5685C69.4081 22.72 69.6713 22.7957 69.9895 22.7957ZM80.1202 24.631C79.1997 24.631 78.41 24.4416 77.7509 24.0628C77.0956 23.684 76.5918 23.1575 76.2395 22.4832C75.8872 21.8052 75.7111 21.0211 75.7111 20.131C75.7111 19.237 75.8872 18.4529 76.2395 17.7787C76.5956 17.1007 77.1013 16.5722 77.7566 16.1935C78.4156 15.8147 79.2016 15.6253 80.1145 15.6253C80.9213 15.6253 81.624 15.7711 82.2225 16.0628C82.8247 16.3544 83.2944 16.7673 83.6316 17.3014C83.9725 17.8317 84.1524 18.4548 84.1713 19.1707H81.5747C81.5217 18.7238 81.3702 18.3734 81.1202 18.1196C80.874 17.8658 80.552 17.7389 80.1543 17.7389C79.8323 17.7389 79.5501 17.8298 79.3077 18.0116C79.0653 18.1897 78.8759 18.4548 78.7395 18.8071C78.6069 19.1556 78.5406 19.5874 78.5406 20.1026C78.5406 20.6177 78.6069 21.0533 78.7395 21.4094C78.8759 21.7616 79.0653 22.0287 79.3077 22.2105C79.5501 22.3885 79.8323 22.4776 80.1543 22.4776C80.4119 22.4776 80.6391 22.4226 80.8361 22.3128C81.0369 22.2029 81.2016 22.0419 81.3304 21.8298C81.4592 21.6139 81.5406 21.3526 81.5747 21.0457H84.1713C84.1448 21.7654 83.9649 22.3942 83.6316 22.9321C83.302 23.47 82.838 23.8885 82.2395 24.1878C81.6448 24.4832 80.9384 24.631 80.1202 24.631ZM90.5193 15.7389V17.7844H85.0137V15.7389H90.5193ZM86.1671 13.648H88.9455V21.7219C88.9455 21.8923 88.972 22.0306 89.025 22.1366C89.0818 22.2389 89.1633 22.3128 89.2693 22.3582C89.3754 22.3999 89.5023 22.4207 89.65 22.4207C89.7561 22.4207 89.8678 22.4113 89.9853 22.3923C90.1065 22.3696 90.1974 22.3507 90.258 22.3355L90.6784 24.3412C90.5459 24.3791 90.3584 24.4264 90.1159 24.4832C89.8773 24.5401 89.5913 24.576 89.258 24.5912C88.6065 24.6215 88.0478 24.5457 87.5818 24.3639C87.1197 24.1783 86.7656 23.8904 86.5193 23.5003C86.2769 23.1101 86.1595 22.6196 86.1671 22.0287V13.648ZM91.937 24.4662V15.7389H94.7154V24.4662H91.937ZM93.329 14.7219C92.9389 14.7219 92.6036 14.5931 92.3233 14.3355C92.043 14.0741 91.9029 13.7597 91.9029 13.3923C91.9029 13.0287 92.043 12.7181 92.3233 12.4605C92.6036 12.1991 92.9389 12.0685 93.329 12.0685C93.7229 12.0685 94.0582 12.1991 94.3347 12.4605C94.615 12.7181 94.7551 13.0287 94.7551 13.3923C94.7551 13.7597 94.615 14.0741 94.3347 14.3355C94.0582 14.5931 93.7229 14.7219 93.329 14.7219ZM100.558 24.631C99.641 24.631 98.8531 24.4435 98.1941 24.0685C97.5388 23.6897 97.0331 23.1632 96.677 22.4889C96.3247 21.8109 96.1486 21.0249 96.1486 20.131C96.1486 19.2332 96.3247 18.4472 96.677 17.773C97.0331 17.095 97.5388 16.5685 98.1941 16.1935C98.8531 15.8147 99.641 15.6253 100.558 15.6253C101.474 15.6253 102.26 15.8147 102.916 16.1935C103.575 16.5685 104.08 17.095 104.433 17.773C104.789 18.4472 104.967 19.2332 104.967 20.131C104.967 21.0249 104.789 21.8109 104.433 22.4889C104.08 23.1632 103.575 23.6897 102.916 24.0685C102.26 24.4435 101.474 24.631 100.558 24.631ZM100.575 22.5344C100.908 22.5344 101.19 22.4321 101.421 22.2276C101.652 22.023 101.829 21.7389 101.95 21.3753C102.075 21.0116 102.137 20.5912 102.137 20.1139C102.137 19.6291 102.075 19.2048 101.95 18.8412C101.829 18.4776 101.652 18.1935 101.421 17.9889C101.19 17.7844 100.908 17.6821 100.575 17.6821C100.23 17.6821 99.9384 17.7844 99.6997 17.9889C99.4649 18.1935 99.285 18.4776 99.16 18.8412C99.0388 19.2048 98.9781 19.6291 98.9781 20.1139C98.9781 20.5912 99.0388 21.0116 99.16 21.3753C99.285 21.7389 99.4649 22.023 99.6997 22.2276C99.9384 22.4321 100.23 22.5344 100.575 22.5344ZM109.168 19.4889V24.4662H106.39V15.7389H109.032V17.3412H109.129C109.322 16.8071 109.651 16.3885 110.117 16.0855C110.583 15.7787 111.138 15.6253 111.782 15.6253C112.396 15.6253 112.928 15.7635 113.379 16.04C113.833 16.3128 114.186 16.6954 114.436 17.1878C114.689 17.6764 114.814 18.2484 114.811 18.9037V24.4662H112.032V19.4491C112.036 18.9643 111.913 18.5855 111.663 18.3128C111.417 18.0401 111.074 17.9037 110.634 17.9037C110.343 17.9037 110.085 17.9681 109.862 18.0969C109.642 18.2219 109.472 18.4018 109.35 18.6366C109.233 18.8715 109.172 19.1556 109.168 19.4889ZM124.269 24.4662H119.968V12.8298H124.264C125.449 12.8298 126.47 13.0628 127.326 13.5287C128.186 13.9908 128.849 14.6575 129.315 15.5287C129.781 16.3961 130.014 17.434 130.014 18.6423C130.014 19.8544 129.781 20.8961 129.315 21.7673C128.853 22.6385 128.192 23.3071 127.332 23.773C126.472 24.2351 125.451 24.4662 124.269 24.4662ZM122.781 22.0685H124.161C124.813 22.0685 125.364 21.9586 125.815 21.7389C126.269 21.5154 126.612 21.1537 126.843 20.6537C127.078 20.1499 127.195 19.4794 127.195 18.6423C127.195 17.8052 127.078 17.1385 126.843 16.6423C126.608 16.1423 126.262 15.7825 125.803 15.5628C125.349 15.3393 124.788 15.2275 124.122 15.2275H122.781V22.0685ZM134.116 24.6139C133.559 24.6139 133.065 24.5211 132.633 24.3355C132.205 24.1461 131.866 23.862 131.616 23.4832C131.37 23.1007 131.247 22.6215 131.247 22.0457C131.247 21.5609 131.332 21.1518 131.502 20.8185C131.673 20.4851 131.908 20.2143 132.207 20.006C132.506 19.7976 132.851 19.6404 133.241 19.5344C133.631 19.4245 134.048 19.3507 134.491 19.3128C134.987 19.2673 135.387 19.22 135.69 19.1707C135.993 19.1177 136.213 19.0438 136.349 18.9491C136.489 18.8507 136.559 18.7124 136.559 18.5344V18.506C136.559 18.2143 136.459 17.9889 136.258 17.8298C136.057 17.6707 135.786 17.5912 135.445 17.5912C135.078 17.5912 134.783 17.6707 134.559 17.8298C134.336 17.9889 134.194 18.2086 134.133 18.4889L131.57 18.398C131.646 17.8677 131.841 17.3942 132.156 16.9776C132.474 16.5571 132.909 16.2276 133.463 15.9889C134.019 15.7465 134.688 15.6253 135.468 15.6253C136.025 15.6253 136.538 15.6916 137.008 15.8241C137.478 15.9529 137.887 16.1423 138.235 16.3923C138.584 16.6385 138.853 16.9416 139.042 17.3014C139.235 17.6613 139.332 18.0722 139.332 18.5344V24.4662H136.718V23.2503H136.65C136.495 23.5457 136.296 23.7957 136.053 24.0003C135.815 24.2048 135.533 24.3582 135.207 24.4605C134.885 24.5628 134.521 24.6139 134.116 24.6139ZM134.974 22.7957C135.273 22.7957 135.542 22.7351 135.781 22.6139C136.023 22.4927 136.216 22.326 136.36 22.1139C136.504 21.898 136.576 21.648 136.576 21.3639V20.5344C136.497 20.576 136.4 20.6139 136.286 20.648C136.177 20.6821 136.055 20.7143 135.923 20.7446C135.79 20.7749 135.654 20.8014 135.514 20.8241C135.374 20.8469 135.239 20.8677 135.11 20.8866C134.849 20.9283 134.625 20.9927 134.44 21.0798C134.258 21.1669 134.118 21.2806 134.019 21.4207C133.925 21.5571 133.877 21.72 133.877 21.9094C133.877 22.1972 133.98 22.4169 134.184 22.5685C134.392 22.72 134.656 22.7957 134.974 22.7957ZM145.957 15.7389V17.7844H140.451V15.7389H145.957ZM141.605 13.648H144.383V21.7219C144.383 21.8923 144.409 22.0306 144.463 22.1366C144.519 22.2389 144.601 22.3128 144.707 22.3582C144.813 22.3999 144.94 22.4207 145.088 22.4207C145.194 22.4207 145.305 22.4113 145.423 22.3923C145.544 22.3696 145.635 22.3507 145.695 22.3355L146.116 24.3412C145.983 24.3791 145.796 24.4264 145.553 24.4832C145.315 24.5401 145.029 24.576 144.695 24.5912C144.044 24.6215 143.485 24.5457 143.019 24.3639C142.557 24.1783 142.203 23.8904 141.957 23.5003C141.714 23.1101 141.597 22.6196 141.605 22.0287V13.648ZM149.835 24.6139C149.278 24.6139 148.784 24.5211 148.352 24.3355C147.924 24.1461 147.585 23.862 147.335 23.4832C147.088 23.1007 146.965 22.6215 146.965 22.0457C146.965 21.5609 147.051 21.1518 147.221 20.8185C147.392 20.4851 147.626 20.2143 147.926 20.006C148.225 19.7976 148.57 19.6404 148.96 19.5344C149.35 19.4245 149.767 19.3507 150.21 19.3128C150.706 19.2673 151.106 19.22 151.409 19.1707C151.712 19.1177 151.931 19.0438 152.068 18.9491C152.208 18.8507 152.278 18.7124 152.278 18.5344V18.506C152.278 18.2143 152.177 17.9889 151.977 17.8298C151.776 17.6707 151.505 17.5912 151.164 17.5912C150.797 17.5912 150.501 17.6707 150.278 17.8298C150.054 17.9889 149.912 18.2086 149.852 18.4889L147.289 18.398C147.365 17.8677 147.56 17.3942 147.874 16.9776C148.193 16.5571 148.628 16.2276 149.181 15.9889C149.738 15.7465 150.407 15.6253 151.187 15.6253C151.744 15.6253 152.257 15.6916 152.727 15.8241C153.196 15.9529 153.606 16.1423 153.954 16.3923C154.302 16.6385 154.571 16.9416 154.761 17.3014C154.954 17.6613 155.051 18.0722 155.051 18.5344V24.4662H152.437V23.2503H152.369C152.213 23.5457 152.015 23.7957 151.772 24.0003C151.534 24.2048 151.251 24.3582 150.926 24.4605C150.604 24.5628 150.24 24.6139 149.835 24.6139ZM150.693 22.7957C150.992 22.7957 151.261 22.7351 151.499 22.6139C151.742 22.4927 151.935 22.326 152.079 22.1139C152.223 21.898 152.295 21.648 152.295 21.3639V20.5344C152.215 20.576 152.119 20.6139 152.005 20.648C151.895 20.6821 151.774 20.7143 151.642 20.7446C151.509 20.7749 151.373 20.8014 151.232 20.8241C151.092 20.8469 150.958 20.8677 150.829 20.8866C150.568 20.9283 150.344 20.9927 150.159 21.0798C149.977 21.1669 149.837 21.2806 149.738 21.4207C149.643 21.5571 149.596 21.72 149.596 21.9094C149.596 22.1972 149.698 22.4169 149.903 22.5685C150.111 22.72 150.374 22.7957 150.693 22.7957ZM166.477 16.3185C166.439 15.9018 166.27 15.5779 165.971 15.3469C165.676 15.112 165.253 14.9946 164.704 14.9946C164.34 14.9946 164.037 15.0419 163.795 15.1366C163.552 15.2313 163.371 15.362 163.249 15.5287C163.128 15.6916 163.066 15.8791 163.062 16.0912C163.054 16.2654 163.088 16.4188 163.164 16.5514C163.244 16.684 163.357 16.8014 163.505 16.9037C163.657 17.0022 163.838 17.0893 164.051 17.1651C164.263 17.2408 164.501 17.3071 164.767 17.3639L165.767 17.5912C166.342 17.7162 166.85 17.8829 167.289 18.0912C167.732 18.2995 168.104 18.5476 168.403 18.8355C168.706 19.1234 168.935 19.4548 169.09 19.8298C169.246 20.2048 169.325 20.6253 169.329 21.0912C169.325 21.826 169.14 22.4567 168.772 22.9832C168.405 23.5097 167.876 23.9132 167.187 24.1935C166.501 24.4738 165.674 24.6139 164.704 24.6139C163.731 24.6139 162.882 24.4681 162.159 24.1764C161.435 23.8847 160.873 23.4416 160.471 22.8469C160.07 22.2522 159.863 21.5003 159.852 20.5912H162.545C162.568 20.9662 162.668 21.2787 162.846 21.5287C163.024 21.7787 163.268 21.9681 163.579 22.0969C163.893 22.2257 164.257 22.2901 164.67 22.2901C165.049 22.2901 165.371 22.2389 165.636 22.1366C165.905 22.0344 166.111 21.8923 166.255 21.7105C166.399 21.5287 166.473 21.3204 166.477 21.0855C166.473 20.8658 166.405 20.6783 166.272 20.523C166.14 20.3639 165.935 20.2275 165.659 20.1139C165.386 19.9965 165.037 19.8885 164.613 19.7901L163.397 19.506C162.39 19.2749 161.596 18.9018 161.017 18.3866C160.437 17.8677 160.149 17.1669 160.153 16.2844C160.149 15.5647 160.342 14.934 160.732 14.3923C161.123 13.8507 161.662 13.4283 162.352 13.1253C163.041 12.8222 163.827 12.6707 164.71 12.6707C165.611 12.6707 166.393 12.8241 167.056 13.131C167.723 13.434 168.24 13.8601 168.607 14.4094C168.975 14.9586 169.162 15.595 169.17 16.3185H166.477ZM175.676 15.7389V17.7844H170.17V15.7389H175.676ZM171.323 13.648H174.102V21.7219C174.102 21.8923 174.128 22.0306 174.181 22.1366C174.238 22.2389 174.32 22.3128 174.426 22.3582C174.532 22.3999 174.659 22.4207 174.806 22.4207C174.912 22.4207 175.024 22.4113 175.142 22.3923C175.263 22.3696 175.354 22.3507 175.414 22.3355L175.835 24.3412C175.702 24.3791 175.515 24.4264 175.272 24.4832C175.034 24.5401 174.748 24.576 174.414 24.5912C173.763 24.6215 173.204 24.5457 172.738 24.3639C172.276 24.1783 171.922 23.8904 171.676 23.5003C171.433 23.1101 171.316 22.6196 171.323 22.0287V13.648ZM179.553 24.6139C178.997 24.6139 178.502 24.5211 178.07 24.3355C177.642 24.1461 177.303 23.862 177.053 23.4832C176.807 23.1007 176.684 22.6215 176.684 22.0457C176.684 21.5609 176.769 21.1518 176.94 20.8185C177.11 20.4851 177.345 20.2143 177.644 20.006C177.944 19.7976 178.288 19.6404 178.678 19.5344C179.069 19.4245 179.485 19.3507 179.928 19.3128C180.425 19.2673 180.824 19.22 181.127 19.1707C181.43 19.1177 181.65 19.0438 181.786 18.9491C181.927 18.8507 181.997 18.7124 181.997 18.5344V18.506C181.997 18.2143 181.896 17.9889 181.695 17.8298C181.495 17.6707 181.224 17.5912 180.883 17.5912C180.516 17.5912 180.22 17.6707 179.997 17.8298C179.773 17.9889 179.631 18.2086 179.57 18.4889L177.008 18.398C177.084 17.8677 177.279 17.3942 177.593 16.9776C177.911 16.5571 178.347 16.2276 178.9 15.9889C179.457 15.7465 180.125 15.6253 180.906 15.6253C181.463 15.6253 181.976 15.6916 182.445 15.8241C182.915 15.9529 183.324 16.1423 183.673 16.3923C184.021 16.6385 184.29 16.9416 184.48 17.3014C184.673 17.6613 184.769 18.0722 184.769 18.5344V24.4662H182.156V23.2503H182.088C181.932 23.5457 181.733 23.7957 181.491 24.0003C181.252 24.2048 180.97 24.3582 180.644 24.4605C180.322 24.5628 179.959 24.6139 179.553 24.6139ZM180.411 22.7957C180.711 22.7957 180.98 22.7351 181.218 22.6139C181.461 22.4927 181.654 22.326 181.798 22.1139C181.942 21.898 182.014 21.648 182.014 21.3639V20.5344C181.934 20.576 181.838 20.6139 181.724 20.648C181.614 20.6821 181.493 20.7143 181.36 20.7446C181.228 20.7749 181.091 20.8014 180.951 20.8241C180.811 20.8469 180.677 20.8677 180.548 20.8866C180.286 20.9283 180.063 20.9927 179.877 21.0798C179.695 21.1669 179.555 21.2806 179.457 21.4207C179.362 21.5571 179.315 21.72 179.315 21.9094C179.315 22.1972 179.417 22.4169 179.622 22.5685C179.83 22.72 180.093 22.7957 180.411 22.7957ZM191.394 15.7389V17.7844H185.889V15.7389H191.394ZM187.042 13.648H189.82V21.7219C189.82 21.8923 189.847 22.0306 189.9 22.1366C189.957 22.2389 190.038 22.3128 190.144 22.3582C190.25 22.3999 190.377 22.4207 190.525 22.4207C190.631 22.4207 190.743 22.4113 190.86 22.3923C190.981 22.3696 191.072 22.3507 191.133 22.3355L191.553 24.3412C191.421 24.3791 191.233 24.4264 190.991 24.4832C190.752 24.5401 190.466 24.576 190.133 24.5912C189.481 24.6215 188.923 24.5457 188.457 24.3639C187.995 24.1783 187.641 23.8904 187.394 23.5003C187.152 23.1101 187.034 22.6196 187.042 22.0287V13.648ZM192.812 24.4662V15.7389H195.59V24.4662H192.812ZM194.204 14.7219C193.814 14.7219 193.479 14.5931 193.198 14.3355C192.918 14.0741 192.778 13.7597 192.778 13.3923C192.778 13.0287 192.918 12.7181 193.198 12.4605C193.479 12.1991 193.814 12.0685 194.204 12.0685C194.598 12.0685 194.933 12.1991 195.21 12.4605C195.49 12.7181 195.63 13.0287 195.63 13.3923C195.63 13.7597 195.49 14.0741 195.21 14.3355C194.933 14.5931 194.598 14.7219 194.204 14.7219ZM204.978 18.4037L202.427 18.4719C202.4 18.2901 202.329 18.1291 202.211 17.9889C202.094 17.845 201.94 17.7332 201.751 17.6537C201.565 17.5704 201.349 17.5287 201.103 17.5287C200.781 17.5287 200.507 17.5931 200.279 17.7219C200.056 17.8507 199.946 18.0249 199.95 18.2446C199.946 18.415 200.014 18.5628 200.154 18.6878C200.298 18.8128 200.554 18.9132 200.921 18.9889L202.603 19.3071C203.474 19.4738 204.122 19.7503 204.546 20.1366C204.974 20.523 205.19 21.0344 205.194 21.6707C205.19 22.2692 205.012 22.7901 204.66 23.2332C204.311 23.6764 203.834 24.0211 203.228 24.2673C202.622 24.5097 201.929 24.631 201.149 24.631C199.902 24.631 198.919 24.3753 198.2 23.8639C197.484 23.3488 197.075 22.6594 196.972 21.7957L199.717 21.7276C199.777 22.0457 199.935 22.2882 200.188 22.4548C200.442 22.6215 200.766 22.7048 201.16 22.7048C201.516 22.7048 201.806 22.6385 202.029 22.506C202.253 22.3734 202.366 22.1972 202.37 21.9776C202.366 21.7806 202.279 21.6234 202.109 21.506C201.938 21.3847 201.671 21.2901 201.308 21.2219L199.785 20.9321C198.91 20.773 198.258 20.4794 197.83 20.0514C197.402 19.6196 197.19 19.0704 197.194 18.4037C197.19 17.8204 197.346 17.3222 197.66 16.9094C197.974 16.4927 198.421 16.1745 199.001 15.9548C199.58 15.7351 200.264 15.6253 201.052 15.6253C202.234 15.6253 203.166 15.8734 203.847 16.3696C204.529 16.862 204.906 17.54 204.978 18.4037ZM211.488 15.7389V17.7844H205.982V15.7389H211.488ZM207.136 13.648H209.914V21.7219C209.914 21.8923 209.941 22.0306 209.994 22.1366C210.051 22.2389 210.132 22.3128 210.238 22.3582C210.344 22.3999 210.471 22.4207 210.619 22.4207C210.725 22.4207 210.837 22.4113 210.954 22.3923C211.075 22.3696 211.166 22.3507 211.227 22.3355L211.647 24.3412C211.515 24.3791 211.327 24.4264 211.085 24.4832C210.846 24.5401 210.56 24.576 210.227 24.5912C209.575 24.6215 209.017 24.5457 208.551 24.3639C208.088 24.1783 207.734 23.8904 207.488 23.5003C207.246 23.1101 207.128 22.6196 207.136 22.0287V13.648ZM212.906 24.4662V15.7389H215.684V24.4662H212.906ZM214.298 14.7219C213.908 14.7219 213.572 14.5931 213.292 14.3355C213.012 14.0741 212.872 13.7597 212.872 13.3923C212.872 13.0287 213.012 12.7181 213.292 12.4605C213.572 12.1991 213.908 12.0685 214.298 12.0685C214.692 12.0685 215.027 12.1991 215.303 12.4605C215.584 12.7181 215.724 13.0287 215.724 13.3923C215.724 13.7597 215.584 14.0741 215.303 14.3355C215.027 14.5931 214.692 14.7219 214.298 14.7219ZM221.526 24.631C220.606 24.631 219.816 24.4416 219.157 24.0628C218.502 23.684 217.998 23.1575 217.646 22.4832C217.293 21.8052 217.117 21.0211 217.117 20.131C217.117 19.237 217.293 18.4529 217.646 17.7787C218.002 17.1007 218.508 16.5722 219.163 16.1935C219.822 15.8147 220.608 15.6253 221.521 15.6253C222.328 15.6253 223.03 15.7711 223.629 16.0628C224.231 16.3544 224.701 16.7673 225.038 17.3014C225.379 17.8317 225.559 18.4548 225.578 19.1707H222.981C222.928 18.7238 222.776 18.3734 222.526 18.1196C222.28 17.8658 221.958 17.7389 221.561 17.7389C221.239 17.7389 220.956 17.8298 220.714 18.0116C220.472 18.1897 220.282 18.4548 220.146 18.8071C220.013 19.1556 219.947 19.5874 219.947 20.1026C219.947 20.6177 220.013 21.0533 220.146 21.4094C220.282 21.7616 220.472 22.0287 220.714 22.2105C220.956 22.3885 221.239 22.4776 221.561 22.4776C221.818 22.4776 222.045 22.4226 222.242 22.3128C222.443 22.2029 222.608 22.0419 222.737 21.8298C222.865 21.6139 222.947 21.3526 222.981 21.0457H225.578C225.551 21.7654 225.371 22.3942 225.038 22.9321C224.708 23.47 224.244 23.8885 223.646 24.1878C223.051 24.4832 222.345 24.631 221.526 24.631ZM234.619 18.4037L232.068 18.4719C232.041 18.2901 231.969 18.1291 231.852 17.9889C231.734 17.845 231.581 17.7332 231.392 17.6537C231.206 17.5704 230.99 17.5287 230.744 17.5287C230.422 17.5287 230.147 17.5931 229.92 17.7219C229.696 17.8507 229.587 18.0249 229.59 18.2446C229.587 18.415 229.655 18.5628 229.795 18.6878C229.939 18.8128 230.195 18.9132 230.562 18.9889L232.244 19.3071C233.115 19.4738 233.763 19.7503 234.187 20.1366C234.615 20.523 234.831 21.0344 234.835 21.6707C234.831 22.2692 234.653 22.7901 234.301 23.2332C233.952 23.6764 233.475 24.0211 232.869 24.2673C232.263 24.5097 231.57 24.631 230.789 24.631C229.543 24.631 228.56 24.3753 227.84 23.8639C227.124 23.3488 226.715 22.6594 226.613 21.7957L229.357 21.7276C229.418 22.0457 229.575 22.2882 229.829 22.4548C230.083 22.6215 230.407 22.7048 230.801 22.7048C231.157 22.7048 231.446 22.6385 231.67 22.506C231.893 22.3734 232.007 22.1972 232.011 21.9776C232.007 21.7806 231.92 21.6234 231.749 21.506C231.579 21.3847 231.312 21.2901 230.948 21.2219L229.426 20.9321C228.551 20.773 227.899 20.4794 227.471 20.0514C227.043 19.6196 226.831 19.0704 226.835 18.4037C226.831 17.8204 226.986 17.3222 227.301 16.9094C227.615 16.4927 228.062 16.1745 228.642 15.9548C229.221 15.7351 229.905 15.6253 230.693 15.6253C231.874 15.6253 232.806 15.8734 233.488 16.3696C234.17 16.862 234.547 17.54 234.619 18.4037Z" fill="black"/>
</svg>
